G75*
%MOIN*%
%OFA0B0*%
%FSLAX25Y25*%
%IPPOS*%
%LPD*%
%AMOC8*
5,1,8,0,0,1.08239X$1,22.5*
%
%ADD10C,0.00000*%
%ADD11C,0.00600*%
%ADD12C,0.00400*%
%ADD13C,0.01000*%
%ADD14C,0.00500*%
%ADD15R,0.01700X0.07400*%
%ADD16R,0.07400X0.01700*%
%ADD17R,0.02400X0.03400*%
%ADD18R,0.03400X0.02400*%
%ADD19C,0.00800*%
D10*
X0001800Y0006800D02*
X0001800Y0203650D01*
X0198650Y0203650D01*
X0198650Y0006800D01*
X0001800Y0006800D01*
X0005501Y0016800D02*
X0005503Y0016958D01*
X0005509Y0017116D01*
X0005519Y0017274D01*
X0005533Y0017432D01*
X0005551Y0017589D01*
X0005572Y0017746D01*
X0005598Y0017902D01*
X0005628Y0018058D01*
X0005661Y0018213D01*
X0005699Y0018366D01*
X0005740Y0018519D01*
X0005785Y0018671D01*
X0005834Y0018822D01*
X0005887Y0018971D01*
X0005943Y0019119D01*
X0006003Y0019265D01*
X0006067Y0019410D01*
X0006135Y0019553D01*
X0006206Y0019695D01*
X0006280Y0019835D01*
X0006358Y0019972D01*
X0006440Y0020108D01*
X0006524Y0020242D01*
X0006613Y0020373D01*
X0006704Y0020502D01*
X0006799Y0020629D01*
X0006896Y0020754D01*
X0006997Y0020876D01*
X0007101Y0020995D01*
X0007208Y0021112D01*
X0007318Y0021226D01*
X0007431Y0021337D01*
X0007546Y0021446D01*
X0007664Y0021551D01*
X0007785Y0021653D01*
X0007908Y0021753D01*
X0008034Y0021849D01*
X0008162Y0021942D01*
X0008292Y0022032D01*
X0008425Y0022118D01*
X0008560Y0022202D01*
X0008696Y0022281D01*
X0008835Y0022358D01*
X0008976Y0022430D01*
X0009118Y0022500D01*
X0009262Y0022565D01*
X0009408Y0022627D01*
X0009555Y0022685D01*
X0009704Y0022740D01*
X0009854Y0022791D01*
X0010005Y0022838D01*
X0010157Y0022881D01*
X0010310Y0022920D01*
X0010465Y0022956D01*
X0010620Y0022987D01*
X0010776Y0023015D01*
X0010932Y0023039D01*
X0011089Y0023059D01*
X0011247Y0023075D01*
X0011404Y0023087D01*
X0011563Y0023095D01*
X0011721Y0023099D01*
X0011879Y0023099D01*
X0012037Y0023095D01*
X0012196Y0023087D01*
X0012353Y0023075D01*
X0012511Y0023059D01*
X0012668Y0023039D01*
X0012824Y0023015D01*
X0012980Y0022987D01*
X0013135Y0022956D01*
X0013290Y0022920D01*
X0013443Y0022881D01*
X0013595Y0022838D01*
X0013746Y0022791D01*
X0013896Y0022740D01*
X0014045Y0022685D01*
X0014192Y0022627D01*
X0014338Y0022565D01*
X0014482Y0022500D01*
X0014624Y0022430D01*
X0014765Y0022358D01*
X0014904Y0022281D01*
X0015040Y0022202D01*
X0015175Y0022118D01*
X0015308Y0022032D01*
X0015438Y0021942D01*
X0015566Y0021849D01*
X0015692Y0021753D01*
X0015815Y0021653D01*
X0015936Y0021551D01*
X0016054Y0021446D01*
X0016169Y0021337D01*
X0016282Y0021226D01*
X0016392Y0021112D01*
X0016499Y0020995D01*
X0016603Y0020876D01*
X0016704Y0020754D01*
X0016801Y0020629D01*
X0016896Y0020502D01*
X0016987Y0020373D01*
X0017076Y0020242D01*
X0017160Y0020108D01*
X0017242Y0019972D01*
X0017320Y0019835D01*
X0017394Y0019695D01*
X0017465Y0019553D01*
X0017533Y0019410D01*
X0017597Y0019265D01*
X0017657Y0019119D01*
X0017713Y0018971D01*
X0017766Y0018822D01*
X0017815Y0018671D01*
X0017860Y0018519D01*
X0017901Y0018366D01*
X0017939Y0018213D01*
X0017972Y0018058D01*
X0018002Y0017902D01*
X0018028Y0017746D01*
X0018049Y0017589D01*
X0018067Y0017432D01*
X0018081Y0017274D01*
X0018091Y0017116D01*
X0018097Y0016958D01*
X0018099Y0016800D01*
X0018097Y0016642D01*
X0018091Y0016484D01*
X0018081Y0016326D01*
X0018067Y0016168D01*
X0018049Y0016011D01*
X0018028Y0015854D01*
X0018002Y0015698D01*
X0017972Y0015542D01*
X0017939Y0015387D01*
X0017901Y0015234D01*
X0017860Y0015081D01*
X0017815Y0014929D01*
X0017766Y0014778D01*
X0017713Y0014629D01*
X0017657Y0014481D01*
X0017597Y0014335D01*
X0017533Y0014190D01*
X0017465Y0014047D01*
X0017394Y0013905D01*
X0017320Y0013765D01*
X0017242Y0013628D01*
X0017160Y0013492D01*
X0017076Y0013358D01*
X0016987Y0013227D01*
X0016896Y0013098D01*
X0016801Y0012971D01*
X0016704Y0012846D01*
X0016603Y0012724D01*
X0016499Y0012605D01*
X0016392Y0012488D01*
X0016282Y0012374D01*
X0016169Y0012263D01*
X0016054Y0012154D01*
X0015936Y0012049D01*
X0015815Y0011947D01*
X0015692Y0011847D01*
X0015566Y0011751D01*
X0015438Y0011658D01*
X0015308Y0011568D01*
X0015175Y0011482D01*
X0015040Y0011398D01*
X0014904Y0011319D01*
X0014765Y0011242D01*
X0014624Y0011170D01*
X0014482Y0011100D01*
X0014338Y0011035D01*
X0014192Y0010973D01*
X0014045Y0010915D01*
X0013896Y0010860D01*
X0013746Y0010809D01*
X0013595Y0010762D01*
X0013443Y0010719D01*
X0013290Y0010680D01*
X0013135Y0010644D01*
X0012980Y0010613D01*
X0012824Y0010585D01*
X0012668Y0010561D01*
X0012511Y0010541D01*
X0012353Y0010525D01*
X0012196Y0010513D01*
X0012037Y0010505D01*
X0011879Y0010501D01*
X0011721Y0010501D01*
X0011563Y0010505D01*
X0011404Y0010513D01*
X0011247Y0010525D01*
X0011089Y0010541D01*
X0010932Y0010561D01*
X0010776Y0010585D01*
X0010620Y0010613D01*
X0010465Y0010644D01*
X0010310Y0010680D01*
X0010157Y0010719D01*
X0010005Y0010762D01*
X0009854Y0010809D01*
X0009704Y0010860D01*
X0009555Y0010915D01*
X0009408Y0010973D01*
X0009262Y0011035D01*
X0009118Y0011100D01*
X0008976Y0011170D01*
X0008835Y0011242D01*
X0008696Y0011319D01*
X0008560Y0011398D01*
X0008425Y0011482D01*
X0008292Y0011568D01*
X0008162Y0011658D01*
X0008034Y0011751D01*
X0007908Y0011847D01*
X0007785Y0011947D01*
X0007664Y0012049D01*
X0007546Y0012154D01*
X0007431Y0012263D01*
X0007318Y0012374D01*
X0007208Y0012488D01*
X0007101Y0012605D01*
X0006997Y0012724D01*
X0006896Y0012846D01*
X0006799Y0012971D01*
X0006704Y0013098D01*
X0006613Y0013227D01*
X0006524Y0013358D01*
X0006440Y0013492D01*
X0006358Y0013628D01*
X0006280Y0013765D01*
X0006206Y0013905D01*
X0006135Y0014047D01*
X0006067Y0014190D01*
X0006003Y0014335D01*
X0005943Y0014481D01*
X0005887Y0014629D01*
X0005834Y0014778D01*
X0005785Y0014929D01*
X0005740Y0015081D01*
X0005699Y0015234D01*
X0005661Y0015387D01*
X0005628Y0015542D01*
X0005598Y0015698D01*
X0005572Y0015854D01*
X0005551Y0016011D01*
X0005533Y0016168D01*
X0005519Y0016326D01*
X0005509Y0016484D01*
X0005503Y0016642D01*
X0005501Y0016800D01*
X0005501Y0191800D02*
X0005503Y0191958D01*
X0005509Y0192116D01*
X0005519Y0192274D01*
X0005533Y0192432D01*
X0005551Y0192589D01*
X0005572Y0192746D01*
X0005598Y0192902D01*
X0005628Y0193058D01*
X0005661Y0193213D01*
X0005699Y0193366D01*
X0005740Y0193519D01*
X0005785Y0193671D01*
X0005834Y0193822D01*
X0005887Y0193971D01*
X0005943Y0194119D01*
X0006003Y0194265D01*
X0006067Y0194410D01*
X0006135Y0194553D01*
X0006206Y0194695D01*
X0006280Y0194835D01*
X0006358Y0194972D01*
X0006440Y0195108D01*
X0006524Y0195242D01*
X0006613Y0195373D01*
X0006704Y0195502D01*
X0006799Y0195629D01*
X0006896Y0195754D01*
X0006997Y0195876D01*
X0007101Y0195995D01*
X0007208Y0196112D01*
X0007318Y0196226D01*
X0007431Y0196337D01*
X0007546Y0196446D01*
X0007664Y0196551D01*
X0007785Y0196653D01*
X0007908Y0196753D01*
X0008034Y0196849D01*
X0008162Y0196942D01*
X0008292Y0197032D01*
X0008425Y0197118D01*
X0008560Y0197202D01*
X0008696Y0197281D01*
X0008835Y0197358D01*
X0008976Y0197430D01*
X0009118Y0197500D01*
X0009262Y0197565D01*
X0009408Y0197627D01*
X0009555Y0197685D01*
X0009704Y0197740D01*
X0009854Y0197791D01*
X0010005Y0197838D01*
X0010157Y0197881D01*
X0010310Y0197920D01*
X0010465Y0197956D01*
X0010620Y0197987D01*
X0010776Y0198015D01*
X0010932Y0198039D01*
X0011089Y0198059D01*
X0011247Y0198075D01*
X0011404Y0198087D01*
X0011563Y0198095D01*
X0011721Y0198099D01*
X0011879Y0198099D01*
X0012037Y0198095D01*
X0012196Y0198087D01*
X0012353Y0198075D01*
X0012511Y0198059D01*
X0012668Y0198039D01*
X0012824Y0198015D01*
X0012980Y0197987D01*
X0013135Y0197956D01*
X0013290Y0197920D01*
X0013443Y0197881D01*
X0013595Y0197838D01*
X0013746Y0197791D01*
X0013896Y0197740D01*
X0014045Y0197685D01*
X0014192Y0197627D01*
X0014338Y0197565D01*
X0014482Y0197500D01*
X0014624Y0197430D01*
X0014765Y0197358D01*
X0014904Y0197281D01*
X0015040Y0197202D01*
X0015175Y0197118D01*
X0015308Y0197032D01*
X0015438Y0196942D01*
X0015566Y0196849D01*
X0015692Y0196753D01*
X0015815Y0196653D01*
X0015936Y0196551D01*
X0016054Y0196446D01*
X0016169Y0196337D01*
X0016282Y0196226D01*
X0016392Y0196112D01*
X0016499Y0195995D01*
X0016603Y0195876D01*
X0016704Y0195754D01*
X0016801Y0195629D01*
X0016896Y0195502D01*
X0016987Y0195373D01*
X0017076Y0195242D01*
X0017160Y0195108D01*
X0017242Y0194972D01*
X0017320Y0194835D01*
X0017394Y0194695D01*
X0017465Y0194553D01*
X0017533Y0194410D01*
X0017597Y0194265D01*
X0017657Y0194119D01*
X0017713Y0193971D01*
X0017766Y0193822D01*
X0017815Y0193671D01*
X0017860Y0193519D01*
X0017901Y0193366D01*
X0017939Y0193213D01*
X0017972Y0193058D01*
X0018002Y0192902D01*
X0018028Y0192746D01*
X0018049Y0192589D01*
X0018067Y0192432D01*
X0018081Y0192274D01*
X0018091Y0192116D01*
X0018097Y0191958D01*
X0018099Y0191800D01*
X0018097Y0191642D01*
X0018091Y0191484D01*
X0018081Y0191326D01*
X0018067Y0191168D01*
X0018049Y0191011D01*
X0018028Y0190854D01*
X0018002Y0190698D01*
X0017972Y0190542D01*
X0017939Y0190387D01*
X0017901Y0190234D01*
X0017860Y0190081D01*
X0017815Y0189929D01*
X0017766Y0189778D01*
X0017713Y0189629D01*
X0017657Y0189481D01*
X0017597Y0189335D01*
X0017533Y0189190D01*
X0017465Y0189047D01*
X0017394Y0188905D01*
X0017320Y0188765D01*
X0017242Y0188628D01*
X0017160Y0188492D01*
X0017076Y0188358D01*
X0016987Y0188227D01*
X0016896Y0188098D01*
X0016801Y0187971D01*
X0016704Y0187846D01*
X0016603Y0187724D01*
X0016499Y0187605D01*
X0016392Y0187488D01*
X0016282Y0187374D01*
X0016169Y0187263D01*
X0016054Y0187154D01*
X0015936Y0187049D01*
X0015815Y0186947D01*
X0015692Y0186847D01*
X0015566Y0186751D01*
X0015438Y0186658D01*
X0015308Y0186568D01*
X0015175Y0186482D01*
X0015040Y0186398D01*
X0014904Y0186319D01*
X0014765Y0186242D01*
X0014624Y0186170D01*
X0014482Y0186100D01*
X0014338Y0186035D01*
X0014192Y0185973D01*
X0014045Y0185915D01*
X0013896Y0185860D01*
X0013746Y0185809D01*
X0013595Y0185762D01*
X0013443Y0185719D01*
X0013290Y0185680D01*
X0013135Y0185644D01*
X0012980Y0185613D01*
X0012824Y0185585D01*
X0012668Y0185561D01*
X0012511Y0185541D01*
X0012353Y0185525D01*
X0012196Y0185513D01*
X0012037Y0185505D01*
X0011879Y0185501D01*
X0011721Y0185501D01*
X0011563Y0185505D01*
X0011404Y0185513D01*
X0011247Y0185525D01*
X0011089Y0185541D01*
X0010932Y0185561D01*
X0010776Y0185585D01*
X0010620Y0185613D01*
X0010465Y0185644D01*
X0010310Y0185680D01*
X0010157Y0185719D01*
X0010005Y0185762D01*
X0009854Y0185809D01*
X0009704Y0185860D01*
X0009555Y0185915D01*
X0009408Y0185973D01*
X0009262Y0186035D01*
X0009118Y0186100D01*
X0008976Y0186170D01*
X0008835Y0186242D01*
X0008696Y0186319D01*
X0008560Y0186398D01*
X0008425Y0186482D01*
X0008292Y0186568D01*
X0008162Y0186658D01*
X0008034Y0186751D01*
X0007908Y0186847D01*
X0007785Y0186947D01*
X0007664Y0187049D01*
X0007546Y0187154D01*
X0007431Y0187263D01*
X0007318Y0187374D01*
X0007208Y0187488D01*
X0007101Y0187605D01*
X0006997Y0187724D01*
X0006896Y0187846D01*
X0006799Y0187971D01*
X0006704Y0188098D01*
X0006613Y0188227D01*
X0006524Y0188358D01*
X0006440Y0188492D01*
X0006358Y0188628D01*
X0006280Y0188765D01*
X0006206Y0188905D01*
X0006135Y0189047D01*
X0006067Y0189190D01*
X0006003Y0189335D01*
X0005943Y0189481D01*
X0005887Y0189629D01*
X0005834Y0189778D01*
X0005785Y0189929D01*
X0005740Y0190081D01*
X0005699Y0190234D01*
X0005661Y0190387D01*
X0005628Y0190542D01*
X0005598Y0190698D01*
X0005572Y0190854D01*
X0005551Y0191011D01*
X0005533Y0191168D01*
X0005519Y0191326D01*
X0005509Y0191484D01*
X0005503Y0191642D01*
X0005501Y0191800D01*
X0180501Y0191800D02*
X0180503Y0191958D01*
X0180509Y0192116D01*
X0180519Y0192274D01*
X0180533Y0192432D01*
X0180551Y0192589D01*
X0180572Y0192746D01*
X0180598Y0192902D01*
X0180628Y0193058D01*
X0180661Y0193213D01*
X0180699Y0193366D01*
X0180740Y0193519D01*
X0180785Y0193671D01*
X0180834Y0193822D01*
X0180887Y0193971D01*
X0180943Y0194119D01*
X0181003Y0194265D01*
X0181067Y0194410D01*
X0181135Y0194553D01*
X0181206Y0194695D01*
X0181280Y0194835D01*
X0181358Y0194972D01*
X0181440Y0195108D01*
X0181524Y0195242D01*
X0181613Y0195373D01*
X0181704Y0195502D01*
X0181799Y0195629D01*
X0181896Y0195754D01*
X0181997Y0195876D01*
X0182101Y0195995D01*
X0182208Y0196112D01*
X0182318Y0196226D01*
X0182431Y0196337D01*
X0182546Y0196446D01*
X0182664Y0196551D01*
X0182785Y0196653D01*
X0182908Y0196753D01*
X0183034Y0196849D01*
X0183162Y0196942D01*
X0183292Y0197032D01*
X0183425Y0197118D01*
X0183560Y0197202D01*
X0183696Y0197281D01*
X0183835Y0197358D01*
X0183976Y0197430D01*
X0184118Y0197500D01*
X0184262Y0197565D01*
X0184408Y0197627D01*
X0184555Y0197685D01*
X0184704Y0197740D01*
X0184854Y0197791D01*
X0185005Y0197838D01*
X0185157Y0197881D01*
X0185310Y0197920D01*
X0185465Y0197956D01*
X0185620Y0197987D01*
X0185776Y0198015D01*
X0185932Y0198039D01*
X0186089Y0198059D01*
X0186247Y0198075D01*
X0186404Y0198087D01*
X0186563Y0198095D01*
X0186721Y0198099D01*
X0186879Y0198099D01*
X0187037Y0198095D01*
X0187196Y0198087D01*
X0187353Y0198075D01*
X0187511Y0198059D01*
X0187668Y0198039D01*
X0187824Y0198015D01*
X0187980Y0197987D01*
X0188135Y0197956D01*
X0188290Y0197920D01*
X0188443Y0197881D01*
X0188595Y0197838D01*
X0188746Y0197791D01*
X0188896Y0197740D01*
X0189045Y0197685D01*
X0189192Y0197627D01*
X0189338Y0197565D01*
X0189482Y0197500D01*
X0189624Y0197430D01*
X0189765Y0197358D01*
X0189904Y0197281D01*
X0190040Y0197202D01*
X0190175Y0197118D01*
X0190308Y0197032D01*
X0190438Y0196942D01*
X0190566Y0196849D01*
X0190692Y0196753D01*
X0190815Y0196653D01*
X0190936Y0196551D01*
X0191054Y0196446D01*
X0191169Y0196337D01*
X0191282Y0196226D01*
X0191392Y0196112D01*
X0191499Y0195995D01*
X0191603Y0195876D01*
X0191704Y0195754D01*
X0191801Y0195629D01*
X0191896Y0195502D01*
X0191987Y0195373D01*
X0192076Y0195242D01*
X0192160Y0195108D01*
X0192242Y0194972D01*
X0192320Y0194835D01*
X0192394Y0194695D01*
X0192465Y0194553D01*
X0192533Y0194410D01*
X0192597Y0194265D01*
X0192657Y0194119D01*
X0192713Y0193971D01*
X0192766Y0193822D01*
X0192815Y0193671D01*
X0192860Y0193519D01*
X0192901Y0193366D01*
X0192939Y0193213D01*
X0192972Y0193058D01*
X0193002Y0192902D01*
X0193028Y0192746D01*
X0193049Y0192589D01*
X0193067Y0192432D01*
X0193081Y0192274D01*
X0193091Y0192116D01*
X0193097Y0191958D01*
X0193099Y0191800D01*
X0193097Y0191642D01*
X0193091Y0191484D01*
X0193081Y0191326D01*
X0193067Y0191168D01*
X0193049Y0191011D01*
X0193028Y0190854D01*
X0193002Y0190698D01*
X0192972Y0190542D01*
X0192939Y0190387D01*
X0192901Y0190234D01*
X0192860Y0190081D01*
X0192815Y0189929D01*
X0192766Y0189778D01*
X0192713Y0189629D01*
X0192657Y0189481D01*
X0192597Y0189335D01*
X0192533Y0189190D01*
X0192465Y0189047D01*
X0192394Y0188905D01*
X0192320Y0188765D01*
X0192242Y0188628D01*
X0192160Y0188492D01*
X0192076Y0188358D01*
X0191987Y0188227D01*
X0191896Y0188098D01*
X0191801Y0187971D01*
X0191704Y0187846D01*
X0191603Y0187724D01*
X0191499Y0187605D01*
X0191392Y0187488D01*
X0191282Y0187374D01*
X0191169Y0187263D01*
X0191054Y0187154D01*
X0190936Y0187049D01*
X0190815Y0186947D01*
X0190692Y0186847D01*
X0190566Y0186751D01*
X0190438Y0186658D01*
X0190308Y0186568D01*
X0190175Y0186482D01*
X0190040Y0186398D01*
X0189904Y0186319D01*
X0189765Y0186242D01*
X0189624Y0186170D01*
X0189482Y0186100D01*
X0189338Y0186035D01*
X0189192Y0185973D01*
X0189045Y0185915D01*
X0188896Y0185860D01*
X0188746Y0185809D01*
X0188595Y0185762D01*
X0188443Y0185719D01*
X0188290Y0185680D01*
X0188135Y0185644D01*
X0187980Y0185613D01*
X0187824Y0185585D01*
X0187668Y0185561D01*
X0187511Y0185541D01*
X0187353Y0185525D01*
X0187196Y0185513D01*
X0187037Y0185505D01*
X0186879Y0185501D01*
X0186721Y0185501D01*
X0186563Y0185505D01*
X0186404Y0185513D01*
X0186247Y0185525D01*
X0186089Y0185541D01*
X0185932Y0185561D01*
X0185776Y0185585D01*
X0185620Y0185613D01*
X0185465Y0185644D01*
X0185310Y0185680D01*
X0185157Y0185719D01*
X0185005Y0185762D01*
X0184854Y0185809D01*
X0184704Y0185860D01*
X0184555Y0185915D01*
X0184408Y0185973D01*
X0184262Y0186035D01*
X0184118Y0186100D01*
X0183976Y0186170D01*
X0183835Y0186242D01*
X0183696Y0186319D01*
X0183560Y0186398D01*
X0183425Y0186482D01*
X0183292Y0186568D01*
X0183162Y0186658D01*
X0183034Y0186751D01*
X0182908Y0186847D01*
X0182785Y0186947D01*
X0182664Y0187049D01*
X0182546Y0187154D01*
X0182431Y0187263D01*
X0182318Y0187374D01*
X0182208Y0187488D01*
X0182101Y0187605D01*
X0181997Y0187724D01*
X0181896Y0187846D01*
X0181799Y0187971D01*
X0181704Y0188098D01*
X0181613Y0188227D01*
X0181524Y0188358D01*
X0181440Y0188492D01*
X0181358Y0188628D01*
X0181280Y0188765D01*
X0181206Y0188905D01*
X0181135Y0189047D01*
X0181067Y0189190D01*
X0181003Y0189335D01*
X0180943Y0189481D01*
X0180887Y0189629D01*
X0180834Y0189778D01*
X0180785Y0189929D01*
X0180740Y0190081D01*
X0180699Y0190234D01*
X0180661Y0190387D01*
X0180628Y0190542D01*
X0180598Y0190698D01*
X0180572Y0190854D01*
X0180551Y0191011D01*
X0180533Y0191168D01*
X0180519Y0191326D01*
X0180509Y0191484D01*
X0180503Y0191642D01*
X0180501Y0191800D01*
X0180501Y0016800D02*
X0180503Y0016958D01*
X0180509Y0017116D01*
X0180519Y0017274D01*
X0180533Y0017432D01*
X0180551Y0017589D01*
X0180572Y0017746D01*
X0180598Y0017902D01*
X0180628Y0018058D01*
X0180661Y0018213D01*
X0180699Y0018366D01*
X0180740Y0018519D01*
X0180785Y0018671D01*
X0180834Y0018822D01*
X0180887Y0018971D01*
X0180943Y0019119D01*
X0181003Y0019265D01*
X0181067Y0019410D01*
X0181135Y0019553D01*
X0181206Y0019695D01*
X0181280Y0019835D01*
X0181358Y0019972D01*
X0181440Y0020108D01*
X0181524Y0020242D01*
X0181613Y0020373D01*
X0181704Y0020502D01*
X0181799Y0020629D01*
X0181896Y0020754D01*
X0181997Y0020876D01*
X0182101Y0020995D01*
X0182208Y0021112D01*
X0182318Y0021226D01*
X0182431Y0021337D01*
X0182546Y0021446D01*
X0182664Y0021551D01*
X0182785Y0021653D01*
X0182908Y0021753D01*
X0183034Y0021849D01*
X0183162Y0021942D01*
X0183292Y0022032D01*
X0183425Y0022118D01*
X0183560Y0022202D01*
X0183696Y0022281D01*
X0183835Y0022358D01*
X0183976Y0022430D01*
X0184118Y0022500D01*
X0184262Y0022565D01*
X0184408Y0022627D01*
X0184555Y0022685D01*
X0184704Y0022740D01*
X0184854Y0022791D01*
X0185005Y0022838D01*
X0185157Y0022881D01*
X0185310Y0022920D01*
X0185465Y0022956D01*
X0185620Y0022987D01*
X0185776Y0023015D01*
X0185932Y0023039D01*
X0186089Y0023059D01*
X0186247Y0023075D01*
X0186404Y0023087D01*
X0186563Y0023095D01*
X0186721Y0023099D01*
X0186879Y0023099D01*
X0187037Y0023095D01*
X0187196Y0023087D01*
X0187353Y0023075D01*
X0187511Y0023059D01*
X0187668Y0023039D01*
X0187824Y0023015D01*
X0187980Y0022987D01*
X0188135Y0022956D01*
X0188290Y0022920D01*
X0188443Y0022881D01*
X0188595Y0022838D01*
X0188746Y0022791D01*
X0188896Y0022740D01*
X0189045Y0022685D01*
X0189192Y0022627D01*
X0189338Y0022565D01*
X0189482Y0022500D01*
X0189624Y0022430D01*
X0189765Y0022358D01*
X0189904Y0022281D01*
X0190040Y0022202D01*
X0190175Y0022118D01*
X0190308Y0022032D01*
X0190438Y0021942D01*
X0190566Y0021849D01*
X0190692Y0021753D01*
X0190815Y0021653D01*
X0190936Y0021551D01*
X0191054Y0021446D01*
X0191169Y0021337D01*
X0191282Y0021226D01*
X0191392Y0021112D01*
X0191499Y0020995D01*
X0191603Y0020876D01*
X0191704Y0020754D01*
X0191801Y0020629D01*
X0191896Y0020502D01*
X0191987Y0020373D01*
X0192076Y0020242D01*
X0192160Y0020108D01*
X0192242Y0019972D01*
X0192320Y0019835D01*
X0192394Y0019695D01*
X0192465Y0019553D01*
X0192533Y0019410D01*
X0192597Y0019265D01*
X0192657Y0019119D01*
X0192713Y0018971D01*
X0192766Y0018822D01*
X0192815Y0018671D01*
X0192860Y0018519D01*
X0192901Y0018366D01*
X0192939Y0018213D01*
X0192972Y0018058D01*
X0193002Y0017902D01*
X0193028Y0017746D01*
X0193049Y0017589D01*
X0193067Y0017432D01*
X0193081Y0017274D01*
X0193091Y0017116D01*
X0193097Y0016958D01*
X0193099Y0016800D01*
X0193097Y0016642D01*
X0193091Y0016484D01*
X0193081Y0016326D01*
X0193067Y0016168D01*
X0193049Y0016011D01*
X0193028Y0015854D01*
X0193002Y0015698D01*
X0192972Y0015542D01*
X0192939Y0015387D01*
X0192901Y0015234D01*
X0192860Y0015081D01*
X0192815Y0014929D01*
X0192766Y0014778D01*
X0192713Y0014629D01*
X0192657Y0014481D01*
X0192597Y0014335D01*
X0192533Y0014190D01*
X0192465Y0014047D01*
X0192394Y0013905D01*
X0192320Y0013765D01*
X0192242Y0013628D01*
X0192160Y0013492D01*
X0192076Y0013358D01*
X0191987Y0013227D01*
X0191896Y0013098D01*
X0191801Y0012971D01*
X0191704Y0012846D01*
X0191603Y0012724D01*
X0191499Y0012605D01*
X0191392Y0012488D01*
X0191282Y0012374D01*
X0191169Y0012263D01*
X0191054Y0012154D01*
X0190936Y0012049D01*
X0190815Y0011947D01*
X0190692Y0011847D01*
X0190566Y0011751D01*
X0190438Y0011658D01*
X0190308Y0011568D01*
X0190175Y0011482D01*
X0190040Y0011398D01*
X0189904Y0011319D01*
X0189765Y0011242D01*
X0189624Y0011170D01*
X0189482Y0011100D01*
X0189338Y0011035D01*
X0189192Y0010973D01*
X0189045Y0010915D01*
X0188896Y0010860D01*
X0188746Y0010809D01*
X0188595Y0010762D01*
X0188443Y0010719D01*
X0188290Y0010680D01*
X0188135Y0010644D01*
X0187980Y0010613D01*
X0187824Y0010585D01*
X0187668Y0010561D01*
X0187511Y0010541D01*
X0187353Y0010525D01*
X0187196Y0010513D01*
X0187037Y0010505D01*
X0186879Y0010501D01*
X0186721Y0010501D01*
X0186563Y0010505D01*
X0186404Y0010513D01*
X0186247Y0010525D01*
X0186089Y0010541D01*
X0185932Y0010561D01*
X0185776Y0010585D01*
X0185620Y0010613D01*
X0185465Y0010644D01*
X0185310Y0010680D01*
X0185157Y0010719D01*
X0185005Y0010762D01*
X0184854Y0010809D01*
X0184704Y0010860D01*
X0184555Y0010915D01*
X0184408Y0010973D01*
X0184262Y0011035D01*
X0184118Y0011100D01*
X0183976Y0011170D01*
X0183835Y0011242D01*
X0183696Y0011319D01*
X0183560Y0011398D01*
X0183425Y0011482D01*
X0183292Y0011568D01*
X0183162Y0011658D01*
X0183034Y0011751D01*
X0182908Y0011847D01*
X0182785Y0011947D01*
X0182664Y0012049D01*
X0182546Y0012154D01*
X0182431Y0012263D01*
X0182318Y0012374D01*
X0182208Y0012488D01*
X0182101Y0012605D01*
X0181997Y0012724D01*
X0181896Y0012846D01*
X0181799Y0012971D01*
X0181704Y0013098D01*
X0181613Y0013227D01*
X0181524Y0013358D01*
X0181440Y0013492D01*
X0181358Y0013628D01*
X0181280Y0013765D01*
X0181206Y0013905D01*
X0181135Y0014047D01*
X0181067Y0014190D01*
X0181003Y0014335D01*
X0180943Y0014481D01*
X0180887Y0014629D01*
X0180834Y0014778D01*
X0180785Y0014929D01*
X0180740Y0015081D01*
X0180699Y0015234D01*
X0180661Y0015387D01*
X0180628Y0015542D01*
X0180598Y0015698D01*
X0180572Y0015854D01*
X0180551Y0016011D01*
X0180533Y0016168D01*
X0180519Y0016326D01*
X0180509Y0016484D01*
X0180503Y0016642D01*
X0180501Y0016800D01*
D11*
X0161800Y0023300D02*
X0161800Y0040300D01*
X0161798Y0040360D01*
X0161793Y0040421D01*
X0161784Y0040480D01*
X0161771Y0040539D01*
X0161755Y0040598D01*
X0161735Y0040655D01*
X0161712Y0040710D01*
X0161685Y0040765D01*
X0161656Y0040817D01*
X0161623Y0040868D01*
X0161587Y0040917D01*
X0161549Y0040963D01*
X0161507Y0041007D01*
X0161463Y0041049D01*
X0161417Y0041087D01*
X0161368Y0041123D01*
X0161317Y0041156D01*
X0161265Y0041185D01*
X0161210Y0041212D01*
X0161155Y0041235D01*
X0161098Y0041255D01*
X0161039Y0041271D01*
X0160980Y0041284D01*
X0160921Y0041293D01*
X0160860Y0041298D01*
X0160800Y0041300D01*
X0152800Y0041300D01*
X0152740Y0041298D01*
X0152679Y0041293D01*
X0152620Y0041284D01*
X0152561Y0041271D01*
X0152502Y0041255D01*
X0152445Y0041235D01*
X0152390Y0041212D01*
X0152335Y0041185D01*
X0152283Y0041156D01*
X0152232Y0041123D01*
X0152183Y0041087D01*
X0152137Y0041049D01*
X0152093Y0041007D01*
X0152051Y0040963D01*
X0152013Y0040917D01*
X0151977Y0040868D01*
X0151944Y0040817D01*
X0151915Y0040765D01*
X0151888Y0040710D01*
X0151865Y0040655D01*
X0151845Y0040598D01*
X0151829Y0040539D01*
X0151816Y0040480D01*
X0151807Y0040421D01*
X0151802Y0040360D01*
X0151800Y0040300D01*
X0151800Y0023300D01*
X0151802Y0023240D01*
X0151807Y0023179D01*
X0151816Y0023120D01*
X0151829Y0023061D01*
X0151845Y0023002D01*
X0151865Y0022945D01*
X0151888Y0022890D01*
X0151915Y0022835D01*
X0151944Y0022783D01*
X0151977Y0022732D01*
X0152013Y0022683D01*
X0152051Y0022637D01*
X0152093Y0022593D01*
X0152137Y0022551D01*
X0152183Y0022513D01*
X0152232Y0022477D01*
X0152283Y0022444D01*
X0152335Y0022415D01*
X0152390Y0022388D01*
X0152445Y0022365D01*
X0152502Y0022345D01*
X0152561Y0022329D01*
X0152620Y0022316D01*
X0152679Y0022307D01*
X0152740Y0022302D01*
X0152800Y0022300D01*
X0160800Y0022300D01*
X0160860Y0022302D01*
X0160921Y0022307D01*
X0160980Y0022316D01*
X0161039Y0022329D01*
X0161098Y0022345D01*
X0161155Y0022365D01*
X0161210Y0022388D01*
X0161265Y0022415D01*
X0161317Y0022444D01*
X0161368Y0022477D01*
X0161417Y0022513D01*
X0161463Y0022551D01*
X0161507Y0022593D01*
X0161549Y0022637D01*
X0161587Y0022683D01*
X0161623Y0022732D01*
X0161656Y0022783D01*
X0161685Y0022835D01*
X0161712Y0022890D01*
X0161735Y0022945D01*
X0161755Y0023002D01*
X0161771Y0023061D01*
X0161784Y0023120D01*
X0161793Y0023179D01*
X0161798Y0023240D01*
X0161800Y0023300D01*
X0156800Y0030300D02*
X0156800Y0030800D01*
X0156800Y0032800D02*
X0156800Y0033300D01*
X0170800Y0045800D02*
X0182800Y0045800D01*
X0182898Y0045802D01*
X0182996Y0045808D01*
X0183094Y0045817D01*
X0183191Y0045831D01*
X0183288Y0045848D01*
X0183384Y0045869D01*
X0183479Y0045894D01*
X0183573Y0045922D01*
X0183665Y0045955D01*
X0183757Y0045990D01*
X0183847Y0046030D01*
X0183935Y0046072D01*
X0184022Y0046119D01*
X0184106Y0046168D01*
X0184189Y0046221D01*
X0184269Y0046277D01*
X0184348Y0046337D01*
X0184424Y0046399D01*
X0184497Y0046464D01*
X0184568Y0046532D01*
X0184636Y0046603D01*
X0184701Y0046676D01*
X0184763Y0046752D01*
X0184823Y0046831D01*
X0184879Y0046911D01*
X0184932Y0046994D01*
X0184981Y0047078D01*
X0185028Y0047165D01*
X0185070Y0047253D01*
X0185110Y0047343D01*
X0185145Y0047435D01*
X0185178Y0047527D01*
X0185206Y0047621D01*
X0185231Y0047716D01*
X0185252Y0047812D01*
X0185269Y0047909D01*
X0185283Y0048006D01*
X0185292Y0048104D01*
X0185298Y0048202D01*
X0185300Y0048300D01*
X0185300Y0072300D01*
X0185297Y0072507D01*
X0185290Y0072714D01*
X0185277Y0072920D01*
X0185260Y0073127D01*
X0185237Y0073332D01*
X0185209Y0073538D01*
X0185177Y0073742D01*
X0185139Y0073946D01*
X0185097Y0074148D01*
X0185049Y0074350D01*
X0184997Y0074550D01*
X0184940Y0074749D01*
X0184878Y0074946D01*
X0184811Y0075142D01*
X0184739Y0075336D01*
X0184663Y0075529D01*
X0184582Y0075719D01*
X0184496Y0075908D01*
X0184406Y0076094D01*
X0184312Y0076278D01*
X0184212Y0076460D01*
X0184109Y0076639D01*
X0184001Y0076816D01*
X0183889Y0076990D01*
X0183773Y0077161D01*
X0183652Y0077330D01*
X0183528Y0077495D01*
X0183399Y0077657D01*
X0183267Y0077816D01*
X0183131Y0077972D01*
X0182991Y0078125D01*
X0182847Y0078274D01*
X0182700Y0078419D01*
X0182549Y0078561D01*
X0182395Y0078699D01*
X0182237Y0078834D01*
X0182077Y0078964D01*
X0181913Y0079090D01*
X0181746Y0079213D01*
X0181576Y0079331D01*
X0181403Y0079446D01*
X0181228Y0079556D01*
X0181050Y0079661D01*
X0180869Y0079763D01*
X0180687Y0079859D01*
X0180501Y0079952D01*
X0180314Y0080040D01*
X0180124Y0080123D01*
X0179933Y0080202D01*
X0179740Y0080276D01*
X0179544Y0080345D01*
X0179348Y0080409D01*
X0179150Y0080469D01*
X0178950Y0080524D01*
X0178749Y0080574D01*
X0178547Y0080619D01*
X0178344Y0080659D01*
X0178140Y0080694D01*
X0177935Y0080724D01*
X0177730Y0080749D01*
X0177524Y0080769D01*
X0177317Y0080784D01*
X0177110Y0080794D01*
X0176903Y0080799D01*
X0176697Y0080799D01*
X0176490Y0080794D01*
X0176283Y0080784D01*
X0176076Y0080769D01*
X0175870Y0080749D01*
X0175665Y0080724D01*
X0175460Y0080694D01*
X0175256Y0080659D01*
X0175053Y0080619D01*
X0174851Y0080574D01*
X0174650Y0080524D01*
X0174450Y0080469D01*
X0174252Y0080409D01*
X0174056Y0080345D01*
X0173860Y0080276D01*
X0173667Y0080202D01*
X0173476Y0080123D01*
X0173286Y0080040D01*
X0173099Y0079952D01*
X0172913Y0079859D01*
X0172731Y0079763D01*
X0172550Y0079661D01*
X0172372Y0079556D01*
X0172197Y0079446D01*
X0172024Y0079331D01*
X0171854Y0079213D01*
X0171687Y0079090D01*
X0171523Y0078964D01*
X0171363Y0078834D01*
X0171205Y0078699D01*
X0171051Y0078561D01*
X0170900Y0078419D01*
X0170753Y0078274D01*
X0170609Y0078125D01*
X0170469Y0077972D01*
X0170333Y0077816D01*
X0170201Y0077657D01*
X0170072Y0077495D01*
X0169948Y0077330D01*
X0169827Y0077161D01*
X0169711Y0076990D01*
X0169599Y0076816D01*
X0169491Y0076639D01*
X0169388Y0076460D01*
X0169288Y0076278D01*
X0169194Y0076094D01*
X0169104Y0075908D01*
X0169018Y0075719D01*
X0168937Y0075529D01*
X0168861Y0075336D01*
X0168789Y0075142D01*
X0168722Y0074946D01*
X0168660Y0074749D01*
X0168603Y0074550D01*
X0168551Y0074350D01*
X0168503Y0074148D01*
X0168461Y0073946D01*
X0168423Y0073742D01*
X0168391Y0073538D01*
X0168363Y0073332D01*
X0168340Y0073127D01*
X0168323Y0072920D01*
X0168310Y0072714D01*
X0168303Y0072507D01*
X0168300Y0072300D01*
X0168300Y0048300D01*
X0168302Y0048202D01*
X0168308Y0048104D01*
X0168317Y0048006D01*
X0168331Y0047909D01*
X0168348Y0047812D01*
X0168369Y0047716D01*
X0168394Y0047621D01*
X0168422Y0047527D01*
X0168455Y0047435D01*
X0168490Y0047343D01*
X0168530Y0047253D01*
X0168572Y0047165D01*
X0168619Y0047078D01*
X0168668Y0046994D01*
X0168721Y0046911D01*
X0168777Y0046831D01*
X0168837Y0046752D01*
X0168899Y0046676D01*
X0168964Y0046603D01*
X0169032Y0046532D01*
X0169103Y0046464D01*
X0169176Y0046399D01*
X0169252Y0046337D01*
X0169331Y0046277D01*
X0169411Y0046221D01*
X0169494Y0046168D01*
X0169578Y0046119D01*
X0169665Y0046072D01*
X0169753Y0046030D01*
X0169843Y0045990D01*
X0169935Y0045955D01*
X0170027Y0045922D01*
X0170121Y0045894D01*
X0170216Y0045869D01*
X0170312Y0045848D01*
X0170409Y0045831D01*
X0170506Y0045817D01*
X0170604Y0045808D01*
X0170702Y0045802D01*
X0170800Y0045800D01*
X0174300Y0048300D02*
X0175600Y0048300D01*
X0175600Y0055300D01*
X0174300Y0055300D01*
X0174300Y0051800D01*
X0174300Y0048300D01*
X0174300Y0051800D02*
X0171800Y0051800D01*
X0171300Y0053800D02*
X0171300Y0056800D01*
X0169800Y0055300D02*
X0172800Y0055300D01*
X0177800Y0051800D02*
X0179800Y0051800D01*
X0172300Y0083300D02*
X0148300Y0083300D01*
X0148202Y0083302D01*
X0148104Y0083308D01*
X0148006Y0083317D01*
X0147909Y0083331D01*
X0147812Y0083348D01*
X0147716Y0083369D01*
X0147621Y0083394D01*
X0147527Y0083422D01*
X0147435Y0083455D01*
X0147343Y0083490D01*
X0147253Y0083530D01*
X0147165Y0083572D01*
X0147078Y0083619D01*
X0146994Y0083668D01*
X0146911Y0083721D01*
X0146831Y0083777D01*
X0146752Y0083837D01*
X0146676Y0083899D01*
X0146603Y0083964D01*
X0146532Y0084032D01*
X0146464Y0084103D01*
X0146399Y0084176D01*
X0146337Y0084252D01*
X0146277Y0084331D01*
X0146221Y0084411D01*
X0146168Y0084494D01*
X0146119Y0084578D01*
X0146072Y0084665D01*
X0146030Y0084753D01*
X0145990Y0084843D01*
X0145955Y0084935D01*
X0145922Y0085027D01*
X0145894Y0085121D01*
X0145869Y0085216D01*
X0145848Y0085312D01*
X0145831Y0085409D01*
X0145817Y0085506D01*
X0145808Y0085604D01*
X0145802Y0085702D01*
X0145800Y0085800D01*
X0145800Y0097800D01*
X0145802Y0097898D01*
X0145808Y0097996D01*
X0145817Y0098094D01*
X0145831Y0098191D01*
X0145848Y0098288D01*
X0145869Y0098384D01*
X0145894Y0098479D01*
X0145922Y0098573D01*
X0145955Y0098665D01*
X0145990Y0098757D01*
X0146030Y0098847D01*
X0146072Y0098935D01*
X0146119Y0099022D01*
X0146168Y0099106D01*
X0146221Y0099189D01*
X0146277Y0099269D01*
X0146337Y0099348D01*
X0146399Y0099424D01*
X0146464Y0099497D01*
X0146532Y0099568D01*
X0146603Y0099636D01*
X0146676Y0099701D01*
X0146752Y0099763D01*
X0146831Y0099823D01*
X0146911Y0099879D01*
X0146994Y0099932D01*
X0147078Y0099981D01*
X0147165Y0100028D01*
X0147253Y0100070D01*
X0147343Y0100110D01*
X0147435Y0100145D01*
X0147527Y0100178D01*
X0147621Y0100206D01*
X0147716Y0100231D01*
X0147812Y0100252D01*
X0147909Y0100269D01*
X0148006Y0100283D01*
X0148104Y0100292D01*
X0148202Y0100298D01*
X0148300Y0100300D01*
X0172300Y0100300D01*
X0173297Y0100105D02*
X0170095Y0103308D01*
X0176500Y0103308D01*
X0173297Y0104376D02*
X0173297Y0100105D01*
X0176500Y0097930D02*
X0176500Y0093660D01*
X0170095Y0093660D01*
X0170095Y0097930D01*
X0173297Y0095795D02*
X0173297Y0093660D01*
X0172300Y0100300D02*
X0172507Y0100297D01*
X0172714Y0100290D01*
X0172920Y0100277D01*
X0173127Y0100260D01*
X0173332Y0100237D01*
X0173538Y0100209D01*
X0173742Y0100177D01*
X0173946Y0100139D01*
X0174148Y0100097D01*
X0174350Y0100049D01*
X0174550Y0099997D01*
X0174749Y0099940D01*
X0174946Y0099878D01*
X0175142Y0099811D01*
X0175336Y0099739D01*
X0175529Y0099663D01*
X0175719Y0099582D01*
X0175908Y0099496D01*
X0176094Y0099406D01*
X0176278Y0099312D01*
X0176460Y0099212D01*
X0176639Y0099109D01*
X0176816Y0099001D01*
X0176990Y0098889D01*
X0177161Y0098773D01*
X0177330Y0098652D01*
X0177495Y0098528D01*
X0177657Y0098399D01*
X0177816Y0098267D01*
X0177972Y0098131D01*
X0178125Y0097991D01*
X0178274Y0097847D01*
X0178419Y0097700D01*
X0178561Y0097549D01*
X0178699Y0097395D01*
X0178834Y0097237D01*
X0178964Y0097077D01*
X0179090Y0096913D01*
X0179213Y0096746D01*
X0179331Y0096576D01*
X0179446Y0096403D01*
X0179556Y0096228D01*
X0179661Y0096050D01*
X0179763Y0095869D01*
X0179859Y0095687D01*
X0179952Y0095501D01*
X0180040Y0095314D01*
X0180123Y0095124D01*
X0180202Y0094933D01*
X0180276Y0094740D01*
X0180345Y0094544D01*
X0180409Y0094348D01*
X0180469Y0094150D01*
X0180524Y0093950D01*
X0180574Y0093749D01*
X0180619Y0093547D01*
X0180659Y0093344D01*
X0180694Y0093140D01*
X0180724Y0092935D01*
X0180749Y0092730D01*
X0180769Y0092524D01*
X0180784Y0092317D01*
X0180794Y0092110D01*
X0180799Y0091903D01*
X0180799Y0091697D01*
X0180794Y0091490D01*
X0180784Y0091283D01*
X0180769Y0091076D01*
X0180749Y0090870D01*
X0180724Y0090665D01*
X0180694Y0090460D01*
X0180659Y0090256D01*
X0180619Y0090053D01*
X0180574Y0089851D01*
X0180524Y0089650D01*
X0180469Y0089450D01*
X0180409Y0089252D01*
X0180345Y0089056D01*
X0180276Y0088860D01*
X0180202Y0088667D01*
X0180123Y0088476D01*
X0180040Y0088286D01*
X0179952Y0088099D01*
X0179859Y0087913D01*
X0179763Y0087731D01*
X0179661Y0087550D01*
X0179556Y0087372D01*
X0179446Y0087197D01*
X0179331Y0087024D01*
X0179213Y0086854D01*
X0179090Y0086687D01*
X0178964Y0086523D01*
X0178834Y0086363D01*
X0178699Y0086205D01*
X0178561Y0086051D01*
X0178419Y0085900D01*
X0178274Y0085753D01*
X0178125Y0085609D01*
X0177972Y0085469D01*
X0177816Y0085333D01*
X0177657Y0085201D01*
X0177495Y0085072D01*
X0177330Y0084948D01*
X0177161Y0084827D01*
X0176990Y0084711D01*
X0176816Y0084599D01*
X0176639Y0084491D01*
X0176460Y0084388D01*
X0176278Y0084288D01*
X0176094Y0084194D01*
X0175908Y0084104D01*
X0175719Y0084018D01*
X0175529Y0083937D01*
X0175336Y0083861D01*
X0175142Y0083789D01*
X0174946Y0083722D01*
X0174749Y0083660D01*
X0174550Y0083603D01*
X0174350Y0083551D01*
X0174148Y0083503D01*
X0173946Y0083461D01*
X0173742Y0083423D01*
X0173538Y0083391D01*
X0173332Y0083363D01*
X0173127Y0083340D01*
X0172920Y0083323D01*
X0172714Y0083310D01*
X0172507Y0083303D01*
X0172300Y0083300D01*
X0170095Y0087214D02*
X0172230Y0089350D01*
X0170095Y0091485D01*
X0176500Y0091485D01*
X0176500Y0087214D02*
X0170095Y0087214D01*
X0166000Y0087214D02*
X0159595Y0087214D01*
X0162797Y0087214D02*
X0162797Y0091485D01*
X0161730Y0093660D02*
X0164932Y0093660D01*
X0166000Y0094727D01*
X0166000Y0097930D01*
X0161730Y0097930D01*
X0161730Y0101173D02*
X0161730Y0103308D01*
X0162797Y0104376D01*
X0166000Y0104376D01*
X0166000Y0101173D01*
X0164932Y0100105D01*
X0163865Y0101173D01*
X0163865Y0104376D01*
X0166000Y0106551D02*
X0161730Y0106551D01*
X0161730Y0109754D01*
X0162797Y0110821D01*
X0166000Y0110821D01*
X0170095Y0109754D02*
X0170095Y0107618D01*
X0171162Y0106551D01*
X0173297Y0108686D02*
X0173297Y0109754D01*
X0174365Y0110821D01*
X0175432Y0110821D01*
X0176500Y0109754D01*
X0176500Y0107618D01*
X0175432Y0106551D01*
X0173297Y0109754D02*
X0172230Y0110821D01*
X0171162Y0110821D01*
X0170095Y0109754D01*
X0171162Y0112996D02*
X0170095Y0114064D01*
X0170095Y0116199D01*
X0171162Y0117267D01*
X0172230Y0117267D01*
X0173297Y0116199D01*
X0174365Y0117267D01*
X0175432Y0117267D01*
X0176500Y0116199D01*
X0176500Y0114064D01*
X0175432Y0112996D01*
X0173297Y0115132D02*
X0173297Y0116199D01*
X0166000Y0119442D02*
X0163865Y0121577D01*
X0166000Y0123712D01*
X0159595Y0123712D01*
X0162797Y0125887D02*
X0161730Y0126955D01*
X0161730Y0129090D01*
X0162797Y0130158D01*
X0163865Y0130158D01*
X0163865Y0125887D01*
X0164932Y0125887D02*
X0162797Y0125887D01*
X0164932Y0125887D02*
X0166000Y0126955D01*
X0166000Y0129090D01*
X0166000Y0132333D02*
X0161730Y0132333D01*
X0161730Y0135536D01*
X0162797Y0136603D01*
X0166000Y0136603D01*
X0164932Y0138778D02*
X0166000Y0139846D01*
X0166000Y0143049D01*
X0167068Y0143049D02*
X0161730Y0143049D01*
X0161730Y0139846D01*
X0162797Y0138778D01*
X0164932Y0138778D01*
X0168135Y0140914D02*
X0168135Y0141981D01*
X0167068Y0143049D01*
X0170095Y0143075D02*
X0170095Y0144143D01*
X0176500Y0144143D01*
X0176500Y0143075D02*
X0176500Y0145211D01*
X0176500Y0140914D02*
X0176500Y0138778D01*
X0176500Y0139846D02*
X0172230Y0139846D01*
X0172230Y0138778D01*
X0170095Y0139846D02*
X0169027Y0139846D01*
X0173297Y0136603D02*
X0175432Y0136603D01*
X0176500Y0135536D01*
X0176500Y0132333D01*
X0178635Y0132333D02*
X0172230Y0132333D01*
X0172230Y0135536D01*
X0173297Y0136603D01*
X0173297Y0130158D02*
X0173297Y0125887D01*
X0172230Y0125887D02*
X0170095Y0128023D01*
X0172230Y0130158D01*
X0176500Y0130158D01*
X0176500Y0125887D02*
X0172230Y0125887D01*
X0166000Y0119442D02*
X0159595Y0119442D01*
X0156300Y0122800D02*
X0156300Y0130800D01*
X0156298Y0130860D01*
X0156293Y0130921D01*
X0156284Y0130980D01*
X0156271Y0131039D01*
X0156255Y0131098D01*
X0156235Y0131155D01*
X0156212Y0131210D01*
X0156185Y0131265D01*
X0156156Y0131317D01*
X0156123Y0131368D01*
X0156087Y0131417D01*
X0156049Y0131463D01*
X0156007Y0131507D01*
X0155963Y0131549D01*
X0155917Y0131587D01*
X0155868Y0131623D01*
X0155817Y0131656D01*
X0155765Y0131685D01*
X0155710Y0131712D01*
X0155655Y0131735D01*
X0155598Y0131755D01*
X0155539Y0131771D01*
X0155480Y0131784D01*
X0155421Y0131793D01*
X0155360Y0131798D01*
X0155300Y0131800D01*
X0138300Y0131800D01*
X0138240Y0131798D01*
X0138179Y0131793D01*
X0138120Y0131784D01*
X0138061Y0131771D01*
X0138002Y0131755D01*
X0137945Y0131735D01*
X0137890Y0131712D01*
X0137835Y0131685D01*
X0137783Y0131656D01*
X0137732Y0131623D01*
X0137683Y0131587D01*
X0137637Y0131549D01*
X0137593Y0131507D01*
X0137551Y0131463D01*
X0137513Y0131417D01*
X0137477Y0131368D01*
X0137444Y0131317D01*
X0137415Y0131265D01*
X0137388Y0131210D01*
X0137365Y0131155D01*
X0137345Y0131098D01*
X0137329Y0131039D01*
X0137316Y0130980D01*
X0137307Y0130921D01*
X0137302Y0130860D01*
X0137300Y0130800D01*
X0137300Y0122800D01*
X0137302Y0122740D01*
X0137307Y0122679D01*
X0137316Y0122620D01*
X0137329Y0122561D01*
X0137345Y0122502D01*
X0137365Y0122445D01*
X0137388Y0122390D01*
X0137415Y0122335D01*
X0137444Y0122283D01*
X0137477Y0122232D01*
X0137513Y0122183D01*
X0137551Y0122137D01*
X0137593Y0122093D01*
X0137637Y0122051D01*
X0137683Y0122013D01*
X0137732Y0121977D01*
X0137783Y0121944D01*
X0137835Y0121915D01*
X0137890Y0121888D01*
X0137945Y0121865D01*
X0138002Y0121845D01*
X0138061Y0121829D01*
X0138120Y0121816D01*
X0138179Y0121807D01*
X0138240Y0121802D01*
X0138300Y0121800D01*
X0155300Y0121800D01*
X0155360Y0121802D01*
X0155421Y0121807D01*
X0155480Y0121816D01*
X0155539Y0121829D01*
X0155598Y0121845D01*
X0155655Y0121865D01*
X0155710Y0121888D01*
X0155765Y0121915D01*
X0155817Y0121944D01*
X0155868Y0121977D01*
X0155917Y0122013D01*
X0155963Y0122051D01*
X0156007Y0122093D01*
X0156049Y0122137D01*
X0156087Y0122183D01*
X0156123Y0122232D01*
X0156156Y0122283D01*
X0156185Y0122335D01*
X0156212Y0122390D01*
X0156235Y0122445D01*
X0156255Y0122502D01*
X0156271Y0122561D01*
X0156284Y0122620D01*
X0156293Y0122679D01*
X0156298Y0122740D01*
X0156300Y0122800D01*
X0148300Y0126800D02*
X0147800Y0126800D01*
X0145800Y0126800D02*
X0145300Y0126800D01*
X0155300Y0098800D02*
X0155300Y0095800D01*
X0155300Y0094300D02*
X0151800Y0094300D01*
X0148300Y0094300D01*
X0148300Y0093000D01*
X0155300Y0093000D01*
X0155300Y0094300D01*
X0156800Y0097300D02*
X0153800Y0097300D01*
X0151800Y0096800D02*
X0151800Y0094300D01*
X0151800Y0090800D02*
X0151800Y0088800D01*
X0159595Y0091485D02*
X0166000Y0091485D01*
X0128300Y0041800D02*
X0105300Y0041800D01*
X0105300Y0181800D01*
X0112800Y0181800D01*
X0112802Y0181674D01*
X0112808Y0181549D01*
X0112818Y0181424D01*
X0112832Y0181299D01*
X0112849Y0181174D01*
X0112871Y0181050D01*
X0112896Y0180927D01*
X0112926Y0180805D01*
X0112959Y0180684D01*
X0112996Y0180564D01*
X0113036Y0180445D01*
X0113081Y0180328D01*
X0113129Y0180211D01*
X0113181Y0180097D01*
X0113236Y0179984D01*
X0113295Y0179873D01*
X0113357Y0179764D01*
X0113423Y0179657D01*
X0113492Y0179552D01*
X0113564Y0179449D01*
X0113639Y0179348D01*
X0113718Y0179250D01*
X0113800Y0179155D01*
X0113884Y0179062D01*
X0113972Y0178972D01*
X0114062Y0178884D01*
X0114155Y0178800D01*
X0114250Y0178718D01*
X0114348Y0178639D01*
X0114449Y0178564D01*
X0114552Y0178492D01*
X0114657Y0178423D01*
X0114764Y0178357D01*
X0114873Y0178295D01*
X0114984Y0178236D01*
X0115097Y0178181D01*
X0115211Y0178129D01*
X0115328Y0178081D01*
X0115445Y0178036D01*
X0115564Y0177996D01*
X0115684Y0177959D01*
X0115805Y0177926D01*
X0115927Y0177896D01*
X0116050Y0177871D01*
X0116174Y0177849D01*
X0116299Y0177832D01*
X0116424Y0177818D01*
X0116549Y0177808D01*
X0116674Y0177802D01*
X0116800Y0177800D01*
X0116926Y0177802D01*
X0117051Y0177808D01*
X0117176Y0177818D01*
X0117301Y0177832D01*
X0117426Y0177849D01*
X0117550Y0177871D01*
X0117673Y0177896D01*
X0117795Y0177926D01*
X0117916Y0177959D01*
X0118036Y0177996D01*
X0118155Y0178036D01*
X0118272Y0178081D01*
X0118389Y0178129D01*
X0118503Y0178181D01*
X0118616Y0178236D01*
X0118727Y0178295D01*
X0118836Y0178357D01*
X0118943Y0178423D01*
X0119048Y0178492D01*
X0119151Y0178564D01*
X0119252Y0178639D01*
X0119350Y0178718D01*
X0119445Y0178800D01*
X0119538Y0178884D01*
X0119628Y0178972D01*
X0119716Y0179062D01*
X0119800Y0179155D01*
X0119882Y0179250D01*
X0119961Y0179348D01*
X0120036Y0179449D01*
X0120108Y0179552D01*
X0120177Y0179657D01*
X0120243Y0179764D01*
X0120305Y0179873D01*
X0120364Y0179984D01*
X0120419Y0180097D01*
X0120471Y0180211D01*
X0120519Y0180328D01*
X0120564Y0180445D01*
X0120604Y0180564D01*
X0120641Y0180684D01*
X0120674Y0180805D01*
X0120704Y0180927D01*
X0120729Y0181050D01*
X0120751Y0181174D01*
X0120768Y0181299D01*
X0120782Y0181424D01*
X0120792Y0181549D01*
X0120798Y0181674D01*
X0120800Y0181800D01*
X0128300Y0181800D01*
X0128300Y0041800D01*
X0126800Y0040300D02*
X0126800Y0023300D01*
X0126798Y0023240D01*
X0126793Y0023179D01*
X0126784Y0023120D01*
X0126771Y0023061D01*
X0126755Y0023002D01*
X0126735Y0022945D01*
X0126712Y0022890D01*
X0126685Y0022835D01*
X0126656Y0022783D01*
X0126623Y0022732D01*
X0126587Y0022683D01*
X0126549Y0022637D01*
X0126507Y0022593D01*
X0126463Y0022551D01*
X0126417Y0022513D01*
X0126368Y0022477D01*
X0126317Y0022444D01*
X0126265Y0022415D01*
X0126210Y0022388D01*
X0126155Y0022365D01*
X0126098Y0022345D01*
X0126039Y0022329D01*
X0125980Y0022316D01*
X0125921Y0022307D01*
X0125860Y0022302D01*
X0125800Y0022300D01*
X0117800Y0022300D01*
X0117740Y0022302D01*
X0117679Y0022307D01*
X0117620Y0022316D01*
X0117561Y0022329D01*
X0117502Y0022345D01*
X0117445Y0022365D01*
X0117390Y0022388D01*
X0117335Y0022415D01*
X0117283Y0022444D01*
X0117232Y0022477D01*
X0117183Y0022513D01*
X0117137Y0022551D01*
X0117093Y0022593D01*
X0117051Y0022637D01*
X0117013Y0022683D01*
X0116977Y0022732D01*
X0116944Y0022783D01*
X0116915Y0022835D01*
X0116888Y0022890D01*
X0116865Y0022945D01*
X0116845Y0023002D01*
X0116829Y0023061D01*
X0116816Y0023120D01*
X0116807Y0023179D01*
X0116802Y0023240D01*
X0116800Y0023300D01*
X0116800Y0040300D01*
X0116802Y0040360D01*
X0116807Y0040421D01*
X0116816Y0040480D01*
X0116829Y0040539D01*
X0116845Y0040598D01*
X0116865Y0040655D01*
X0116888Y0040710D01*
X0116915Y0040765D01*
X0116944Y0040817D01*
X0116977Y0040868D01*
X0117013Y0040917D01*
X0117051Y0040963D01*
X0117093Y0041007D01*
X0117137Y0041049D01*
X0117183Y0041087D01*
X0117232Y0041123D01*
X0117283Y0041156D01*
X0117335Y0041185D01*
X0117390Y0041212D01*
X0117445Y0041235D01*
X0117502Y0041255D01*
X0117561Y0041271D01*
X0117620Y0041284D01*
X0117679Y0041293D01*
X0117740Y0041298D01*
X0117800Y0041300D01*
X0125800Y0041300D01*
X0125860Y0041298D01*
X0125921Y0041293D01*
X0125980Y0041284D01*
X0126039Y0041271D01*
X0126098Y0041255D01*
X0126155Y0041235D01*
X0126210Y0041212D01*
X0126265Y0041185D01*
X0126317Y0041156D01*
X0126368Y0041123D01*
X0126417Y0041087D01*
X0126463Y0041049D01*
X0126507Y0041007D01*
X0126549Y0040963D01*
X0126587Y0040917D01*
X0126623Y0040868D01*
X0126656Y0040817D01*
X0126685Y0040765D01*
X0126712Y0040710D01*
X0126735Y0040655D01*
X0126755Y0040598D01*
X0126771Y0040539D01*
X0126784Y0040480D01*
X0126793Y0040421D01*
X0126798Y0040360D01*
X0126800Y0040300D01*
X0121800Y0033300D02*
X0121800Y0032800D01*
X0121800Y0030800D02*
X0121800Y0030300D01*
X0091800Y0043300D02*
X0091800Y0060300D01*
X0091798Y0060360D01*
X0091793Y0060421D01*
X0091784Y0060480D01*
X0091771Y0060539D01*
X0091755Y0060598D01*
X0091735Y0060655D01*
X0091712Y0060710D01*
X0091685Y0060765D01*
X0091656Y0060817D01*
X0091623Y0060868D01*
X0091587Y0060917D01*
X0091549Y0060963D01*
X0091507Y0061007D01*
X0091463Y0061049D01*
X0091417Y0061087D01*
X0091368Y0061123D01*
X0091317Y0061156D01*
X0091265Y0061185D01*
X0091210Y0061212D01*
X0091155Y0061235D01*
X0091098Y0061255D01*
X0091039Y0061271D01*
X0090980Y0061284D01*
X0090921Y0061293D01*
X0090860Y0061298D01*
X0090800Y0061300D01*
X0082800Y0061300D01*
X0082740Y0061298D01*
X0082679Y0061293D01*
X0082620Y0061284D01*
X0082561Y0061271D01*
X0082502Y0061255D01*
X0082445Y0061235D01*
X0082390Y0061212D01*
X0082335Y0061185D01*
X0082283Y0061156D01*
X0082232Y0061123D01*
X0082183Y0061087D01*
X0082137Y0061049D01*
X0082093Y0061007D01*
X0082051Y0060963D01*
X0082013Y0060917D01*
X0081977Y0060868D01*
X0081944Y0060817D01*
X0081915Y0060765D01*
X0081888Y0060710D01*
X0081865Y0060655D01*
X0081845Y0060598D01*
X0081829Y0060539D01*
X0081816Y0060480D01*
X0081807Y0060421D01*
X0081802Y0060360D01*
X0081800Y0060300D01*
X0081800Y0043300D01*
X0081802Y0043240D01*
X0081807Y0043179D01*
X0081816Y0043120D01*
X0081829Y0043061D01*
X0081845Y0043002D01*
X0081865Y0042945D01*
X0081888Y0042890D01*
X0081915Y0042835D01*
X0081944Y0042783D01*
X0081977Y0042732D01*
X0082013Y0042683D01*
X0082051Y0042637D01*
X0082093Y0042593D01*
X0082137Y0042551D01*
X0082183Y0042513D01*
X0082232Y0042477D01*
X0082283Y0042444D01*
X0082335Y0042415D01*
X0082390Y0042388D01*
X0082445Y0042365D01*
X0082502Y0042345D01*
X0082561Y0042329D01*
X0082620Y0042316D01*
X0082679Y0042307D01*
X0082740Y0042302D01*
X0082800Y0042300D01*
X0090800Y0042300D01*
X0090860Y0042302D01*
X0090921Y0042307D01*
X0090980Y0042316D01*
X0091039Y0042329D01*
X0091098Y0042345D01*
X0091155Y0042365D01*
X0091210Y0042388D01*
X0091265Y0042415D01*
X0091317Y0042444D01*
X0091368Y0042477D01*
X0091417Y0042513D01*
X0091463Y0042551D01*
X0091507Y0042593D01*
X0091549Y0042637D01*
X0091587Y0042683D01*
X0091623Y0042732D01*
X0091656Y0042783D01*
X0091685Y0042835D01*
X0091712Y0042890D01*
X0091735Y0042945D01*
X0091755Y0043002D01*
X0091771Y0043061D01*
X0091784Y0043120D01*
X0091793Y0043179D01*
X0091798Y0043240D01*
X0091800Y0043300D01*
X0086800Y0050300D02*
X0086800Y0050800D01*
X0086800Y0052800D02*
X0086800Y0053300D01*
X0065300Y0094300D02*
X0058300Y0094300D01*
X0058240Y0094302D01*
X0058179Y0094307D01*
X0058120Y0094316D01*
X0058061Y0094329D01*
X0058002Y0094345D01*
X0057945Y0094365D01*
X0057890Y0094388D01*
X0057835Y0094415D01*
X0057783Y0094444D01*
X0057732Y0094477D01*
X0057683Y0094513D01*
X0057637Y0094551D01*
X0057593Y0094593D01*
X0057551Y0094637D01*
X0057513Y0094683D01*
X0057477Y0094732D01*
X0057444Y0094783D01*
X0057415Y0094835D01*
X0057388Y0094890D01*
X0057365Y0094945D01*
X0057345Y0095002D01*
X0057329Y0095061D01*
X0057316Y0095120D01*
X0057307Y0095179D01*
X0057302Y0095240D01*
X0057300Y0095300D01*
X0057300Y0096800D01*
X0057800Y0097300D01*
X0057800Y0116300D01*
X0057300Y0116800D01*
X0057300Y0118300D01*
X0057302Y0118360D01*
X0057307Y0118421D01*
X0057316Y0118480D01*
X0057329Y0118539D01*
X0057345Y0118598D01*
X0057365Y0118655D01*
X0057388Y0118710D01*
X0057415Y0118765D01*
X0057444Y0118817D01*
X0057477Y0118868D01*
X0057513Y0118917D01*
X0057551Y0118963D01*
X0057593Y0119007D01*
X0057637Y0119049D01*
X0057683Y0119087D01*
X0057732Y0119123D01*
X0057783Y0119156D01*
X0057835Y0119185D01*
X0057890Y0119212D01*
X0057945Y0119235D01*
X0058002Y0119255D01*
X0058061Y0119271D01*
X0058120Y0119284D01*
X0058179Y0119293D01*
X0058240Y0119298D01*
X0058300Y0119300D01*
X0065300Y0119300D01*
X0065360Y0119298D01*
X0065421Y0119293D01*
X0065480Y0119284D01*
X0065539Y0119271D01*
X0065598Y0119255D01*
X0065655Y0119235D01*
X0065710Y0119212D01*
X0065765Y0119185D01*
X0065817Y0119156D01*
X0065868Y0119123D01*
X0065917Y0119087D01*
X0065963Y0119049D01*
X0066007Y0119007D01*
X0066049Y0118963D01*
X0066087Y0118917D01*
X0066123Y0118868D01*
X0066156Y0118817D01*
X0066185Y0118765D01*
X0066212Y0118710D01*
X0066235Y0118655D01*
X0066255Y0118598D01*
X0066271Y0118539D01*
X0066284Y0118480D01*
X0066293Y0118421D01*
X0066298Y0118360D01*
X0066300Y0118300D01*
X0066300Y0116800D01*
X0065800Y0116300D01*
X0065800Y0097300D01*
X0066300Y0096800D01*
X0066300Y0095300D01*
X0066298Y0095240D01*
X0066293Y0095179D01*
X0066284Y0095120D01*
X0066271Y0095061D01*
X0066255Y0095002D01*
X0066235Y0094945D01*
X0066212Y0094890D01*
X0066185Y0094835D01*
X0066156Y0094783D01*
X0066123Y0094732D01*
X0066087Y0094683D01*
X0066049Y0094637D01*
X0066007Y0094593D01*
X0065963Y0094551D01*
X0065917Y0094513D01*
X0065868Y0094477D01*
X0065817Y0094444D01*
X0065765Y0094415D01*
X0065710Y0094388D01*
X0065655Y0094365D01*
X0065598Y0094345D01*
X0065539Y0094329D01*
X0065480Y0094316D01*
X0065421Y0094307D01*
X0065360Y0094302D01*
X0065300Y0094300D01*
X0042800Y0086800D02*
X0042798Y0086646D01*
X0042792Y0086492D01*
X0042782Y0086338D01*
X0042768Y0086184D01*
X0042751Y0086031D01*
X0042729Y0085879D01*
X0042703Y0085727D01*
X0042674Y0085575D01*
X0042640Y0085425D01*
X0042603Y0085275D01*
X0042562Y0085127D01*
X0042517Y0084979D01*
X0042468Y0084833D01*
X0042416Y0084688D01*
X0042360Y0084545D01*
X0042300Y0084402D01*
X0042237Y0084262D01*
X0042170Y0084123D01*
X0042099Y0083986D01*
X0042025Y0083851D01*
X0041948Y0083718D01*
X0041867Y0083586D01*
X0041783Y0083457D01*
X0041695Y0083330D01*
X0041604Y0083206D01*
X0041511Y0083084D01*
X0041413Y0082964D01*
X0041313Y0082847D01*
X0041210Y0082732D01*
X0041104Y0082620D01*
X0040996Y0082511D01*
X0040884Y0082405D01*
X0040770Y0082301D01*
X0040653Y0082201D01*
X0040534Y0082103D01*
X0040412Y0082009D01*
X0040287Y0081918D01*
X0030800Y0086800D02*
X0030802Y0086952D01*
X0030808Y0087103D01*
X0030817Y0087254D01*
X0030831Y0087406D01*
X0030848Y0087556D01*
X0030869Y0087706D01*
X0030894Y0087856D01*
X0030922Y0088005D01*
X0030955Y0088153D01*
X0030991Y0088300D01*
X0031030Y0088447D01*
X0031074Y0088592D01*
X0031121Y0088736D01*
X0031172Y0088879D01*
X0031226Y0089020D01*
X0031284Y0089161D01*
X0031345Y0089299D01*
X0031410Y0089436D01*
X0031479Y0089572D01*
X0031550Y0089705D01*
X0031625Y0089837D01*
X0031704Y0089967D01*
X0031785Y0090094D01*
X0031870Y0090220D01*
X0031958Y0090344D01*
X0032049Y0090465D01*
X0032143Y0090584D01*
X0032241Y0090700D01*
X0032341Y0090814D01*
X0032443Y0090926D01*
X0032549Y0091034D01*
X0032657Y0091140D01*
X0032768Y0091244D01*
X0032882Y0091344D01*
X0032998Y0091442D01*
X0033117Y0091536D01*
X0030800Y0086800D02*
X0030802Y0086648D01*
X0030808Y0086497D01*
X0030817Y0086346D01*
X0030831Y0086194D01*
X0030848Y0086044D01*
X0030869Y0085894D01*
X0030894Y0085744D01*
X0030922Y0085595D01*
X0030955Y0085447D01*
X0030991Y0085300D01*
X0031030Y0085153D01*
X0031074Y0085008D01*
X0031121Y0084864D01*
X0031172Y0084721D01*
X0031226Y0084580D01*
X0031284Y0084439D01*
X0031345Y0084301D01*
X0031410Y0084164D01*
X0031479Y0084028D01*
X0031550Y0083895D01*
X0031625Y0083763D01*
X0031704Y0083633D01*
X0031785Y0083506D01*
X0031870Y0083380D01*
X0031958Y0083256D01*
X0032049Y0083135D01*
X0032143Y0083016D01*
X0032241Y0082900D01*
X0032341Y0082786D01*
X0032443Y0082674D01*
X0032549Y0082566D01*
X0032657Y0082460D01*
X0032768Y0082356D01*
X0032882Y0082256D01*
X0032998Y0082158D01*
X0033117Y0082064D01*
X0042800Y0086800D02*
X0042798Y0086950D01*
X0042792Y0087101D01*
X0042783Y0087251D01*
X0042770Y0087400D01*
X0042753Y0087550D01*
X0042732Y0087699D01*
X0042708Y0087847D01*
X0042680Y0087995D01*
X0042648Y0088142D01*
X0042613Y0088288D01*
X0042573Y0088433D01*
X0042531Y0088577D01*
X0042484Y0088720D01*
X0042434Y0088862D01*
X0042381Y0089003D01*
X0042324Y0089142D01*
X0042264Y0089280D01*
X0042200Y0089416D01*
X0042133Y0089550D01*
X0042062Y0089683D01*
X0041988Y0089814D01*
X0041911Y0089943D01*
X0041830Y0090070D01*
X0041747Y0090195D01*
X0041660Y0090318D01*
X0041571Y0090439D01*
X0041478Y0090557D01*
X0041382Y0090673D01*
X0041284Y0090787D01*
X0041183Y0090898D01*
X0041078Y0091007D01*
X0040972Y0091112D01*
X0040862Y0091216D01*
X0040750Y0091316D01*
X0040636Y0091414D01*
X0040519Y0091508D01*
X0040400Y0091600D01*
X0026300Y0091800D02*
X0026300Y0090300D01*
X0026298Y0090240D01*
X0026293Y0090179D01*
X0026284Y0090120D01*
X0026271Y0090061D01*
X0026255Y0090002D01*
X0026235Y0089945D01*
X0026212Y0089890D01*
X0026185Y0089835D01*
X0026156Y0089783D01*
X0026123Y0089732D01*
X0026087Y0089683D01*
X0026049Y0089637D01*
X0026007Y0089593D01*
X0025963Y0089551D01*
X0025917Y0089513D01*
X0025868Y0089477D01*
X0025817Y0089444D01*
X0025765Y0089415D01*
X0025710Y0089388D01*
X0025655Y0089365D01*
X0025598Y0089345D01*
X0025539Y0089329D01*
X0025480Y0089316D01*
X0025421Y0089307D01*
X0025360Y0089302D01*
X0025300Y0089300D01*
X0018300Y0089300D01*
X0018240Y0089302D01*
X0018179Y0089307D01*
X0018120Y0089316D01*
X0018061Y0089329D01*
X0018002Y0089345D01*
X0017945Y0089365D01*
X0017890Y0089388D01*
X0017835Y0089415D01*
X0017783Y0089444D01*
X0017732Y0089477D01*
X0017683Y0089513D01*
X0017637Y0089551D01*
X0017593Y0089593D01*
X0017551Y0089637D01*
X0017513Y0089683D01*
X0017477Y0089732D01*
X0017444Y0089783D01*
X0017415Y0089835D01*
X0017388Y0089890D01*
X0017365Y0089945D01*
X0017345Y0090002D01*
X0017329Y0090061D01*
X0017316Y0090120D01*
X0017307Y0090179D01*
X0017302Y0090240D01*
X0017300Y0090300D01*
X0017300Y0091800D01*
X0017800Y0092300D01*
X0017800Y0111300D01*
X0017300Y0111800D01*
X0017300Y0113300D01*
X0017302Y0113360D01*
X0017307Y0113421D01*
X0017316Y0113480D01*
X0017329Y0113539D01*
X0017345Y0113598D01*
X0017365Y0113655D01*
X0017388Y0113710D01*
X0017415Y0113765D01*
X0017444Y0113817D01*
X0017477Y0113868D01*
X0017513Y0113917D01*
X0017551Y0113963D01*
X0017593Y0114007D01*
X0017637Y0114049D01*
X0017683Y0114087D01*
X0017732Y0114123D01*
X0017783Y0114156D01*
X0017835Y0114185D01*
X0017890Y0114212D01*
X0017945Y0114235D01*
X0018002Y0114255D01*
X0018061Y0114271D01*
X0018120Y0114284D01*
X0018179Y0114293D01*
X0018240Y0114298D01*
X0018300Y0114300D01*
X0025300Y0114300D01*
X0025360Y0114298D01*
X0025421Y0114293D01*
X0025480Y0114284D01*
X0025539Y0114271D01*
X0025598Y0114255D01*
X0025655Y0114235D01*
X0025710Y0114212D01*
X0025765Y0114185D01*
X0025817Y0114156D01*
X0025868Y0114123D01*
X0025917Y0114087D01*
X0025963Y0114049D01*
X0026007Y0114007D01*
X0026049Y0113963D01*
X0026087Y0113917D01*
X0026123Y0113868D01*
X0026156Y0113817D01*
X0026185Y0113765D01*
X0026212Y0113710D01*
X0026235Y0113655D01*
X0026255Y0113598D01*
X0026271Y0113539D01*
X0026284Y0113480D01*
X0026293Y0113421D01*
X0026298Y0113360D01*
X0026300Y0113300D01*
X0026300Y0111800D01*
X0025800Y0111300D01*
X0025800Y0092300D01*
X0026300Y0091800D01*
X0058300Y0144300D02*
X0065300Y0144300D01*
X0065360Y0144302D01*
X0065421Y0144307D01*
X0065480Y0144316D01*
X0065539Y0144329D01*
X0065598Y0144345D01*
X0065655Y0144365D01*
X0065710Y0144388D01*
X0065765Y0144415D01*
X0065817Y0144444D01*
X0065868Y0144477D01*
X0065917Y0144513D01*
X0065963Y0144551D01*
X0066007Y0144593D01*
X0066049Y0144637D01*
X0066087Y0144683D01*
X0066123Y0144732D01*
X0066156Y0144783D01*
X0066185Y0144835D01*
X0066212Y0144890D01*
X0066235Y0144945D01*
X0066255Y0145002D01*
X0066271Y0145061D01*
X0066284Y0145120D01*
X0066293Y0145179D01*
X0066298Y0145240D01*
X0066300Y0145300D01*
X0066300Y0146800D01*
X0065800Y0147300D01*
X0065800Y0166300D01*
X0066300Y0166800D01*
X0066300Y0168300D01*
X0066298Y0168360D01*
X0066293Y0168421D01*
X0066284Y0168480D01*
X0066271Y0168539D01*
X0066255Y0168598D01*
X0066235Y0168655D01*
X0066212Y0168710D01*
X0066185Y0168765D01*
X0066156Y0168817D01*
X0066123Y0168868D01*
X0066087Y0168917D01*
X0066049Y0168963D01*
X0066007Y0169007D01*
X0065963Y0169049D01*
X0065917Y0169087D01*
X0065868Y0169123D01*
X0065817Y0169156D01*
X0065765Y0169185D01*
X0065710Y0169212D01*
X0065655Y0169235D01*
X0065598Y0169255D01*
X0065539Y0169271D01*
X0065480Y0169284D01*
X0065421Y0169293D01*
X0065360Y0169298D01*
X0065300Y0169300D01*
X0058300Y0169300D01*
X0058240Y0169298D01*
X0058179Y0169293D01*
X0058120Y0169284D01*
X0058061Y0169271D01*
X0058002Y0169255D01*
X0057945Y0169235D01*
X0057890Y0169212D01*
X0057835Y0169185D01*
X0057783Y0169156D01*
X0057732Y0169123D01*
X0057683Y0169087D01*
X0057637Y0169049D01*
X0057593Y0169007D01*
X0057551Y0168963D01*
X0057513Y0168917D01*
X0057477Y0168868D01*
X0057444Y0168817D01*
X0057415Y0168765D01*
X0057388Y0168710D01*
X0057365Y0168655D01*
X0057345Y0168598D01*
X0057329Y0168539D01*
X0057316Y0168480D01*
X0057307Y0168421D01*
X0057302Y0168360D01*
X0057300Y0168300D01*
X0057300Y0166800D01*
X0057800Y0166300D01*
X0057800Y0147300D01*
X0057300Y0146800D01*
X0057300Y0145300D01*
X0057302Y0145240D01*
X0057307Y0145179D01*
X0057316Y0145120D01*
X0057329Y0145061D01*
X0057345Y0145002D01*
X0057365Y0144945D01*
X0057388Y0144890D01*
X0057415Y0144835D01*
X0057444Y0144783D01*
X0057477Y0144732D01*
X0057513Y0144683D01*
X0057551Y0144637D01*
X0057593Y0144593D01*
X0057637Y0144551D01*
X0057683Y0144513D01*
X0057732Y0144477D01*
X0057783Y0144444D01*
X0057835Y0144415D01*
X0057890Y0144388D01*
X0057945Y0144365D01*
X0058002Y0144345D01*
X0058061Y0144329D01*
X0058120Y0144316D01*
X0058179Y0144307D01*
X0058240Y0144302D01*
X0058300Y0144300D01*
X0109300Y0188300D02*
X0109300Y0195300D01*
X0109302Y0195360D01*
X0109307Y0195421D01*
X0109316Y0195480D01*
X0109329Y0195539D01*
X0109345Y0195598D01*
X0109365Y0195655D01*
X0109388Y0195710D01*
X0109415Y0195765D01*
X0109444Y0195817D01*
X0109477Y0195868D01*
X0109513Y0195917D01*
X0109551Y0195963D01*
X0109593Y0196007D01*
X0109637Y0196049D01*
X0109683Y0196087D01*
X0109732Y0196123D01*
X0109783Y0196156D01*
X0109835Y0196185D01*
X0109890Y0196212D01*
X0109945Y0196235D01*
X0110002Y0196255D01*
X0110061Y0196271D01*
X0110120Y0196284D01*
X0110179Y0196293D01*
X0110240Y0196298D01*
X0110300Y0196300D01*
X0111800Y0196300D01*
X0112300Y0195800D01*
X0131300Y0195800D01*
X0131800Y0196300D01*
X0133300Y0196300D01*
X0133360Y0196298D01*
X0133421Y0196293D01*
X0133480Y0196284D01*
X0133539Y0196271D01*
X0133598Y0196255D01*
X0133655Y0196235D01*
X0133710Y0196212D01*
X0133765Y0196185D01*
X0133817Y0196156D01*
X0133868Y0196123D01*
X0133917Y0196087D01*
X0133963Y0196049D01*
X0134007Y0196007D01*
X0134049Y0195963D01*
X0134087Y0195917D01*
X0134123Y0195868D01*
X0134156Y0195817D01*
X0134185Y0195765D01*
X0134212Y0195710D01*
X0134235Y0195655D01*
X0134255Y0195598D01*
X0134271Y0195539D01*
X0134284Y0195480D01*
X0134293Y0195421D01*
X0134298Y0195360D01*
X0134300Y0195300D01*
X0134300Y0188300D01*
X0134298Y0188240D01*
X0134293Y0188179D01*
X0134284Y0188120D01*
X0134271Y0188061D01*
X0134255Y0188002D01*
X0134235Y0187945D01*
X0134212Y0187890D01*
X0134185Y0187835D01*
X0134156Y0187783D01*
X0134123Y0187732D01*
X0134087Y0187683D01*
X0134049Y0187637D01*
X0134007Y0187593D01*
X0133963Y0187551D01*
X0133917Y0187513D01*
X0133868Y0187477D01*
X0133817Y0187444D01*
X0133765Y0187415D01*
X0133710Y0187388D01*
X0133655Y0187365D01*
X0133598Y0187345D01*
X0133539Y0187329D01*
X0133480Y0187316D01*
X0133421Y0187307D01*
X0133360Y0187302D01*
X0133300Y0187300D01*
X0131800Y0187300D01*
X0131300Y0187800D01*
X0112300Y0187800D01*
X0111800Y0187300D01*
X0110300Y0187300D01*
X0110240Y0187302D01*
X0110179Y0187307D01*
X0110120Y0187316D01*
X0110061Y0187329D01*
X0110002Y0187345D01*
X0109945Y0187365D01*
X0109890Y0187388D01*
X0109835Y0187415D01*
X0109783Y0187444D01*
X0109732Y0187477D01*
X0109683Y0187513D01*
X0109637Y0187551D01*
X0109593Y0187593D01*
X0109551Y0187637D01*
X0109513Y0187683D01*
X0109477Y0187732D01*
X0109444Y0187783D01*
X0109415Y0187835D01*
X0109388Y0187890D01*
X0109365Y0187945D01*
X0109345Y0188002D01*
X0109329Y0188061D01*
X0109316Y0188120D01*
X0109307Y0188179D01*
X0109302Y0188240D01*
X0109300Y0188300D01*
X0137300Y0180800D02*
X0137300Y0172800D01*
X0137302Y0172740D01*
X0137307Y0172679D01*
X0137316Y0172620D01*
X0137329Y0172561D01*
X0137345Y0172502D01*
X0137365Y0172445D01*
X0137388Y0172390D01*
X0137415Y0172335D01*
X0137444Y0172283D01*
X0137477Y0172232D01*
X0137513Y0172183D01*
X0137551Y0172137D01*
X0137593Y0172093D01*
X0137637Y0172051D01*
X0137683Y0172013D01*
X0137732Y0171977D01*
X0137783Y0171944D01*
X0137835Y0171915D01*
X0137890Y0171888D01*
X0137945Y0171865D01*
X0138002Y0171845D01*
X0138061Y0171829D01*
X0138120Y0171816D01*
X0138179Y0171807D01*
X0138240Y0171802D01*
X0138300Y0171800D01*
X0155300Y0171800D01*
X0155360Y0171802D01*
X0155421Y0171807D01*
X0155480Y0171816D01*
X0155539Y0171829D01*
X0155598Y0171845D01*
X0155655Y0171865D01*
X0155710Y0171888D01*
X0155765Y0171915D01*
X0155817Y0171944D01*
X0155868Y0171977D01*
X0155917Y0172013D01*
X0155963Y0172051D01*
X0156007Y0172093D01*
X0156049Y0172137D01*
X0156087Y0172183D01*
X0156123Y0172232D01*
X0156156Y0172283D01*
X0156185Y0172335D01*
X0156212Y0172390D01*
X0156235Y0172445D01*
X0156255Y0172502D01*
X0156271Y0172561D01*
X0156284Y0172620D01*
X0156293Y0172679D01*
X0156298Y0172740D01*
X0156300Y0172800D01*
X0156300Y0180800D01*
X0156298Y0180860D01*
X0156293Y0180921D01*
X0156284Y0180980D01*
X0156271Y0181039D01*
X0156255Y0181098D01*
X0156235Y0181155D01*
X0156212Y0181210D01*
X0156185Y0181265D01*
X0156156Y0181317D01*
X0156123Y0181368D01*
X0156087Y0181417D01*
X0156049Y0181463D01*
X0156007Y0181507D01*
X0155963Y0181549D01*
X0155917Y0181587D01*
X0155868Y0181623D01*
X0155817Y0181656D01*
X0155765Y0181685D01*
X0155710Y0181712D01*
X0155655Y0181735D01*
X0155598Y0181755D01*
X0155539Y0181771D01*
X0155480Y0181784D01*
X0155421Y0181793D01*
X0155360Y0181798D01*
X0155300Y0181800D01*
X0138300Y0181800D01*
X0138240Y0181798D01*
X0138179Y0181793D01*
X0138120Y0181784D01*
X0138061Y0181771D01*
X0138002Y0181755D01*
X0137945Y0181735D01*
X0137890Y0181712D01*
X0137835Y0181685D01*
X0137783Y0181656D01*
X0137732Y0181623D01*
X0137683Y0181587D01*
X0137637Y0181549D01*
X0137593Y0181507D01*
X0137551Y0181463D01*
X0137513Y0181417D01*
X0137477Y0181368D01*
X0137444Y0181317D01*
X0137415Y0181265D01*
X0137388Y0181210D01*
X0137365Y0181155D01*
X0137345Y0181098D01*
X0137329Y0181039D01*
X0137316Y0180980D01*
X0137307Y0180921D01*
X0137302Y0180860D01*
X0137300Y0180800D01*
X0145300Y0176800D02*
X0145800Y0176800D01*
X0147800Y0176800D02*
X0148300Y0176800D01*
X0156536Y0195483D02*
X0156442Y0195602D01*
X0156344Y0195718D01*
X0156244Y0195832D01*
X0156140Y0195943D01*
X0156034Y0196051D01*
X0155926Y0196157D01*
X0155814Y0196259D01*
X0155700Y0196359D01*
X0155584Y0196457D01*
X0155465Y0196551D01*
X0155344Y0196642D01*
X0155220Y0196730D01*
X0155094Y0196815D01*
X0154967Y0196896D01*
X0154837Y0196975D01*
X0154705Y0197050D01*
X0154572Y0197121D01*
X0154436Y0197190D01*
X0154299Y0197255D01*
X0154161Y0197316D01*
X0154020Y0197374D01*
X0153879Y0197428D01*
X0153736Y0197479D01*
X0153592Y0197526D01*
X0153447Y0197570D01*
X0153300Y0197609D01*
X0153153Y0197645D01*
X0153005Y0197678D01*
X0152856Y0197706D01*
X0152706Y0197731D01*
X0152556Y0197752D01*
X0152406Y0197769D01*
X0152254Y0197783D01*
X0152103Y0197792D01*
X0151952Y0197798D01*
X0151800Y0197800D01*
X0156600Y0188200D02*
X0156508Y0188081D01*
X0156414Y0187964D01*
X0156316Y0187850D01*
X0156216Y0187738D01*
X0156112Y0187628D01*
X0156007Y0187522D01*
X0155898Y0187417D01*
X0155787Y0187316D01*
X0155673Y0187218D01*
X0155557Y0187122D01*
X0155439Y0187029D01*
X0155318Y0186940D01*
X0155195Y0186853D01*
X0155070Y0186770D01*
X0154943Y0186689D01*
X0154814Y0186612D01*
X0154683Y0186538D01*
X0154550Y0186467D01*
X0154416Y0186400D01*
X0154280Y0186336D01*
X0154142Y0186276D01*
X0154003Y0186219D01*
X0153862Y0186166D01*
X0153720Y0186116D01*
X0153577Y0186069D01*
X0153433Y0186027D01*
X0153288Y0185987D01*
X0153142Y0185952D01*
X0152995Y0185920D01*
X0152847Y0185892D01*
X0152699Y0185868D01*
X0152550Y0185847D01*
X0152400Y0185830D01*
X0152251Y0185817D01*
X0152101Y0185808D01*
X0151950Y0185802D01*
X0151800Y0185800D01*
X0147064Y0195483D02*
X0147158Y0195602D01*
X0147256Y0195718D01*
X0147356Y0195832D01*
X0147460Y0195943D01*
X0147566Y0196051D01*
X0147674Y0196157D01*
X0147786Y0196259D01*
X0147900Y0196359D01*
X0148016Y0196457D01*
X0148135Y0196551D01*
X0148256Y0196642D01*
X0148380Y0196730D01*
X0148506Y0196815D01*
X0148633Y0196896D01*
X0148763Y0196975D01*
X0148895Y0197050D01*
X0149028Y0197121D01*
X0149164Y0197190D01*
X0149301Y0197255D01*
X0149439Y0197316D01*
X0149580Y0197374D01*
X0149721Y0197428D01*
X0149864Y0197479D01*
X0150008Y0197526D01*
X0150153Y0197570D01*
X0150300Y0197609D01*
X0150447Y0197645D01*
X0150595Y0197678D01*
X0150744Y0197706D01*
X0150894Y0197731D01*
X0151044Y0197752D01*
X0151194Y0197769D01*
X0151346Y0197783D01*
X0151497Y0197792D01*
X0151648Y0197798D01*
X0151800Y0197800D01*
X0146918Y0188313D02*
X0147009Y0188188D01*
X0147103Y0188066D01*
X0147201Y0187947D01*
X0147301Y0187830D01*
X0147405Y0187716D01*
X0147511Y0187604D01*
X0147620Y0187496D01*
X0147732Y0187390D01*
X0147847Y0187287D01*
X0147964Y0187187D01*
X0148084Y0187089D01*
X0148206Y0186996D01*
X0148330Y0186905D01*
X0148457Y0186817D01*
X0148586Y0186733D01*
X0148718Y0186652D01*
X0148851Y0186575D01*
X0148986Y0186501D01*
X0149123Y0186430D01*
X0149262Y0186363D01*
X0149402Y0186300D01*
X0149545Y0186240D01*
X0149688Y0186184D01*
X0149833Y0186132D01*
X0149979Y0186083D01*
X0150127Y0186038D01*
X0150275Y0185997D01*
X0150425Y0185960D01*
X0150575Y0185926D01*
X0150727Y0185897D01*
X0150879Y0185871D01*
X0151031Y0185849D01*
X0151184Y0185832D01*
X0151338Y0185818D01*
X0151492Y0185808D01*
X0151646Y0185802D01*
X0151800Y0185800D01*
X0170095Y0177425D02*
X0171162Y0175289D01*
X0173297Y0173154D01*
X0173297Y0176357D01*
X0174365Y0177425D01*
X0175432Y0177425D01*
X0176500Y0176357D01*
X0176500Y0174222D01*
X0175432Y0173154D01*
X0173297Y0173154D01*
X0176500Y0170979D02*
X0176500Y0166709D01*
X0176500Y0168844D02*
X0170095Y0168844D01*
X0172230Y0166709D01*
X0171162Y0164534D02*
X0170095Y0163466D01*
X0170095Y0161331D01*
X0171162Y0160263D01*
X0175432Y0160263D01*
X0171162Y0164534D01*
X0175432Y0164534D01*
X0176500Y0163466D01*
X0176500Y0161331D01*
X0175432Y0160263D01*
X0176500Y0158088D02*
X0176500Y0153818D01*
X0172230Y0158088D01*
X0171162Y0158088D01*
X0170095Y0157021D01*
X0170095Y0154885D01*
X0171162Y0153818D01*
D12*
X0181996Y0154277D02*
X0181996Y0151208D01*
X0184298Y0151208D01*
X0183531Y0152742D01*
X0183531Y0153510D01*
X0184298Y0154277D01*
X0185833Y0154277D01*
X0186600Y0153510D01*
X0186600Y0151975D01*
X0185833Y0151208D01*
X0186600Y0149673D02*
X0186600Y0146604D01*
X0186600Y0148139D02*
X0181996Y0148139D01*
X0183531Y0146604D01*
X0183531Y0145069D02*
X0182763Y0145069D01*
X0181996Y0144302D01*
X0181996Y0142000D01*
X0186600Y0142000D01*
X0186600Y0144302D01*
X0185833Y0145069D01*
X0185065Y0145069D01*
X0184298Y0144302D01*
X0184298Y0142000D01*
X0184298Y0141777D02*
X0184298Y0138708D01*
X0181996Y0141010D01*
X0186600Y0141010D01*
X0186600Y0137173D02*
X0186600Y0134104D01*
X0186600Y0135639D02*
X0181996Y0135639D01*
X0183531Y0134104D01*
X0183531Y0132569D02*
X0182763Y0132569D01*
X0181996Y0131802D01*
X0181996Y0129500D01*
X0186600Y0129500D01*
X0186600Y0131802D01*
X0185833Y0132569D01*
X0185065Y0132569D01*
X0184298Y0131802D01*
X0184298Y0129500D01*
X0183531Y0129277D02*
X0182763Y0129277D01*
X0181996Y0128510D01*
X0181996Y0126975D01*
X0182763Y0126208D01*
X0184298Y0127742D02*
X0184298Y0128510D01*
X0185065Y0129277D01*
X0185833Y0129277D01*
X0186600Y0128510D01*
X0186600Y0126975D01*
X0185833Y0126208D01*
X0186600Y0124673D02*
X0186600Y0121604D01*
X0186600Y0123139D02*
X0181996Y0123139D01*
X0183531Y0121604D01*
X0183531Y0120069D02*
X0182763Y0120069D01*
X0181996Y0119302D01*
X0181996Y0117000D01*
X0186600Y0117000D01*
X0186600Y0119302D01*
X0185833Y0120069D01*
X0185065Y0120069D01*
X0184298Y0119302D01*
X0184298Y0117000D01*
X0184298Y0119302D02*
X0183531Y0120069D01*
X0184298Y0114673D02*
X0184298Y0112371D01*
X0183531Y0111604D01*
X0182763Y0111604D01*
X0181996Y0112371D01*
X0181996Y0113906D01*
X0182763Y0114673D01*
X0185833Y0114673D01*
X0186600Y0113906D01*
X0186600Y0112371D01*
X0185833Y0111604D01*
X0185833Y0110069D02*
X0185065Y0110069D01*
X0184298Y0109302D01*
X0184298Y0107000D01*
X0181996Y0107000D02*
X0181996Y0109302D01*
X0182763Y0110069D01*
X0183531Y0110069D01*
X0184298Y0109302D01*
X0185833Y0110069D02*
X0186600Y0109302D01*
X0186600Y0107000D01*
X0181996Y0107000D01*
X0182763Y0104673D02*
X0183531Y0104673D01*
X0184298Y0103906D01*
X0184298Y0102371D01*
X0183531Y0101604D01*
X0182763Y0101604D01*
X0181996Y0102371D01*
X0181996Y0103906D01*
X0182763Y0104673D01*
X0184298Y0103906D02*
X0185065Y0104673D01*
X0185833Y0104673D01*
X0186600Y0103906D01*
X0186600Y0102371D01*
X0185833Y0101604D01*
X0185065Y0101604D01*
X0184298Y0102371D01*
X0183531Y0100069D02*
X0182763Y0100069D01*
X0181996Y0099302D01*
X0181996Y0097000D01*
X0186600Y0097000D01*
X0186600Y0099302D01*
X0185833Y0100069D01*
X0185065Y0100069D01*
X0184298Y0099302D01*
X0184298Y0097000D01*
X0184298Y0099302D02*
X0183531Y0100069D01*
X0182763Y0094673D02*
X0185833Y0091604D01*
X0186600Y0091604D01*
X0185833Y0090069D02*
X0186600Y0089302D01*
X0186600Y0087000D01*
X0181996Y0087000D01*
X0181996Y0089302D01*
X0182763Y0090069D01*
X0183531Y0090069D01*
X0184298Y0089302D01*
X0184298Y0087000D01*
X0184298Y0089302D02*
X0185065Y0090069D01*
X0185833Y0090069D01*
X0181996Y0091604D02*
X0181996Y0094673D01*
X0182763Y0094673D01*
X0181996Y0084673D02*
X0185065Y0084673D01*
X0186600Y0083139D01*
X0185065Y0081604D01*
X0181996Y0081604D01*
X0181996Y0080069D02*
X0181996Y0077000D01*
X0184298Y0077000D01*
X0183531Y0078535D01*
X0183531Y0079302D01*
X0184298Y0080069D01*
X0185833Y0080069D01*
X0186600Y0079302D01*
X0186600Y0077767D01*
X0185833Y0077000D01*
X0192763Y0064277D02*
X0191996Y0063510D01*
X0191996Y0061208D01*
X0196600Y0061208D01*
X0196600Y0063510D01*
X0195833Y0064277D01*
X0192763Y0064277D01*
X0191996Y0059673D02*
X0196600Y0059673D01*
X0191996Y0056604D01*
X0196600Y0056604D01*
X0195833Y0055069D02*
X0194298Y0055069D01*
X0194298Y0053535D01*
X0192763Y0055069D02*
X0191996Y0054302D01*
X0191996Y0052767D01*
X0192763Y0052000D01*
X0195833Y0052000D01*
X0196600Y0052767D01*
X0196600Y0054302D01*
X0195833Y0055069D01*
X0171600Y0034673D02*
X0171600Y0032371D01*
X0170833Y0031604D01*
X0168531Y0031604D01*
X0168531Y0034673D02*
X0171600Y0034673D01*
X0171600Y0030069D02*
X0171600Y0027000D01*
X0171600Y0028535D02*
X0166996Y0028535D01*
X0168531Y0027000D01*
X0166600Y0057000D02*
X0166600Y0060069D01*
X0166600Y0058535D02*
X0161996Y0058535D01*
X0163531Y0057000D01*
X0162763Y0061604D02*
X0161996Y0062371D01*
X0161996Y0063906D01*
X0162763Y0064673D01*
X0165833Y0061604D01*
X0166600Y0062371D01*
X0166600Y0063906D01*
X0165833Y0064673D01*
X0162763Y0064673D01*
X0163531Y0066208D02*
X0165833Y0066208D01*
X0166600Y0066975D01*
X0166600Y0069277D01*
X0163531Y0069277D01*
X0162763Y0061604D02*
X0165833Y0061604D01*
X0154100Y0102000D02*
X0154100Y0105069D01*
X0154100Y0103535D02*
X0149496Y0103535D01*
X0151031Y0102000D01*
X0150263Y0106604D02*
X0149496Y0107371D01*
X0149496Y0108906D01*
X0150263Y0109673D01*
X0153333Y0106604D01*
X0154100Y0107371D01*
X0154100Y0108906D01*
X0153333Y0109673D01*
X0150263Y0109673D01*
X0151031Y0111208D02*
X0153333Y0111208D01*
X0154100Y0111975D01*
X0154100Y0114277D01*
X0151031Y0114277D01*
X0150263Y0106604D02*
X0153333Y0106604D01*
X0151600Y0132000D02*
X0151600Y0132767D01*
X0150833Y0132767D01*
X0150833Y0132000D01*
X0151600Y0132000D01*
X0151600Y0134302D02*
X0151600Y0137371D01*
X0151600Y0135837D02*
X0146996Y0135837D01*
X0148531Y0134302D01*
X0148531Y0138906D02*
X0150833Y0138906D01*
X0151600Y0139673D01*
X0151600Y0141975D01*
X0148531Y0141975D01*
X0148333Y0162000D02*
X0148333Y0162767D01*
X0149100Y0162767D01*
X0149100Y0162000D01*
X0148333Y0162000D01*
X0149100Y0164302D02*
X0149100Y0167371D01*
X0149100Y0165837D02*
X0144496Y0165837D01*
X0146031Y0164302D01*
X0146031Y0168906D02*
X0148333Y0168906D01*
X0149100Y0169673D01*
X0149100Y0171975D01*
X0146031Y0171975D01*
X0183531Y0145069D02*
X0184298Y0144302D01*
X0183531Y0132569D02*
X0184298Y0131802D01*
X0183531Y0129277D02*
X0184298Y0128510D01*
X0119100Y0116975D02*
X0119100Y0115441D01*
X0118333Y0114673D01*
X0115263Y0114673D01*
X0114496Y0115441D01*
X0114496Y0116975D01*
X0115263Y0117742D01*
X0118333Y0117742D02*
X0119100Y0116975D01*
X0119100Y0113139D02*
X0119100Y0111604D01*
X0119100Y0112371D02*
X0114496Y0112371D01*
X0114496Y0111604D02*
X0114496Y0113139D01*
X0115263Y0110069D02*
X0116798Y0110069D01*
X0117565Y0109302D01*
X0117565Y0107000D01*
X0119100Y0107000D02*
X0114496Y0107000D01*
X0114496Y0109302D01*
X0115263Y0110069D01*
X0094100Y0111257D02*
X0092565Y0109723D01*
X0092565Y0110490D02*
X0092565Y0108188D01*
X0094100Y0108188D02*
X0089496Y0108188D01*
X0089496Y0110490D01*
X0090263Y0111257D01*
X0091798Y0111257D01*
X0092565Y0110490D01*
X0091798Y0112792D02*
X0091798Y0114327D01*
X0094100Y0112792D02*
X0094100Y0115861D01*
X0093333Y0117396D02*
X0094100Y0118163D01*
X0094100Y0119698D01*
X0093333Y0120465D01*
X0092565Y0120465D01*
X0091798Y0119698D01*
X0091798Y0118163D01*
X0091031Y0117396D01*
X0090263Y0117396D01*
X0089496Y0118163D01*
X0089496Y0119698D01*
X0090263Y0120465D01*
X0089496Y0115861D02*
X0089496Y0112792D01*
X0094100Y0112792D01*
X0071600Y0113708D02*
X0066996Y0113708D01*
X0067763Y0112173D02*
X0066996Y0111406D01*
X0066996Y0109871D01*
X0067763Y0109104D01*
X0070833Y0109104D01*
X0067763Y0112173D01*
X0070833Y0112173D01*
X0071600Y0111406D01*
X0071600Y0109871D01*
X0070833Y0109104D01*
X0071600Y0107569D02*
X0071600Y0104500D01*
X0071600Y0106035D02*
X0066996Y0106035D01*
X0068531Y0104500D01*
X0070065Y0113708D02*
X0066996Y0116777D01*
X0069298Y0114475D02*
X0071600Y0116777D01*
X0084496Y0143188D02*
X0086031Y0144723D01*
X0084496Y0146257D01*
X0089100Y0146257D01*
X0088333Y0147792D02*
X0085263Y0150861D01*
X0088333Y0150861D01*
X0089100Y0150094D01*
X0089100Y0148559D01*
X0088333Y0147792D01*
X0085263Y0147792D01*
X0084496Y0148559D01*
X0084496Y0150094D01*
X0085263Y0150861D01*
X0086798Y0152396D02*
X0085263Y0153931D01*
X0084496Y0155465D01*
X0086798Y0154698D02*
X0086798Y0152396D01*
X0088333Y0152396D01*
X0089100Y0153163D01*
X0089100Y0154698D01*
X0088333Y0155465D01*
X0087565Y0155465D01*
X0086798Y0154698D01*
X0089100Y0143188D02*
X0084496Y0143188D01*
X0066600Y0182000D02*
X0066600Y0185069D01*
X0066600Y0183535D02*
X0061996Y0183535D01*
X0063531Y0182000D01*
X0062763Y0186604D02*
X0061996Y0187371D01*
X0061996Y0188906D01*
X0062763Y0189673D01*
X0065833Y0186604D01*
X0066600Y0187371D01*
X0066600Y0188906D01*
X0065833Y0189673D01*
X0062763Y0189673D01*
X0061996Y0191208D02*
X0066600Y0191208D01*
X0065065Y0191208D02*
X0061996Y0194277D01*
X0064298Y0191975D02*
X0066600Y0194277D01*
X0065833Y0186604D02*
X0062763Y0186604D01*
X0091996Y0192767D02*
X0091996Y0194302D01*
X0092763Y0195069D01*
X0093531Y0195069D01*
X0094298Y0194302D01*
X0095065Y0195069D01*
X0095833Y0195069D01*
X0096600Y0194302D01*
X0096600Y0192767D01*
X0095833Y0192000D01*
X0094298Y0193535D02*
X0094298Y0194302D01*
X0092763Y0196604D02*
X0091996Y0197371D01*
X0091996Y0198906D01*
X0092763Y0199673D01*
X0093531Y0199673D01*
X0094298Y0198906D01*
X0095065Y0199673D01*
X0095833Y0199673D01*
X0096600Y0198906D01*
X0096600Y0197371D01*
X0095833Y0196604D01*
X0094298Y0198139D02*
X0094298Y0198906D01*
X0092763Y0201208D02*
X0091996Y0201975D01*
X0091996Y0203510D01*
X0092763Y0204277D01*
X0095833Y0201208D01*
X0096600Y0201975D01*
X0096600Y0203510D01*
X0095833Y0204277D01*
X0092763Y0204277D01*
X0092763Y0201208D02*
X0095833Y0201208D01*
X0091996Y0192767D02*
X0092763Y0192000D01*
X0031600Y0138510D02*
X0031600Y0136975D01*
X0030833Y0136208D01*
X0027763Y0139277D01*
X0030833Y0139277D01*
X0031600Y0138510D01*
X0030833Y0136208D02*
X0027763Y0136208D01*
X0026996Y0136975D01*
X0026996Y0138510D01*
X0027763Y0139277D01*
X0027763Y0134673D02*
X0028531Y0134673D01*
X0029298Y0133906D01*
X0030065Y0134673D01*
X0030833Y0134673D01*
X0031600Y0133906D01*
X0031600Y0132371D01*
X0030833Y0131604D01*
X0030833Y0130069D02*
X0030065Y0130069D01*
X0029298Y0129302D01*
X0029298Y0128535D01*
X0029298Y0129302D02*
X0028531Y0130069D01*
X0027763Y0130069D01*
X0026996Y0129302D01*
X0026996Y0127767D01*
X0027763Y0127000D01*
X0030833Y0127000D02*
X0031600Y0127767D01*
X0031600Y0129302D01*
X0030833Y0130069D01*
X0029298Y0133139D02*
X0029298Y0133906D01*
X0027763Y0134673D02*
X0026996Y0133906D01*
X0026996Y0132371D01*
X0027763Y0131604D01*
X0016600Y0132569D02*
X0013531Y0132569D01*
X0011996Y0131035D01*
X0013531Y0129500D01*
X0016600Y0129500D01*
X0014298Y0129500D02*
X0014298Y0132569D01*
X0013531Y0134104D02*
X0011996Y0135639D01*
X0016600Y0135639D01*
X0016600Y0137173D02*
X0016600Y0134104D01*
X0016600Y0139500D02*
X0013531Y0139500D01*
X0011996Y0141035D01*
X0013531Y0142569D01*
X0016600Y0142569D01*
X0015833Y0144104D02*
X0012763Y0147173D01*
X0015833Y0147173D01*
X0016600Y0146406D01*
X0016600Y0144871D01*
X0015833Y0144104D01*
X0012763Y0144104D01*
X0011996Y0144871D01*
X0011996Y0146406D01*
X0012763Y0147173D01*
X0014298Y0142569D02*
X0014298Y0139500D01*
X0024496Y0144376D02*
X0024496Y0146678D01*
X0025263Y0147446D01*
X0026031Y0147446D01*
X0026798Y0146678D01*
X0026798Y0144376D01*
X0029100Y0144376D02*
X0024496Y0144376D01*
X0026798Y0146678D02*
X0027565Y0147446D01*
X0028333Y0147446D01*
X0029100Y0146678D01*
X0029100Y0144376D01*
X0028333Y0148980D02*
X0024496Y0148980D01*
X0024496Y0152050D02*
X0028333Y0152050D01*
X0029100Y0151282D01*
X0029100Y0149748D01*
X0028333Y0148980D01*
X0024496Y0153584D02*
X0024496Y0156654D01*
X0024496Y0158188D02*
X0024496Y0161257D01*
X0024496Y0159723D02*
X0029100Y0159723D01*
X0028333Y0162792D02*
X0025263Y0162792D01*
X0024496Y0163559D01*
X0024496Y0165094D01*
X0025263Y0165861D01*
X0028333Y0165861D01*
X0029100Y0165094D01*
X0029100Y0163559D01*
X0028333Y0162792D01*
X0029100Y0167396D02*
X0024496Y0167396D01*
X0029100Y0170465D01*
X0024496Y0170465D01*
X0024496Y0155119D02*
X0029100Y0155119D01*
X0016600Y0127173D02*
X0016600Y0124104D01*
X0013531Y0127173D01*
X0012763Y0127173D01*
X0011996Y0126406D01*
X0011996Y0124871D01*
X0012763Y0124104D01*
X0012763Y0122569D02*
X0011996Y0121802D01*
X0011996Y0119500D01*
X0016600Y0119500D01*
X0016600Y0121802D01*
X0015833Y0122569D01*
X0015065Y0122569D01*
X0014298Y0121802D01*
X0014298Y0119500D01*
X0014298Y0121802D02*
X0013531Y0122569D01*
X0012763Y0122569D01*
X0012763Y0117173D02*
X0013531Y0117173D01*
X0014298Y0116406D01*
X0015065Y0117173D01*
X0015833Y0117173D01*
X0016600Y0116406D01*
X0016600Y0114871D01*
X0015833Y0114104D01*
X0015833Y0112569D02*
X0016600Y0111802D01*
X0016600Y0109500D01*
X0011996Y0109500D01*
X0011996Y0111802D01*
X0012763Y0112569D01*
X0013531Y0112569D01*
X0014298Y0111802D01*
X0014298Y0109500D01*
X0014298Y0111802D02*
X0015065Y0112569D01*
X0015833Y0112569D01*
X0012763Y0114104D02*
X0011996Y0114871D01*
X0011996Y0116406D01*
X0012763Y0117173D01*
X0014298Y0116406D02*
X0014298Y0115639D01*
X0014298Y0107173D02*
X0014298Y0104104D01*
X0011996Y0106406D01*
X0016600Y0106406D01*
X0015833Y0102569D02*
X0016600Y0101802D01*
X0016600Y0099500D01*
X0011996Y0099500D01*
X0011996Y0101802D01*
X0012763Y0102569D01*
X0013531Y0102569D01*
X0014298Y0101802D01*
X0014298Y0099500D01*
X0014298Y0101802D02*
X0015065Y0102569D01*
X0015833Y0102569D01*
X0014298Y0097173D02*
X0014298Y0094104D01*
X0011996Y0096406D01*
X0016600Y0096406D01*
X0016600Y0092569D02*
X0013531Y0092569D01*
X0011996Y0091035D01*
X0013531Y0089500D01*
X0016600Y0089500D01*
X0015065Y0089079D02*
X0016600Y0087544D01*
X0015065Y0086010D01*
X0011996Y0086010D01*
X0012763Y0084475D02*
X0011996Y0083708D01*
X0011996Y0082173D01*
X0012763Y0081406D01*
X0014298Y0082941D02*
X0014298Y0083708D01*
X0015065Y0084475D01*
X0015833Y0084475D01*
X0016600Y0083708D01*
X0016600Y0082173D01*
X0015833Y0081406D01*
X0015833Y0079871D02*
X0016600Y0079871D01*
X0016600Y0079104D01*
X0015833Y0079104D01*
X0015833Y0079871D01*
X0015833Y0077569D02*
X0016600Y0076802D01*
X0016600Y0075267D01*
X0015833Y0074500D01*
X0014298Y0076035D02*
X0014298Y0076802D01*
X0015065Y0077569D01*
X0015833Y0077569D01*
X0014298Y0076802D02*
X0013531Y0077569D01*
X0012763Y0077569D01*
X0011996Y0076802D01*
X0011996Y0075267D01*
X0012763Y0074500D01*
X0013956Y0071604D02*
X0013188Y0070837D01*
X0013188Y0067767D01*
X0013956Y0067000D01*
X0015490Y0067000D01*
X0016257Y0067767D01*
X0016257Y0069302D01*
X0014723Y0069302D01*
X0016257Y0070837D02*
X0015490Y0071604D01*
X0013956Y0071604D01*
X0017792Y0071604D02*
X0017792Y0067000D01*
X0020861Y0067000D02*
X0017792Y0071604D01*
X0020861Y0071604D02*
X0020861Y0067000D01*
X0022396Y0067000D02*
X0024698Y0067000D01*
X0025465Y0067767D01*
X0025465Y0070837D01*
X0024698Y0071604D01*
X0022396Y0071604D01*
X0022396Y0067000D01*
X0014298Y0083708D02*
X0013531Y0084475D01*
X0012763Y0084475D01*
X0011996Y0089079D02*
X0015065Y0089079D01*
X0014298Y0089500D02*
X0014298Y0092569D01*
X0042763Y0064277D02*
X0041996Y0063510D01*
X0041996Y0061208D01*
X0046600Y0061208D01*
X0046600Y0063510D01*
X0045833Y0064277D01*
X0045065Y0064277D01*
X0044298Y0063510D01*
X0044298Y0061208D01*
X0045065Y0059673D02*
X0044298Y0058906D01*
X0044298Y0057371D01*
X0043531Y0056604D01*
X0042763Y0056604D01*
X0041996Y0057371D01*
X0041996Y0058906D01*
X0042763Y0059673D01*
X0045065Y0059673D02*
X0045833Y0059673D01*
X0046600Y0058906D01*
X0046600Y0057371D01*
X0045833Y0056604D01*
X0045833Y0055069D02*
X0041996Y0055069D01*
X0041996Y0052000D02*
X0045833Y0052000D01*
X0046600Y0052767D01*
X0046600Y0054302D01*
X0045833Y0055069D01*
X0044298Y0063510D02*
X0043531Y0064277D01*
X0042763Y0064277D01*
X0069181Y0039774D02*
X0069181Y0039006D01*
X0069948Y0038239D01*
X0071483Y0038239D01*
X0072250Y0037472D01*
X0072250Y0036704D01*
X0071483Y0035937D01*
X0069948Y0035937D01*
X0069181Y0036704D01*
X0069181Y0039774D02*
X0069948Y0040541D01*
X0071483Y0040541D01*
X0072250Y0039774D01*
X0073785Y0039774D02*
X0073785Y0039006D01*
X0074552Y0038239D01*
X0076087Y0038239D01*
X0076854Y0037472D01*
X0076854Y0036704D01*
X0076087Y0035937D01*
X0074552Y0035937D01*
X0073785Y0036704D01*
X0073785Y0039774D02*
X0074552Y0040541D01*
X0076087Y0040541D01*
X0076854Y0039774D01*
X0078389Y0040541D02*
X0078389Y0035937D01*
X0079924Y0037472D01*
X0081458Y0035937D01*
X0081458Y0040541D01*
X0082993Y0040541D02*
X0084528Y0040541D01*
X0083760Y0040541D02*
X0083760Y0035937D01*
X0082993Y0035937D02*
X0084528Y0035937D01*
X0087597Y0035937D02*
X0087597Y0040541D01*
X0089131Y0040541D02*
X0086062Y0040541D01*
X0090666Y0039774D02*
X0090666Y0036704D01*
X0091433Y0035937D01*
X0092968Y0035937D01*
X0093735Y0036704D01*
X0095270Y0035937D02*
X0095270Y0040541D01*
X0093735Y0039774D02*
X0092968Y0040541D01*
X0091433Y0040541D01*
X0090666Y0039774D01*
X0095270Y0038239D02*
X0098339Y0038239D01*
X0098339Y0040541D02*
X0098339Y0035937D01*
X0111996Y0033535D02*
X0113531Y0032000D01*
X0111996Y0033535D02*
X0116600Y0033535D01*
X0116600Y0035069D02*
X0116600Y0032000D01*
X0115833Y0036604D02*
X0113531Y0036604D01*
X0115833Y0036604D02*
X0116600Y0037371D01*
X0116600Y0039673D01*
X0113531Y0039673D01*
X0079100Y0057000D02*
X0079100Y0057767D01*
X0078333Y0057767D01*
X0078333Y0057000D01*
X0079100Y0057000D01*
X0079100Y0059302D02*
X0079100Y0062371D01*
X0079100Y0060837D02*
X0074496Y0060837D01*
X0076031Y0059302D01*
X0076031Y0063906D02*
X0078333Y0063906D01*
X0079100Y0064673D01*
X0079100Y0066975D01*
X0076031Y0066975D01*
D13*
X0083800Y0052800D02*
X0086800Y0052800D01*
X0089800Y0052800D01*
X0089800Y0050800D02*
X0086800Y0050800D01*
X0083800Y0050800D01*
X0118800Y0032800D02*
X0121800Y0032800D01*
X0124800Y0032800D01*
X0124800Y0030800D02*
X0121800Y0030800D01*
X0118800Y0030800D01*
X0153800Y0030800D02*
X0156800Y0030800D01*
X0159800Y0030800D01*
X0159800Y0032800D02*
X0156800Y0032800D01*
X0153800Y0032800D01*
X0147800Y0123800D02*
X0147800Y0126800D01*
X0147800Y0129800D01*
X0145800Y0129800D02*
X0145800Y0126800D01*
X0145800Y0123800D01*
X0145800Y0173800D02*
X0145800Y0176800D01*
X0145800Y0179800D01*
X0147800Y0179800D02*
X0147800Y0176800D01*
X0147800Y0173800D01*
X0151800Y0183800D02*
X0151992Y0183802D01*
X0152184Y0183809D01*
X0152376Y0183821D01*
X0152568Y0183837D01*
X0152759Y0183858D01*
X0152949Y0183883D01*
X0153139Y0183913D01*
X0153328Y0183947D01*
X0153516Y0183986D01*
X0153703Y0184030D01*
X0153889Y0184078D01*
X0154074Y0184130D01*
X0154258Y0184187D01*
X0154440Y0184248D01*
X0154620Y0184314D01*
X0154799Y0184384D01*
X0154977Y0184458D01*
X0155152Y0184536D01*
X0155326Y0184619D01*
X0155497Y0184706D01*
X0155666Y0184796D01*
X0155833Y0184891D01*
X0155998Y0184990D01*
X0156161Y0185093D01*
X0156320Y0185200D01*
X0156478Y0185310D01*
X0156632Y0185424D01*
X0156784Y0185542D01*
X0156933Y0185664D01*
X0157079Y0185789D01*
X0157221Y0185917D01*
X0157361Y0186049D01*
X0157498Y0186184D01*
X0157631Y0186323D01*
X0157761Y0186464D01*
X0157887Y0186609D01*
X0158010Y0186757D01*
X0158129Y0186907D01*
X0158245Y0187061D01*
X0158357Y0187217D01*
X0158465Y0187376D01*
X0158570Y0187537D01*
X0158670Y0187701D01*
X0158766Y0187867D01*
X0158859Y0188035D01*
X0158746Y0195769D02*
X0158647Y0195938D01*
X0158543Y0196104D01*
X0158436Y0196268D01*
X0158325Y0196429D01*
X0158210Y0196587D01*
X0158091Y0196742D01*
X0157968Y0196895D01*
X0157842Y0197044D01*
X0157712Y0197190D01*
X0157578Y0197333D01*
X0157441Y0197473D01*
X0157301Y0197609D01*
X0157157Y0197742D01*
X0157010Y0197871D01*
X0156860Y0197997D01*
X0156707Y0198118D01*
X0156551Y0198237D01*
X0156392Y0198351D01*
X0156231Y0198461D01*
X0156066Y0198567D01*
X0155900Y0198670D01*
X0155730Y0198768D01*
X0155559Y0198862D01*
X0155385Y0198952D01*
X0155209Y0199037D01*
X0155031Y0199119D01*
X0154851Y0199195D01*
X0154669Y0199268D01*
X0154486Y0199336D01*
X0154301Y0199399D01*
X0154114Y0199458D01*
X0153926Y0199512D01*
X0153737Y0199562D01*
X0153547Y0199607D01*
X0153355Y0199647D01*
X0153163Y0199683D01*
X0152970Y0199714D01*
X0152776Y0199740D01*
X0152581Y0199762D01*
X0152386Y0199778D01*
X0152191Y0199790D01*
X0151995Y0199798D01*
X0151800Y0199800D01*
X0151607Y0199798D01*
X0151414Y0199791D01*
X0151222Y0199779D01*
X0151029Y0199763D01*
X0150837Y0199742D01*
X0150646Y0199716D01*
X0150456Y0199686D01*
X0150266Y0199651D01*
X0150077Y0199612D01*
X0149889Y0199568D01*
X0149702Y0199520D01*
X0149516Y0199467D01*
X0149332Y0199410D01*
X0149149Y0199348D01*
X0148968Y0199282D01*
X0148788Y0199211D01*
X0148610Y0199137D01*
X0148434Y0199058D01*
X0148260Y0198974D01*
X0148088Y0198887D01*
X0147918Y0198795D01*
X0147751Y0198699D01*
X0147585Y0198600D01*
X0147422Y0198496D01*
X0147262Y0198389D01*
X0147105Y0198277D01*
X0146950Y0198162D01*
X0146798Y0198043D01*
X0146649Y0197921D01*
X0146502Y0197795D01*
X0146359Y0197665D01*
X0146219Y0197532D01*
X0146083Y0197396D01*
X0145949Y0197256D01*
X0145820Y0197114D01*
X0145693Y0196968D01*
X0145654Y0186678D02*
X0145781Y0186530D01*
X0145911Y0186385D01*
X0146044Y0186244D01*
X0146181Y0186105D01*
X0146321Y0185970D01*
X0146465Y0185839D01*
X0146612Y0185711D01*
X0146761Y0185586D01*
X0146914Y0185465D01*
X0147069Y0185348D01*
X0147228Y0185235D01*
X0147389Y0185126D01*
X0147553Y0185021D01*
X0147719Y0184919D01*
X0147888Y0184822D01*
X0148058Y0184729D01*
X0148232Y0184640D01*
X0148407Y0184555D01*
X0148584Y0184475D01*
X0148763Y0184399D01*
X0148944Y0184327D01*
X0149127Y0184260D01*
X0149311Y0184197D01*
X0149497Y0184139D01*
X0149684Y0184085D01*
X0149872Y0184036D01*
X0150062Y0183991D01*
X0150252Y0183951D01*
X0150444Y0183916D01*
X0150636Y0183885D01*
X0150829Y0183859D01*
X0151023Y0183838D01*
X0151217Y0183821D01*
X0151411Y0183809D01*
X0151605Y0183802D01*
X0151800Y0183800D01*
X0032831Y0093746D02*
X0032662Y0093647D01*
X0032496Y0093543D01*
X0032332Y0093436D01*
X0032171Y0093325D01*
X0032013Y0093210D01*
X0031858Y0093091D01*
X0031705Y0092968D01*
X0031556Y0092842D01*
X0031410Y0092712D01*
X0031267Y0092578D01*
X0031127Y0092441D01*
X0030991Y0092301D01*
X0030858Y0092157D01*
X0030729Y0092010D01*
X0030603Y0091860D01*
X0030482Y0091707D01*
X0030363Y0091551D01*
X0030249Y0091392D01*
X0030139Y0091231D01*
X0030033Y0091066D01*
X0029930Y0090900D01*
X0029832Y0090730D01*
X0029738Y0090559D01*
X0029648Y0090385D01*
X0029563Y0090209D01*
X0029481Y0090031D01*
X0029405Y0089851D01*
X0029332Y0089669D01*
X0029264Y0089486D01*
X0029201Y0089301D01*
X0029142Y0089114D01*
X0029088Y0088926D01*
X0029038Y0088737D01*
X0028993Y0088547D01*
X0028953Y0088355D01*
X0028917Y0088163D01*
X0028886Y0087970D01*
X0028860Y0087776D01*
X0028838Y0087581D01*
X0028822Y0087386D01*
X0028810Y0087191D01*
X0028802Y0086995D01*
X0028800Y0086800D01*
X0040565Y0093859D02*
X0040733Y0093766D01*
X0040899Y0093670D01*
X0041063Y0093570D01*
X0041224Y0093465D01*
X0041383Y0093357D01*
X0041539Y0093245D01*
X0041693Y0093129D01*
X0041843Y0093010D01*
X0041991Y0092887D01*
X0042136Y0092761D01*
X0042277Y0092631D01*
X0042416Y0092498D01*
X0042551Y0092361D01*
X0042683Y0092221D01*
X0042811Y0092079D01*
X0042936Y0091933D01*
X0043058Y0091784D01*
X0043176Y0091632D01*
X0043290Y0091478D01*
X0043400Y0091320D01*
X0043507Y0091161D01*
X0043610Y0090998D01*
X0043709Y0090833D01*
X0043804Y0090666D01*
X0043894Y0090497D01*
X0043981Y0090326D01*
X0044064Y0090152D01*
X0044142Y0089977D01*
X0044216Y0089799D01*
X0044286Y0089620D01*
X0044352Y0089440D01*
X0044413Y0089258D01*
X0044470Y0089074D01*
X0044522Y0088889D01*
X0044570Y0088703D01*
X0044614Y0088516D01*
X0044653Y0088328D01*
X0044687Y0088139D01*
X0044717Y0087949D01*
X0044742Y0087759D01*
X0044763Y0087568D01*
X0044779Y0087376D01*
X0044791Y0087184D01*
X0044798Y0086992D01*
X0044800Y0086800D01*
X0031632Y0080693D02*
X0031486Y0080820D01*
X0031344Y0080949D01*
X0031204Y0081083D01*
X0031068Y0081219D01*
X0030935Y0081359D01*
X0030805Y0081502D01*
X0030679Y0081649D01*
X0030557Y0081798D01*
X0030438Y0081950D01*
X0030323Y0082105D01*
X0030211Y0082262D01*
X0030104Y0082422D01*
X0030000Y0082585D01*
X0029901Y0082751D01*
X0029805Y0082918D01*
X0029713Y0083088D01*
X0029626Y0083260D01*
X0029542Y0083434D01*
X0029463Y0083610D01*
X0029389Y0083788D01*
X0029318Y0083968D01*
X0029252Y0084149D01*
X0029190Y0084332D01*
X0029133Y0084516D01*
X0029080Y0084702D01*
X0029032Y0084889D01*
X0028988Y0085077D01*
X0028949Y0085266D01*
X0028914Y0085456D01*
X0028884Y0085646D01*
X0028858Y0085837D01*
X0028837Y0086029D01*
X0028821Y0086222D01*
X0028809Y0086414D01*
X0028802Y0086607D01*
X0028800Y0086800D01*
X0041922Y0080654D02*
X0042070Y0080781D01*
X0042215Y0080911D01*
X0042356Y0081044D01*
X0042495Y0081181D01*
X0042630Y0081321D01*
X0042761Y0081465D01*
X0042889Y0081612D01*
X0043014Y0081761D01*
X0043135Y0081914D01*
X0043252Y0082069D01*
X0043365Y0082228D01*
X0043474Y0082389D01*
X0043579Y0082553D01*
X0043681Y0082719D01*
X0043778Y0082888D01*
X0043871Y0083058D01*
X0043960Y0083232D01*
X0044045Y0083407D01*
X0044125Y0083584D01*
X0044201Y0083763D01*
X0044273Y0083944D01*
X0044340Y0084127D01*
X0044403Y0084311D01*
X0044461Y0084497D01*
X0044515Y0084684D01*
X0044564Y0084872D01*
X0044609Y0085062D01*
X0044649Y0085252D01*
X0044684Y0085444D01*
X0044715Y0085636D01*
X0044741Y0085829D01*
X0044762Y0086023D01*
X0044779Y0086217D01*
X0044791Y0086411D01*
X0044798Y0086605D01*
X0044800Y0086800D01*
D14*
X0048546Y0086447D02*
X0053050Y0086447D01*
X0053050Y0084946D02*
X0053050Y0087949D01*
X0050047Y0084946D02*
X0048546Y0086447D01*
X0049297Y0083345D02*
X0048546Y0082594D01*
X0048546Y0080342D01*
X0053050Y0080342D01*
X0053050Y0082594D01*
X0052299Y0083345D01*
X0049297Y0083345D01*
X0048546Y0078741D02*
X0048546Y0075738D01*
X0053050Y0075738D01*
X0053050Y0078741D01*
X0050798Y0077239D02*
X0050798Y0075738D01*
X0053050Y0074137D02*
X0053050Y0071134D01*
X0048546Y0071134D01*
X0068546Y0095050D02*
X0068546Y0097302D01*
X0069297Y0098053D01*
X0070798Y0098053D01*
X0071549Y0097302D01*
X0071549Y0095050D01*
X0073050Y0095050D02*
X0068546Y0095050D01*
X0071549Y0096551D02*
X0073050Y0098053D01*
X0073050Y0099654D02*
X0070047Y0102656D01*
X0069297Y0102656D01*
X0068546Y0101906D01*
X0068546Y0100405D01*
X0069297Y0099654D01*
X0073050Y0099654D02*
X0073050Y0102656D01*
X0025050Y0127342D02*
X0020546Y0127342D01*
X0020546Y0129594D01*
X0021297Y0130345D01*
X0022798Y0130345D01*
X0023549Y0129594D01*
X0023549Y0127342D01*
X0023549Y0128843D02*
X0025050Y0130345D01*
X0025050Y0131946D02*
X0025050Y0134949D01*
X0025050Y0133447D02*
X0020546Y0133447D01*
X0022047Y0131946D01*
X0007999Y0148142D02*
X0008750Y0148893D01*
X0008750Y0149643D01*
X0007999Y0150394D01*
X0004246Y0150394D01*
X0004246Y0149643D02*
X0004246Y0151145D01*
X0005747Y0152746D02*
X0004246Y0154247D01*
X0008750Y0154247D01*
X0008750Y0152746D02*
X0008750Y0155749D01*
X0056046Y0182550D02*
X0056046Y0184802D01*
X0056797Y0185553D01*
X0058298Y0185553D01*
X0059049Y0184802D01*
X0059049Y0182550D01*
X0060550Y0182550D02*
X0056046Y0182550D01*
X0059049Y0184051D02*
X0060550Y0185553D01*
X0059799Y0187154D02*
X0060550Y0187905D01*
X0060550Y0189406D01*
X0059799Y0190156D01*
X0059049Y0190156D01*
X0058298Y0189406D01*
X0058298Y0188655D01*
X0058298Y0189406D02*
X0057547Y0190156D01*
X0056797Y0190156D01*
X0056046Y0189406D01*
X0056046Y0187905D01*
X0056797Y0187154D01*
X0091546Y0186198D02*
X0093798Y0183946D01*
X0093798Y0186949D01*
X0096050Y0186198D02*
X0091546Y0186198D01*
X0092297Y0182345D02*
X0091546Y0181594D01*
X0091546Y0179342D01*
X0096050Y0179342D01*
X0094549Y0179342D02*
X0094549Y0181594D01*
X0093798Y0182345D01*
X0092297Y0182345D01*
X0094549Y0180843D02*
X0096050Y0182345D01*
X0138046Y0169155D02*
X0142550Y0169155D01*
X0142550Y0167654D02*
X0142550Y0170656D01*
X0139547Y0167654D02*
X0138046Y0169155D01*
X0138797Y0166053D02*
X0138046Y0165302D01*
X0138046Y0163801D01*
X0138797Y0163050D01*
X0141799Y0163050D01*
X0142550Y0163801D01*
X0142550Y0165302D01*
X0141799Y0166053D01*
X0162046Y0182134D02*
X0166550Y0182134D01*
X0166550Y0185137D01*
X0166550Y0186738D02*
X0166550Y0189741D01*
X0166550Y0191342D02*
X0166550Y0193594D01*
X0165799Y0194345D01*
X0162797Y0194345D01*
X0162046Y0193594D01*
X0162046Y0191342D01*
X0166550Y0191342D01*
X0164298Y0188239D02*
X0164298Y0186738D01*
X0162046Y0186738D02*
X0162046Y0189741D01*
X0162046Y0186738D02*
X0166550Y0186738D01*
X0166550Y0195946D02*
X0163547Y0198949D01*
X0162797Y0198949D01*
X0162046Y0198198D01*
X0162046Y0196697D01*
X0162797Y0195946D01*
X0166550Y0195946D02*
X0166550Y0198949D01*
X0192497Y0153249D02*
X0191746Y0152498D01*
X0191746Y0150997D01*
X0192497Y0150246D01*
X0191746Y0148645D02*
X0191746Y0147143D01*
X0191746Y0147894D02*
X0195499Y0147894D01*
X0196250Y0147143D01*
X0196250Y0146393D01*
X0195499Y0145642D01*
X0196250Y0150246D02*
X0193247Y0153249D01*
X0192497Y0153249D01*
X0196250Y0153249D02*
X0196250Y0150246D01*
X0147050Y0106654D02*
X0146299Y0106654D01*
X0143297Y0109656D01*
X0142546Y0109656D01*
X0142546Y0106654D01*
X0143297Y0105053D02*
X0142546Y0104302D01*
X0142546Y0102801D01*
X0143297Y0102050D01*
X0146299Y0102050D01*
X0147050Y0102801D01*
X0147050Y0104302D01*
X0146299Y0105053D01*
X0149050Y0087953D02*
X0151319Y0087953D01*
X0150184Y0087953D02*
X0150184Y0084550D01*
X0153775Y0084550D02*
X0153775Y0087953D01*
X0152641Y0087953D02*
X0154910Y0087953D01*
X0162046Y0055156D02*
X0162797Y0053655D01*
X0164298Y0052154D01*
X0164298Y0054406D01*
X0165049Y0055156D01*
X0165799Y0055156D01*
X0166550Y0054406D01*
X0166550Y0052905D01*
X0165799Y0052154D01*
X0164298Y0052154D01*
X0162797Y0050553D02*
X0162046Y0049802D01*
X0162046Y0048301D01*
X0162797Y0047550D01*
X0165799Y0047550D01*
X0166550Y0048301D01*
X0166550Y0049802D01*
X0165799Y0050553D01*
X0154050Y0047676D02*
X0154050Y0044674D01*
X0151047Y0047676D01*
X0150297Y0047676D01*
X0149546Y0046925D01*
X0149546Y0045424D01*
X0150297Y0044674D01*
X0150050Y0043698D02*
X0145546Y0043698D01*
X0147798Y0041446D01*
X0147798Y0044449D01*
X0149546Y0042322D02*
X0150297Y0043072D01*
X0153299Y0040070D01*
X0154050Y0040820D01*
X0154050Y0042322D01*
X0153299Y0043072D01*
X0150297Y0043072D01*
X0149546Y0042322D02*
X0149546Y0040820D01*
X0150297Y0040070D01*
X0153299Y0040070D01*
X0150050Y0039094D02*
X0149299Y0039845D01*
X0148300Y0040046D02*
X0148300Y0023554D01*
X0149546Y0023906D02*
X0149546Y0022405D01*
X0150297Y0021654D01*
X0153299Y0021654D01*
X0154050Y0022405D01*
X0154050Y0023906D01*
X0153299Y0024656D01*
X0152549Y0026258D02*
X0152549Y0028510D01*
X0151798Y0029260D01*
X0150297Y0029260D01*
X0149546Y0028510D01*
X0149546Y0026258D01*
X0154050Y0026258D01*
X0150297Y0024656D02*
X0149546Y0023906D01*
X0149546Y0020053D02*
X0154050Y0020053D01*
X0154050Y0017050D02*
X0149546Y0017050D01*
X0151047Y0018551D01*
X0149546Y0020053D01*
X0142800Y0021348D02*
X0142800Y0022927D01*
X0142800Y0030673D02*
X0142800Y0032927D01*
X0148300Y0023554D02*
X0148101Y0023401D01*
X0147899Y0023253D01*
X0147694Y0023110D01*
X0147485Y0022972D01*
X0147273Y0022839D01*
X0147058Y0022711D01*
X0146840Y0022589D01*
X0146619Y0022471D01*
X0146395Y0022359D01*
X0146169Y0022252D01*
X0145940Y0022151D01*
X0145709Y0022055D01*
X0145475Y0021964D01*
X0145240Y0021879D01*
X0145002Y0021800D01*
X0144763Y0021727D01*
X0144522Y0021659D01*
X0144280Y0021597D01*
X0144036Y0021541D01*
X0143790Y0021490D01*
X0143544Y0021446D01*
X0143297Y0021407D01*
X0143049Y0021375D01*
X0142800Y0021348D01*
X0151047Y0030862D02*
X0149546Y0032363D01*
X0154050Y0032363D01*
X0154050Y0030862D02*
X0154050Y0033864D01*
X0154050Y0035466D02*
X0153299Y0035466D01*
X0150297Y0038468D01*
X0149546Y0038468D01*
X0149546Y0035466D01*
X0149299Y0036842D02*
X0150050Y0037593D01*
X0150050Y0039094D01*
X0149299Y0036842D02*
X0146297Y0036842D01*
X0145546Y0037593D01*
X0145546Y0039094D01*
X0146297Y0039845D01*
X0142800Y0040673D02*
X0142800Y0042252D01*
X0148300Y0040046D02*
X0148098Y0040201D01*
X0147893Y0040351D01*
X0147684Y0040497D01*
X0147471Y0040637D01*
X0147255Y0040772D01*
X0147036Y0040901D01*
X0146814Y0041025D01*
X0146589Y0041144D01*
X0146361Y0041257D01*
X0146131Y0041365D01*
X0145898Y0041467D01*
X0145662Y0041564D01*
X0145424Y0041655D01*
X0145185Y0041740D01*
X0144943Y0041819D01*
X0144699Y0041892D01*
X0144454Y0041959D01*
X0144207Y0042021D01*
X0143958Y0042076D01*
X0143708Y0042125D01*
X0143458Y0042168D01*
X0143206Y0042205D01*
X0142953Y0042236D01*
X0142700Y0042261D01*
X0142446Y0042280D01*
X0142192Y0042293D01*
X0141938Y0042299D01*
X0141683Y0042299D01*
X0141429Y0042293D01*
X0141174Y0042281D01*
X0140921Y0042263D01*
X0140667Y0042239D01*
X0140415Y0042208D01*
X0140163Y0042172D01*
X0139912Y0042129D01*
X0139662Y0042080D01*
X0139414Y0042025D01*
X0139167Y0041964D01*
X0138921Y0041898D01*
X0138677Y0041825D01*
X0138435Y0041746D01*
X0138195Y0041662D01*
X0137957Y0041571D01*
X0137721Y0041475D01*
X0137488Y0041374D01*
X0137257Y0041266D01*
X0137029Y0041154D01*
X0136804Y0041035D01*
X0136582Y0040911D01*
X0136362Y0040782D01*
X0136146Y0040648D01*
X0135933Y0040508D01*
X0135724Y0040363D01*
X0135518Y0040214D01*
X0135316Y0040059D01*
X0135118Y0039899D01*
X0134924Y0039735D01*
X0134733Y0039566D01*
X0134547Y0039393D01*
X0134365Y0039215D01*
X0134188Y0039032D01*
X0134015Y0038846D01*
X0133846Y0038655D01*
X0133682Y0038460D01*
X0133523Y0038261D01*
X0133369Y0038059D01*
X0133220Y0037853D01*
X0133076Y0037643D01*
X0132937Y0037430D01*
X0132803Y0037213D01*
X0132674Y0036994D01*
X0132551Y0036771D01*
X0132434Y0036545D01*
X0132321Y0036317D01*
X0132215Y0036086D01*
X0132114Y0035852D01*
X0132018Y0035616D01*
X0131929Y0035378D01*
X0131845Y0035138D01*
X0131767Y0034896D01*
X0131799Y0034845D02*
X0132550Y0034094D01*
X0132550Y0032593D01*
X0131799Y0031842D01*
X0128797Y0031842D01*
X0128046Y0032593D01*
X0128046Y0034094D01*
X0128797Y0034845D01*
X0128046Y0036446D02*
X0130298Y0036446D01*
X0129547Y0037947D01*
X0129547Y0038698D01*
X0130298Y0039449D01*
X0131799Y0039449D01*
X0132550Y0038698D01*
X0132550Y0037197D01*
X0131799Y0036446D01*
X0128046Y0036446D02*
X0128046Y0039449D01*
X0131767Y0028704D02*
X0131845Y0028460D01*
X0131930Y0028218D01*
X0132020Y0027979D01*
X0132116Y0027741D01*
X0132218Y0027506D01*
X0132326Y0027273D01*
X0132439Y0027043D01*
X0132558Y0026816D01*
X0132682Y0026592D01*
X0132812Y0026371D01*
X0132947Y0026154D01*
X0133088Y0025939D01*
X0133234Y0025728D01*
X0133384Y0025521D01*
X0133540Y0025318D01*
X0133701Y0025118D01*
X0133866Y0024922D01*
X0134036Y0024731D01*
X0134211Y0024543D01*
X0134391Y0024360D01*
X0134574Y0024182D01*
X0134763Y0024007D01*
X0134955Y0023838D01*
X0135151Y0023673D01*
X0135352Y0023513D01*
X0135556Y0023359D01*
X0135764Y0023209D01*
X0135975Y0023064D01*
X0136190Y0022924D01*
X0136408Y0022790D01*
X0136630Y0022661D01*
X0136854Y0022538D01*
X0137082Y0022420D01*
X0137312Y0022307D01*
X0137545Y0022201D01*
X0137781Y0022100D01*
X0138019Y0022004D01*
X0138259Y0021915D01*
X0138501Y0021832D01*
X0138746Y0021754D01*
X0138992Y0021683D01*
X0139240Y0021617D01*
X0139489Y0021558D01*
X0139739Y0021504D01*
X0139991Y0021457D01*
X0140244Y0021416D01*
X0140498Y0021381D01*
X0140753Y0021352D01*
X0141008Y0021330D01*
X0141264Y0021314D01*
X0141520Y0021304D01*
X0141776Y0021300D01*
X0142033Y0021303D01*
X0142289Y0021311D01*
X0142545Y0021326D01*
X0142800Y0021348D01*
X0180647Y0049050D02*
X0180647Y0051319D01*
X0180647Y0050184D02*
X0184050Y0050184D01*
X0184050Y0053775D02*
X0180647Y0053775D01*
X0180647Y0052641D02*
X0180647Y0054910D01*
X0144799Y0134342D02*
X0141797Y0134342D01*
X0141046Y0135093D01*
X0141046Y0136594D01*
X0141797Y0137345D01*
X0141797Y0138946D02*
X0141046Y0139697D01*
X0141046Y0141198D01*
X0141797Y0141949D01*
X0142547Y0141949D01*
X0145550Y0138946D01*
X0145550Y0141949D01*
X0144799Y0137345D02*
X0145550Y0136594D01*
X0145550Y0135093D01*
X0144799Y0134342D01*
X0079299Y0051949D02*
X0080050Y0051198D01*
X0080050Y0049697D01*
X0079299Y0048946D01*
X0079299Y0047345D02*
X0080050Y0046594D01*
X0080050Y0045093D01*
X0079299Y0044342D01*
X0076297Y0044342D01*
X0075546Y0045093D01*
X0075546Y0046594D01*
X0076297Y0047345D01*
X0076297Y0048946D02*
X0075546Y0049697D01*
X0075546Y0051198D01*
X0076297Y0051949D01*
X0077047Y0051949D01*
X0077798Y0051198D01*
X0078549Y0051949D01*
X0079299Y0051949D01*
X0077798Y0051198D02*
X0077798Y0050447D01*
D15*
X0177650Y0051800D03*
D16*
X0151800Y0090950D03*
D17*
X0061800Y0092600D03*
X0061800Y0121000D03*
X0061800Y0142600D03*
X0061800Y0171000D03*
X0021800Y0116000D03*
X0021800Y0087600D03*
D18*
X0107600Y0191800D03*
X0136000Y0191800D03*
D19*
X0081800Y0179300D02*
X0081800Y0174300D01*
X0079300Y0171800D01*
X0081800Y0169300D01*
X0081800Y0164300D01*
X0079300Y0161800D01*
X0081800Y0159300D01*
X0081800Y0154300D01*
X0079300Y0151800D01*
X0081800Y0149300D01*
X0081800Y0144300D01*
X0079300Y0141800D01*
X0081800Y0139300D01*
X0081800Y0134300D01*
X0079300Y0131800D01*
X0081800Y0129300D01*
X0081800Y0124300D01*
X0079300Y0121800D01*
X0074300Y0121800D01*
X0071800Y0124300D01*
X0071800Y0129300D01*
X0074300Y0131800D01*
X0071800Y0134300D01*
X0071800Y0139300D01*
X0074300Y0141800D01*
X0071800Y0144300D01*
X0071800Y0149300D01*
X0074300Y0151800D01*
X0071800Y0154300D01*
X0071800Y0159300D01*
X0074300Y0161800D01*
X0071800Y0164300D01*
X0071800Y0169300D01*
X0074300Y0171800D01*
X0071800Y0174300D01*
X0071800Y0179300D01*
X0074300Y0181800D01*
X0079300Y0181800D01*
X0081800Y0179300D01*
X0053800Y0168800D02*
X0029800Y0168800D01*
X0029800Y0144800D01*
X0053800Y0144800D01*
X0053800Y0168800D01*
X0046800Y0169300D02*
X0046800Y0164300D01*
X0044300Y0161800D01*
X0039300Y0161800D01*
X0036800Y0164300D01*
X0036800Y0169300D01*
X0039300Y0171800D01*
X0044300Y0171800D01*
X0046800Y0169300D01*
X0044300Y0151800D02*
X0039300Y0151800D01*
X0036800Y0149300D01*
X0036800Y0144300D01*
X0039300Y0141800D01*
X0044300Y0141800D01*
X0046800Y0144300D01*
X0046800Y0149300D01*
X0044300Y0151800D01*
X0044300Y0126800D02*
X0039300Y0126800D01*
X0036800Y0124300D01*
X0036800Y0119300D01*
X0039300Y0116800D01*
X0044300Y0116800D01*
X0046800Y0119300D01*
X0046800Y0124300D01*
X0044300Y0126800D01*
X0053800Y0123800D02*
X0029800Y0123800D01*
X0029800Y0099800D01*
X0053800Y0099800D01*
X0053800Y0123800D01*
X0044300Y0106800D02*
X0039300Y0106800D01*
X0036800Y0104300D01*
X0036800Y0099300D01*
X0039300Y0096800D01*
X0044300Y0096800D01*
X0046800Y0099300D01*
X0046800Y0104300D01*
X0044300Y0106800D01*
X0011800Y0104300D02*
X0011800Y0099300D01*
X0009300Y0096800D01*
X0011800Y0094300D01*
X0011800Y0089300D01*
X0009300Y0086800D01*
X0011800Y0084300D01*
X0011800Y0079300D01*
X0009300Y0076800D01*
X0011800Y0074300D01*
X0011800Y0069300D01*
X0009300Y0066800D01*
X0004300Y0066800D01*
X0001800Y0069300D01*
X0001800Y0074300D01*
X0004300Y0076800D01*
X0001800Y0079300D01*
X0001800Y0084300D01*
X0004300Y0086800D01*
X0001800Y0089300D01*
X0001800Y0094300D01*
X0004300Y0096800D01*
X0001800Y0099300D01*
X0001800Y0104300D01*
X0004300Y0106800D01*
X0001800Y0109300D01*
X0001800Y0114300D01*
X0004300Y0116800D01*
X0001800Y0119300D01*
X0001800Y0124300D01*
X0004300Y0126800D01*
X0001800Y0129300D01*
X0001800Y0134300D01*
X0004300Y0136800D01*
X0001800Y0139300D01*
X0001800Y0144300D01*
X0004300Y0146800D01*
X0009300Y0146800D01*
X0011800Y0144300D01*
X0011800Y0139300D01*
X0009300Y0136800D01*
X0011800Y0134300D01*
X0011800Y0129300D01*
X0009300Y0126800D01*
X0011800Y0124300D01*
X0011800Y0119300D01*
X0009300Y0116800D01*
X0011800Y0114300D01*
X0011800Y0109300D01*
X0009300Y0106800D01*
X0011800Y0104300D01*
X0064871Y0035265D02*
X0064871Y0018335D01*
X0098729Y0018335D01*
X0098729Y0035265D01*
X0064871Y0035265D01*
X0060146Y0030737D02*
X0060146Y0022863D01*
X0103454Y0022863D02*
X0103454Y0030737D01*
X0089300Y0076800D02*
X0084300Y0076800D01*
X0081800Y0079300D01*
X0081800Y0084300D01*
X0084300Y0086800D01*
X0081800Y0089300D01*
X0081800Y0094300D01*
X0084300Y0096800D01*
X0081800Y0099300D01*
X0081800Y0104300D01*
X0084300Y0106800D01*
X0089300Y0106800D01*
X0091800Y0104300D01*
X0091800Y0099300D01*
X0089300Y0096800D01*
X0091800Y0094300D01*
X0091800Y0089300D01*
X0089300Y0086800D01*
X0091800Y0084300D01*
X0091800Y0079300D01*
X0089300Y0076800D01*
X0189300Y0074300D02*
X0189300Y0069300D01*
X0191800Y0066800D01*
X0196800Y0066800D01*
X0199300Y0069300D01*
X0199300Y0074300D01*
X0196800Y0076800D01*
X0199300Y0079300D01*
X0199300Y0084300D01*
X0196800Y0086800D01*
X0199300Y0089300D01*
X0199300Y0094300D01*
X0196800Y0096800D01*
X0199300Y0099300D01*
X0199300Y0104300D01*
X0196800Y0106800D01*
X0199300Y0109300D01*
X0199300Y0114300D01*
X0196800Y0116800D01*
X0199300Y0119300D01*
X0199300Y0124300D01*
X0196800Y0126800D01*
X0199300Y0129300D01*
X0199300Y0134300D01*
X0196800Y0136800D01*
X0199300Y0139300D01*
X0199300Y0144300D01*
X0196800Y0146800D01*
X0191800Y0146800D01*
X0189300Y0144300D01*
X0189300Y0139300D01*
X0191800Y0136800D01*
X0189300Y0134300D01*
X0189300Y0129300D01*
X0191800Y0126800D01*
X0189300Y0124300D01*
X0189300Y0119300D01*
X0191800Y0116800D01*
X0189300Y0114300D01*
X0189300Y0109300D01*
X0191800Y0106800D01*
X0189300Y0104300D01*
X0189300Y0099300D01*
X0191800Y0096800D01*
X0189300Y0094300D01*
X0189300Y0089300D01*
X0191800Y0086800D01*
X0189300Y0084300D01*
X0189300Y0079300D01*
X0191800Y0076800D01*
X0189300Y0074300D01*
M02*
