G75*
%MOIN*%
%OFA0B0*%
%FSLAX25Y25*%
%IPPOS*%
%LPD*%
%AMOC8*
5,1,8,0,0,1.08239X$1,22.5*
%
%ADD10C,0.00000*%
%ADD11OC8,0.05200*%
%ADD12OC8,0.06300*%
%ADD13C,0.06300*%
%ADD14C,0.05200*%
%ADD15C,0.05150*%
%ADD16C,0.11220*%
%ADD17C,0.07400*%
%ADD18C,0.01600*%
%ADD19C,0.03562*%
D10*
X0001800Y0006800D02*
X0001800Y0203650D01*
X0198650Y0203650D01*
X0198650Y0006800D01*
X0001800Y0006800D01*
X0005501Y0016800D02*
X0005503Y0016958D01*
X0005509Y0017116D01*
X0005519Y0017274D01*
X0005533Y0017432D01*
X0005551Y0017589D01*
X0005572Y0017746D01*
X0005598Y0017902D01*
X0005628Y0018058D01*
X0005661Y0018213D01*
X0005699Y0018366D01*
X0005740Y0018519D01*
X0005785Y0018671D01*
X0005834Y0018822D01*
X0005887Y0018971D01*
X0005943Y0019119D01*
X0006003Y0019265D01*
X0006067Y0019410D01*
X0006135Y0019553D01*
X0006206Y0019695D01*
X0006280Y0019835D01*
X0006358Y0019972D01*
X0006440Y0020108D01*
X0006524Y0020242D01*
X0006613Y0020373D01*
X0006704Y0020502D01*
X0006799Y0020629D01*
X0006896Y0020754D01*
X0006997Y0020876D01*
X0007101Y0020995D01*
X0007208Y0021112D01*
X0007318Y0021226D01*
X0007431Y0021337D01*
X0007546Y0021446D01*
X0007664Y0021551D01*
X0007785Y0021653D01*
X0007908Y0021753D01*
X0008034Y0021849D01*
X0008162Y0021942D01*
X0008292Y0022032D01*
X0008425Y0022118D01*
X0008560Y0022202D01*
X0008696Y0022281D01*
X0008835Y0022358D01*
X0008976Y0022430D01*
X0009118Y0022500D01*
X0009262Y0022565D01*
X0009408Y0022627D01*
X0009555Y0022685D01*
X0009704Y0022740D01*
X0009854Y0022791D01*
X0010005Y0022838D01*
X0010157Y0022881D01*
X0010310Y0022920D01*
X0010465Y0022956D01*
X0010620Y0022987D01*
X0010776Y0023015D01*
X0010932Y0023039D01*
X0011089Y0023059D01*
X0011247Y0023075D01*
X0011404Y0023087D01*
X0011563Y0023095D01*
X0011721Y0023099D01*
X0011879Y0023099D01*
X0012037Y0023095D01*
X0012196Y0023087D01*
X0012353Y0023075D01*
X0012511Y0023059D01*
X0012668Y0023039D01*
X0012824Y0023015D01*
X0012980Y0022987D01*
X0013135Y0022956D01*
X0013290Y0022920D01*
X0013443Y0022881D01*
X0013595Y0022838D01*
X0013746Y0022791D01*
X0013896Y0022740D01*
X0014045Y0022685D01*
X0014192Y0022627D01*
X0014338Y0022565D01*
X0014482Y0022500D01*
X0014624Y0022430D01*
X0014765Y0022358D01*
X0014904Y0022281D01*
X0015040Y0022202D01*
X0015175Y0022118D01*
X0015308Y0022032D01*
X0015438Y0021942D01*
X0015566Y0021849D01*
X0015692Y0021753D01*
X0015815Y0021653D01*
X0015936Y0021551D01*
X0016054Y0021446D01*
X0016169Y0021337D01*
X0016282Y0021226D01*
X0016392Y0021112D01*
X0016499Y0020995D01*
X0016603Y0020876D01*
X0016704Y0020754D01*
X0016801Y0020629D01*
X0016896Y0020502D01*
X0016987Y0020373D01*
X0017076Y0020242D01*
X0017160Y0020108D01*
X0017242Y0019972D01*
X0017320Y0019835D01*
X0017394Y0019695D01*
X0017465Y0019553D01*
X0017533Y0019410D01*
X0017597Y0019265D01*
X0017657Y0019119D01*
X0017713Y0018971D01*
X0017766Y0018822D01*
X0017815Y0018671D01*
X0017860Y0018519D01*
X0017901Y0018366D01*
X0017939Y0018213D01*
X0017972Y0018058D01*
X0018002Y0017902D01*
X0018028Y0017746D01*
X0018049Y0017589D01*
X0018067Y0017432D01*
X0018081Y0017274D01*
X0018091Y0017116D01*
X0018097Y0016958D01*
X0018099Y0016800D01*
X0018097Y0016642D01*
X0018091Y0016484D01*
X0018081Y0016326D01*
X0018067Y0016168D01*
X0018049Y0016011D01*
X0018028Y0015854D01*
X0018002Y0015698D01*
X0017972Y0015542D01*
X0017939Y0015387D01*
X0017901Y0015234D01*
X0017860Y0015081D01*
X0017815Y0014929D01*
X0017766Y0014778D01*
X0017713Y0014629D01*
X0017657Y0014481D01*
X0017597Y0014335D01*
X0017533Y0014190D01*
X0017465Y0014047D01*
X0017394Y0013905D01*
X0017320Y0013765D01*
X0017242Y0013628D01*
X0017160Y0013492D01*
X0017076Y0013358D01*
X0016987Y0013227D01*
X0016896Y0013098D01*
X0016801Y0012971D01*
X0016704Y0012846D01*
X0016603Y0012724D01*
X0016499Y0012605D01*
X0016392Y0012488D01*
X0016282Y0012374D01*
X0016169Y0012263D01*
X0016054Y0012154D01*
X0015936Y0012049D01*
X0015815Y0011947D01*
X0015692Y0011847D01*
X0015566Y0011751D01*
X0015438Y0011658D01*
X0015308Y0011568D01*
X0015175Y0011482D01*
X0015040Y0011398D01*
X0014904Y0011319D01*
X0014765Y0011242D01*
X0014624Y0011170D01*
X0014482Y0011100D01*
X0014338Y0011035D01*
X0014192Y0010973D01*
X0014045Y0010915D01*
X0013896Y0010860D01*
X0013746Y0010809D01*
X0013595Y0010762D01*
X0013443Y0010719D01*
X0013290Y0010680D01*
X0013135Y0010644D01*
X0012980Y0010613D01*
X0012824Y0010585D01*
X0012668Y0010561D01*
X0012511Y0010541D01*
X0012353Y0010525D01*
X0012196Y0010513D01*
X0012037Y0010505D01*
X0011879Y0010501D01*
X0011721Y0010501D01*
X0011563Y0010505D01*
X0011404Y0010513D01*
X0011247Y0010525D01*
X0011089Y0010541D01*
X0010932Y0010561D01*
X0010776Y0010585D01*
X0010620Y0010613D01*
X0010465Y0010644D01*
X0010310Y0010680D01*
X0010157Y0010719D01*
X0010005Y0010762D01*
X0009854Y0010809D01*
X0009704Y0010860D01*
X0009555Y0010915D01*
X0009408Y0010973D01*
X0009262Y0011035D01*
X0009118Y0011100D01*
X0008976Y0011170D01*
X0008835Y0011242D01*
X0008696Y0011319D01*
X0008560Y0011398D01*
X0008425Y0011482D01*
X0008292Y0011568D01*
X0008162Y0011658D01*
X0008034Y0011751D01*
X0007908Y0011847D01*
X0007785Y0011947D01*
X0007664Y0012049D01*
X0007546Y0012154D01*
X0007431Y0012263D01*
X0007318Y0012374D01*
X0007208Y0012488D01*
X0007101Y0012605D01*
X0006997Y0012724D01*
X0006896Y0012846D01*
X0006799Y0012971D01*
X0006704Y0013098D01*
X0006613Y0013227D01*
X0006524Y0013358D01*
X0006440Y0013492D01*
X0006358Y0013628D01*
X0006280Y0013765D01*
X0006206Y0013905D01*
X0006135Y0014047D01*
X0006067Y0014190D01*
X0006003Y0014335D01*
X0005943Y0014481D01*
X0005887Y0014629D01*
X0005834Y0014778D01*
X0005785Y0014929D01*
X0005740Y0015081D01*
X0005699Y0015234D01*
X0005661Y0015387D01*
X0005628Y0015542D01*
X0005598Y0015698D01*
X0005572Y0015854D01*
X0005551Y0016011D01*
X0005533Y0016168D01*
X0005519Y0016326D01*
X0005509Y0016484D01*
X0005503Y0016642D01*
X0005501Y0016800D01*
X0005501Y0191800D02*
X0005503Y0191958D01*
X0005509Y0192116D01*
X0005519Y0192274D01*
X0005533Y0192432D01*
X0005551Y0192589D01*
X0005572Y0192746D01*
X0005598Y0192902D01*
X0005628Y0193058D01*
X0005661Y0193213D01*
X0005699Y0193366D01*
X0005740Y0193519D01*
X0005785Y0193671D01*
X0005834Y0193822D01*
X0005887Y0193971D01*
X0005943Y0194119D01*
X0006003Y0194265D01*
X0006067Y0194410D01*
X0006135Y0194553D01*
X0006206Y0194695D01*
X0006280Y0194835D01*
X0006358Y0194972D01*
X0006440Y0195108D01*
X0006524Y0195242D01*
X0006613Y0195373D01*
X0006704Y0195502D01*
X0006799Y0195629D01*
X0006896Y0195754D01*
X0006997Y0195876D01*
X0007101Y0195995D01*
X0007208Y0196112D01*
X0007318Y0196226D01*
X0007431Y0196337D01*
X0007546Y0196446D01*
X0007664Y0196551D01*
X0007785Y0196653D01*
X0007908Y0196753D01*
X0008034Y0196849D01*
X0008162Y0196942D01*
X0008292Y0197032D01*
X0008425Y0197118D01*
X0008560Y0197202D01*
X0008696Y0197281D01*
X0008835Y0197358D01*
X0008976Y0197430D01*
X0009118Y0197500D01*
X0009262Y0197565D01*
X0009408Y0197627D01*
X0009555Y0197685D01*
X0009704Y0197740D01*
X0009854Y0197791D01*
X0010005Y0197838D01*
X0010157Y0197881D01*
X0010310Y0197920D01*
X0010465Y0197956D01*
X0010620Y0197987D01*
X0010776Y0198015D01*
X0010932Y0198039D01*
X0011089Y0198059D01*
X0011247Y0198075D01*
X0011404Y0198087D01*
X0011563Y0198095D01*
X0011721Y0198099D01*
X0011879Y0198099D01*
X0012037Y0198095D01*
X0012196Y0198087D01*
X0012353Y0198075D01*
X0012511Y0198059D01*
X0012668Y0198039D01*
X0012824Y0198015D01*
X0012980Y0197987D01*
X0013135Y0197956D01*
X0013290Y0197920D01*
X0013443Y0197881D01*
X0013595Y0197838D01*
X0013746Y0197791D01*
X0013896Y0197740D01*
X0014045Y0197685D01*
X0014192Y0197627D01*
X0014338Y0197565D01*
X0014482Y0197500D01*
X0014624Y0197430D01*
X0014765Y0197358D01*
X0014904Y0197281D01*
X0015040Y0197202D01*
X0015175Y0197118D01*
X0015308Y0197032D01*
X0015438Y0196942D01*
X0015566Y0196849D01*
X0015692Y0196753D01*
X0015815Y0196653D01*
X0015936Y0196551D01*
X0016054Y0196446D01*
X0016169Y0196337D01*
X0016282Y0196226D01*
X0016392Y0196112D01*
X0016499Y0195995D01*
X0016603Y0195876D01*
X0016704Y0195754D01*
X0016801Y0195629D01*
X0016896Y0195502D01*
X0016987Y0195373D01*
X0017076Y0195242D01*
X0017160Y0195108D01*
X0017242Y0194972D01*
X0017320Y0194835D01*
X0017394Y0194695D01*
X0017465Y0194553D01*
X0017533Y0194410D01*
X0017597Y0194265D01*
X0017657Y0194119D01*
X0017713Y0193971D01*
X0017766Y0193822D01*
X0017815Y0193671D01*
X0017860Y0193519D01*
X0017901Y0193366D01*
X0017939Y0193213D01*
X0017972Y0193058D01*
X0018002Y0192902D01*
X0018028Y0192746D01*
X0018049Y0192589D01*
X0018067Y0192432D01*
X0018081Y0192274D01*
X0018091Y0192116D01*
X0018097Y0191958D01*
X0018099Y0191800D01*
X0018097Y0191642D01*
X0018091Y0191484D01*
X0018081Y0191326D01*
X0018067Y0191168D01*
X0018049Y0191011D01*
X0018028Y0190854D01*
X0018002Y0190698D01*
X0017972Y0190542D01*
X0017939Y0190387D01*
X0017901Y0190234D01*
X0017860Y0190081D01*
X0017815Y0189929D01*
X0017766Y0189778D01*
X0017713Y0189629D01*
X0017657Y0189481D01*
X0017597Y0189335D01*
X0017533Y0189190D01*
X0017465Y0189047D01*
X0017394Y0188905D01*
X0017320Y0188765D01*
X0017242Y0188628D01*
X0017160Y0188492D01*
X0017076Y0188358D01*
X0016987Y0188227D01*
X0016896Y0188098D01*
X0016801Y0187971D01*
X0016704Y0187846D01*
X0016603Y0187724D01*
X0016499Y0187605D01*
X0016392Y0187488D01*
X0016282Y0187374D01*
X0016169Y0187263D01*
X0016054Y0187154D01*
X0015936Y0187049D01*
X0015815Y0186947D01*
X0015692Y0186847D01*
X0015566Y0186751D01*
X0015438Y0186658D01*
X0015308Y0186568D01*
X0015175Y0186482D01*
X0015040Y0186398D01*
X0014904Y0186319D01*
X0014765Y0186242D01*
X0014624Y0186170D01*
X0014482Y0186100D01*
X0014338Y0186035D01*
X0014192Y0185973D01*
X0014045Y0185915D01*
X0013896Y0185860D01*
X0013746Y0185809D01*
X0013595Y0185762D01*
X0013443Y0185719D01*
X0013290Y0185680D01*
X0013135Y0185644D01*
X0012980Y0185613D01*
X0012824Y0185585D01*
X0012668Y0185561D01*
X0012511Y0185541D01*
X0012353Y0185525D01*
X0012196Y0185513D01*
X0012037Y0185505D01*
X0011879Y0185501D01*
X0011721Y0185501D01*
X0011563Y0185505D01*
X0011404Y0185513D01*
X0011247Y0185525D01*
X0011089Y0185541D01*
X0010932Y0185561D01*
X0010776Y0185585D01*
X0010620Y0185613D01*
X0010465Y0185644D01*
X0010310Y0185680D01*
X0010157Y0185719D01*
X0010005Y0185762D01*
X0009854Y0185809D01*
X0009704Y0185860D01*
X0009555Y0185915D01*
X0009408Y0185973D01*
X0009262Y0186035D01*
X0009118Y0186100D01*
X0008976Y0186170D01*
X0008835Y0186242D01*
X0008696Y0186319D01*
X0008560Y0186398D01*
X0008425Y0186482D01*
X0008292Y0186568D01*
X0008162Y0186658D01*
X0008034Y0186751D01*
X0007908Y0186847D01*
X0007785Y0186947D01*
X0007664Y0187049D01*
X0007546Y0187154D01*
X0007431Y0187263D01*
X0007318Y0187374D01*
X0007208Y0187488D01*
X0007101Y0187605D01*
X0006997Y0187724D01*
X0006896Y0187846D01*
X0006799Y0187971D01*
X0006704Y0188098D01*
X0006613Y0188227D01*
X0006524Y0188358D01*
X0006440Y0188492D01*
X0006358Y0188628D01*
X0006280Y0188765D01*
X0006206Y0188905D01*
X0006135Y0189047D01*
X0006067Y0189190D01*
X0006003Y0189335D01*
X0005943Y0189481D01*
X0005887Y0189629D01*
X0005834Y0189778D01*
X0005785Y0189929D01*
X0005740Y0190081D01*
X0005699Y0190234D01*
X0005661Y0190387D01*
X0005628Y0190542D01*
X0005598Y0190698D01*
X0005572Y0190854D01*
X0005551Y0191011D01*
X0005533Y0191168D01*
X0005519Y0191326D01*
X0005509Y0191484D01*
X0005503Y0191642D01*
X0005501Y0191800D01*
X0180501Y0191800D02*
X0180503Y0191958D01*
X0180509Y0192116D01*
X0180519Y0192274D01*
X0180533Y0192432D01*
X0180551Y0192589D01*
X0180572Y0192746D01*
X0180598Y0192902D01*
X0180628Y0193058D01*
X0180661Y0193213D01*
X0180699Y0193366D01*
X0180740Y0193519D01*
X0180785Y0193671D01*
X0180834Y0193822D01*
X0180887Y0193971D01*
X0180943Y0194119D01*
X0181003Y0194265D01*
X0181067Y0194410D01*
X0181135Y0194553D01*
X0181206Y0194695D01*
X0181280Y0194835D01*
X0181358Y0194972D01*
X0181440Y0195108D01*
X0181524Y0195242D01*
X0181613Y0195373D01*
X0181704Y0195502D01*
X0181799Y0195629D01*
X0181896Y0195754D01*
X0181997Y0195876D01*
X0182101Y0195995D01*
X0182208Y0196112D01*
X0182318Y0196226D01*
X0182431Y0196337D01*
X0182546Y0196446D01*
X0182664Y0196551D01*
X0182785Y0196653D01*
X0182908Y0196753D01*
X0183034Y0196849D01*
X0183162Y0196942D01*
X0183292Y0197032D01*
X0183425Y0197118D01*
X0183560Y0197202D01*
X0183696Y0197281D01*
X0183835Y0197358D01*
X0183976Y0197430D01*
X0184118Y0197500D01*
X0184262Y0197565D01*
X0184408Y0197627D01*
X0184555Y0197685D01*
X0184704Y0197740D01*
X0184854Y0197791D01*
X0185005Y0197838D01*
X0185157Y0197881D01*
X0185310Y0197920D01*
X0185465Y0197956D01*
X0185620Y0197987D01*
X0185776Y0198015D01*
X0185932Y0198039D01*
X0186089Y0198059D01*
X0186247Y0198075D01*
X0186404Y0198087D01*
X0186563Y0198095D01*
X0186721Y0198099D01*
X0186879Y0198099D01*
X0187037Y0198095D01*
X0187196Y0198087D01*
X0187353Y0198075D01*
X0187511Y0198059D01*
X0187668Y0198039D01*
X0187824Y0198015D01*
X0187980Y0197987D01*
X0188135Y0197956D01*
X0188290Y0197920D01*
X0188443Y0197881D01*
X0188595Y0197838D01*
X0188746Y0197791D01*
X0188896Y0197740D01*
X0189045Y0197685D01*
X0189192Y0197627D01*
X0189338Y0197565D01*
X0189482Y0197500D01*
X0189624Y0197430D01*
X0189765Y0197358D01*
X0189904Y0197281D01*
X0190040Y0197202D01*
X0190175Y0197118D01*
X0190308Y0197032D01*
X0190438Y0196942D01*
X0190566Y0196849D01*
X0190692Y0196753D01*
X0190815Y0196653D01*
X0190936Y0196551D01*
X0191054Y0196446D01*
X0191169Y0196337D01*
X0191282Y0196226D01*
X0191392Y0196112D01*
X0191499Y0195995D01*
X0191603Y0195876D01*
X0191704Y0195754D01*
X0191801Y0195629D01*
X0191896Y0195502D01*
X0191987Y0195373D01*
X0192076Y0195242D01*
X0192160Y0195108D01*
X0192242Y0194972D01*
X0192320Y0194835D01*
X0192394Y0194695D01*
X0192465Y0194553D01*
X0192533Y0194410D01*
X0192597Y0194265D01*
X0192657Y0194119D01*
X0192713Y0193971D01*
X0192766Y0193822D01*
X0192815Y0193671D01*
X0192860Y0193519D01*
X0192901Y0193366D01*
X0192939Y0193213D01*
X0192972Y0193058D01*
X0193002Y0192902D01*
X0193028Y0192746D01*
X0193049Y0192589D01*
X0193067Y0192432D01*
X0193081Y0192274D01*
X0193091Y0192116D01*
X0193097Y0191958D01*
X0193099Y0191800D01*
X0193097Y0191642D01*
X0193091Y0191484D01*
X0193081Y0191326D01*
X0193067Y0191168D01*
X0193049Y0191011D01*
X0193028Y0190854D01*
X0193002Y0190698D01*
X0192972Y0190542D01*
X0192939Y0190387D01*
X0192901Y0190234D01*
X0192860Y0190081D01*
X0192815Y0189929D01*
X0192766Y0189778D01*
X0192713Y0189629D01*
X0192657Y0189481D01*
X0192597Y0189335D01*
X0192533Y0189190D01*
X0192465Y0189047D01*
X0192394Y0188905D01*
X0192320Y0188765D01*
X0192242Y0188628D01*
X0192160Y0188492D01*
X0192076Y0188358D01*
X0191987Y0188227D01*
X0191896Y0188098D01*
X0191801Y0187971D01*
X0191704Y0187846D01*
X0191603Y0187724D01*
X0191499Y0187605D01*
X0191392Y0187488D01*
X0191282Y0187374D01*
X0191169Y0187263D01*
X0191054Y0187154D01*
X0190936Y0187049D01*
X0190815Y0186947D01*
X0190692Y0186847D01*
X0190566Y0186751D01*
X0190438Y0186658D01*
X0190308Y0186568D01*
X0190175Y0186482D01*
X0190040Y0186398D01*
X0189904Y0186319D01*
X0189765Y0186242D01*
X0189624Y0186170D01*
X0189482Y0186100D01*
X0189338Y0186035D01*
X0189192Y0185973D01*
X0189045Y0185915D01*
X0188896Y0185860D01*
X0188746Y0185809D01*
X0188595Y0185762D01*
X0188443Y0185719D01*
X0188290Y0185680D01*
X0188135Y0185644D01*
X0187980Y0185613D01*
X0187824Y0185585D01*
X0187668Y0185561D01*
X0187511Y0185541D01*
X0187353Y0185525D01*
X0187196Y0185513D01*
X0187037Y0185505D01*
X0186879Y0185501D01*
X0186721Y0185501D01*
X0186563Y0185505D01*
X0186404Y0185513D01*
X0186247Y0185525D01*
X0186089Y0185541D01*
X0185932Y0185561D01*
X0185776Y0185585D01*
X0185620Y0185613D01*
X0185465Y0185644D01*
X0185310Y0185680D01*
X0185157Y0185719D01*
X0185005Y0185762D01*
X0184854Y0185809D01*
X0184704Y0185860D01*
X0184555Y0185915D01*
X0184408Y0185973D01*
X0184262Y0186035D01*
X0184118Y0186100D01*
X0183976Y0186170D01*
X0183835Y0186242D01*
X0183696Y0186319D01*
X0183560Y0186398D01*
X0183425Y0186482D01*
X0183292Y0186568D01*
X0183162Y0186658D01*
X0183034Y0186751D01*
X0182908Y0186847D01*
X0182785Y0186947D01*
X0182664Y0187049D01*
X0182546Y0187154D01*
X0182431Y0187263D01*
X0182318Y0187374D01*
X0182208Y0187488D01*
X0182101Y0187605D01*
X0181997Y0187724D01*
X0181896Y0187846D01*
X0181799Y0187971D01*
X0181704Y0188098D01*
X0181613Y0188227D01*
X0181524Y0188358D01*
X0181440Y0188492D01*
X0181358Y0188628D01*
X0181280Y0188765D01*
X0181206Y0188905D01*
X0181135Y0189047D01*
X0181067Y0189190D01*
X0181003Y0189335D01*
X0180943Y0189481D01*
X0180887Y0189629D01*
X0180834Y0189778D01*
X0180785Y0189929D01*
X0180740Y0190081D01*
X0180699Y0190234D01*
X0180661Y0190387D01*
X0180628Y0190542D01*
X0180598Y0190698D01*
X0180572Y0190854D01*
X0180551Y0191011D01*
X0180533Y0191168D01*
X0180519Y0191326D01*
X0180509Y0191484D01*
X0180503Y0191642D01*
X0180501Y0191800D01*
X0180501Y0016800D02*
X0180503Y0016958D01*
X0180509Y0017116D01*
X0180519Y0017274D01*
X0180533Y0017432D01*
X0180551Y0017589D01*
X0180572Y0017746D01*
X0180598Y0017902D01*
X0180628Y0018058D01*
X0180661Y0018213D01*
X0180699Y0018366D01*
X0180740Y0018519D01*
X0180785Y0018671D01*
X0180834Y0018822D01*
X0180887Y0018971D01*
X0180943Y0019119D01*
X0181003Y0019265D01*
X0181067Y0019410D01*
X0181135Y0019553D01*
X0181206Y0019695D01*
X0181280Y0019835D01*
X0181358Y0019972D01*
X0181440Y0020108D01*
X0181524Y0020242D01*
X0181613Y0020373D01*
X0181704Y0020502D01*
X0181799Y0020629D01*
X0181896Y0020754D01*
X0181997Y0020876D01*
X0182101Y0020995D01*
X0182208Y0021112D01*
X0182318Y0021226D01*
X0182431Y0021337D01*
X0182546Y0021446D01*
X0182664Y0021551D01*
X0182785Y0021653D01*
X0182908Y0021753D01*
X0183034Y0021849D01*
X0183162Y0021942D01*
X0183292Y0022032D01*
X0183425Y0022118D01*
X0183560Y0022202D01*
X0183696Y0022281D01*
X0183835Y0022358D01*
X0183976Y0022430D01*
X0184118Y0022500D01*
X0184262Y0022565D01*
X0184408Y0022627D01*
X0184555Y0022685D01*
X0184704Y0022740D01*
X0184854Y0022791D01*
X0185005Y0022838D01*
X0185157Y0022881D01*
X0185310Y0022920D01*
X0185465Y0022956D01*
X0185620Y0022987D01*
X0185776Y0023015D01*
X0185932Y0023039D01*
X0186089Y0023059D01*
X0186247Y0023075D01*
X0186404Y0023087D01*
X0186563Y0023095D01*
X0186721Y0023099D01*
X0186879Y0023099D01*
X0187037Y0023095D01*
X0187196Y0023087D01*
X0187353Y0023075D01*
X0187511Y0023059D01*
X0187668Y0023039D01*
X0187824Y0023015D01*
X0187980Y0022987D01*
X0188135Y0022956D01*
X0188290Y0022920D01*
X0188443Y0022881D01*
X0188595Y0022838D01*
X0188746Y0022791D01*
X0188896Y0022740D01*
X0189045Y0022685D01*
X0189192Y0022627D01*
X0189338Y0022565D01*
X0189482Y0022500D01*
X0189624Y0022430D01*
X0189765Y0022358D01*
X0189904Y0022281D01*
X0190040Y0022202D01*
X0190175Y0022118D01*
X0190308Y0022032D01*
X0190438Y0021942D01*
X0190566Y0021849D01*
X0190692Y0021753D01*
X0190815Y0021653D01*
X0190936Y0021551D01*
X0191054Y0021446D01*
X0191169Y0021337D01*
X0191282Y0021226D01*
X0191392Y0021112D01*
X0191499Y0020995D01*
X0191603Y0020876D01*
X0191704Y0020754D01*
X0191801Y0020629D01*
X0191896Y0020502D01*
X0191987Y0020373D01*
X0192076Y0020242D01*
X0192160Y0020108D01*
X0192242Y0019972D01*
X0192320Y0019835D01*
X0192394Y0019695D01*
X0192465Y0019553D01*
X0192533Y0019410D01*
X0192597Y0019265D01*
X0192657Y0019119D01*
X0192713Y0018971D01*
X0192766Y0018822D01*
X0192815Y0018671D01*
X0192860Y0018519D01*
X0192901Y0018366D01*
X0192939Y0018213D01*
X0192972Y0018058D01*
X0193002Y0017902D01*
X0193028Y0017746D01*
X0193049Y0017589D01*
X0193067Y0017432D01*
X0193081Y0017274D01*
X0193091Y0017116D01*
X0193097Y0016958D01*
X0193099Y0016800D01*
X0193097Y0016642D01*
X0193091Y0016484D01*
X0193081Y0016326D01*
X0193067Y0016168D01*
X0193049Y0016011D01*
X0193028Y0015854D01*
X0193002Y0015698D01*
X0192972Y0015542D01*
X0192939Y0015387D01*
X0192901Y0015234D01*
X0192860Y0015081D01*
X0192815Y0014929D01*
X0192766Y0014778D01*
X0192713Y0014629D01*
X0192657Y0014481D01*
X0192597Y0014335D01*
X0192533Y0014190D01*
X0192465Y0014047D01*
X0192394Y0013905D01*
X0192320Y0013765D01*
X0192242Y0013628D01*
X0192160Y0013492D01*
X0192076Y0013358D01*
X0191987Y0013227D01*
X0191896Y0013098D01*
X0191801Y0012971D01*
X0191704Y0012846D01*
X0191603Y0012724D01*
X0191499Y0012605D01*
X0191392Y0012488D01*
X0191282Y0012374D01*
X0191169Y0012263D01*
X0191054Y0012154D01*
X0190936Y0012049D01*
X0190815Y0011947D01*
X0190692Y0011847D01*
X0190566Y0011751D01*
X0190438Y0011658D01*
X0190308Y0011568D01*
X0190175Y0011482D01*
X0190040Y0011398D01*
X0189904Y0011319D01*
X0189765Y0011242D01*
X0189624Y0011170D01*
X0189482Y0011100D01*
X0189338Y0011035D01*
X0189192Y0010973D01*
X0189045Y0010915D01*
X0188896Y0010860D01*
X0188746Y0010809D01*
X0188595Y0010762D01*
X0188443Y0010719D01*
X0188290Y0010680D01*
X0188135Y0010644D01*
X0187980Y0010613D01*
X0187824Y0010585D01*
X0187668Y0010561D01*
X0187511Y0010541D01*
X0187353Y0010525D01*
X0187196Y0010513D01*
X0187037Y0010505D01*
X0186879Y0010501D01*
X0186721Y0010501D01*
X0186563Y0010505D01*
X0186404Y0010513D01*
X0186247Y0010525D01*
X0186089Y0010541D01*
X0185932Y0010561D01*
X0185776Y0010585D01*
X0185620Y0010613D01*
X0185465Y0010644D01*
X0185310Y0010680D01*
X0185157Y0010719D01*
X0185005Y0010762D01*
X0184854Y0010809D01*
X0184704Y0010860D01*
X0184555Y0010915D01*
X0184408Y0010973D01*
X0184262Y0011035D01*
X0184118Y0011100D01*
X0183976Y0011170D01*
X0183835Y0011242D01*
X0183696Y0011319D01*
X0183560Y0011398D01*
X0183425Y0011482D01*
X0183292Y0011568D01*
X0183162Y0011658D01*
X0183034Y0011751D01*
X0182908Y0011847D01*
X0182785Y0011947D01*
X0182664Y0012049D01*
X0182546Y0012154D01*
X0182431Y0012263D01*
X0182318Y0012374D01*
X0182208Y0012488D01*
X0182101Y0012605D01*
X0181997Y0012724D01*
X0181896Y0012846D01*
X0181799Y0012971D01*
X0181704Y0013098D01*
X0181613Y0013227D01*
X0181524Y0013358D01*
X0181440Y0013492D01*
X0181358Y0013628D01*
X0181280Y0013765D01*
X0181206Y0013905D01*
X0181135Y0014047D01*
X0181067Y0014190D01*
X0181003Y0014335D01*
X0180943Y0014481D01*
X0180887Y0014629D01*
X0180834Y0014778D01*
X0180785Y0014929D01*
X0180740Y0015081D01*
X0180699Y0015234D01*
X0180661Y0015387D01*
X0180628Y0015542D01*
X0180598Y0015698D01*
X0180572Y0015854D01*
X0180551Y0016011D01*
X0180533Y0016168D01*
X0180519Y0016326D01*
X0180509Y0016484D01*
X0180503Y0016642D01*
X0180501Y0016800D01*
D11*
X0156800Y0026800D03*
X0156800Y0036800D03*
X0141800Y0036800D03*
X0134300Y0031800D03*
X0141800Y0026800D03*
X0121800Y0026800D03*
X0121800Y0036800D03*
X0086800Y0046800D03*
X0086800Y0056800D03*
X0061800Y0086800D03*
X0036800Y0081800D03*
X0036800Y0091800D03*
X0021800Y0081800D03*
X0021800Y0121800D03*
X0061800Y0126800D03*
X0061800Y0136800D03*
X0061800Y0176800D03*
X0101800Y0191800D03*
X0141800Y0191800D03*
X0146800Y0191800D03*
X0156800Y0191800D03*
X0151800Y0176800D03*
X0141800Y0176800D03*
X0141800Y0126800D03*
X0151800Y0126800D03*
D12*
X0141800Y0086800D03*
X0181800Y0041800D03*
D13*
X0171800Y0041800D03*
X0141800Y0096800D03*
D14*
X0134400Y0096800D02*
X0129200Y0096800D01*
X0129200Y0086800D02*
X0134400Y0086800D01*
X0134400Y0076800D02*
X0129200Y0076800D01*
X0129200Y0066800D02*
X0134400Y0066800D01*
X0134400Y0056800D02*
X0129200Y0056800D01*
X0129200Y0046800D02*
X0134400Y0046800D01*
X0104400Y0046800D02*
X0099200Y0046800D01*
X0099200Y0056800D02*
X0104400Y0056800D01*
X0104400Y0066800D02*
X0099200Y0066800D01*
X0099200Y0076800D02*
X0104400Y0076800D01*
X0104400Y0086800D02*
X0099200Y0086800D01*
X0099200Y0096800D02*
X0104400Y0096800D01*
X0104400Y0106800D02*
X0099200Y0106800D01*
X0099200Y0116800D02*
X0104400Y0116800D01*
X0104400Y0126800D02*
X0099200Y0126800D01*
X0099200Y0136800D02*
X0104400Y0136800D01*
X0104400Y0146800D02*
X0099200Y0146800D01*
X0099200Y0156800D02*
X0104400Y0156800D01*
X0104400Y0166800D02*
X0099200Y0166800D01*
X0099200Y0176800D02*
X0104400Y0176800D01*
X0129200Y0176800D02*
X0134400Y0176800D01*
X0134400Y0166800D02*
X0129200Y0166800D01*
X0129200Y0156800D02*
X0134400Y0156800D01*
X0134400Y0146800D02*
X0129200Y0146800D01*
X0129200Y0136800D02*
X0134400Y0136800D01*
X0134400Y0126800D02*
X0129200Y0126800D01*
X0129200Y0116800D02*
X0134400Y0116800D01*
X0134400Y0106800D02*
X0129200Y0106800D01*
D15*
X0036879Y0053099D03*
X0032154Y0049950D03*
X0036879Y0046800D03*
X0032154Y0043650D03*
X0036879Y0040501D03*
D16*
X0016800Y0032430D03*
X0016800Y0061170D03*
D17*
X0006800Y0071800D03*
X0006800Y0081800D03*
X0006800Y0091800D03*
X0006800Y0101800D03*
X0006800Y0111800D03*
X0006800Y0121800D03*
X0006800Y0131800D03*
X0006800Y0141800D03*
X0041800Y0146800D03*
X0041800Y0166800D03*
X0076800Y0166800D03*
X0076800Y0156800D03*
X0076800Y0146800D03*
X0076800Y0136800D03*
X0076800Y0126800D03*
X0086800Y0101800D03*
X0086800Y0091800D03*
X0086800Y0081800D03*
X0041800Y0101800D03*
X0041800Y0121800D03*
X0076800Y0176800D03*
X0194300Y0141800D03*
X0194300Y0131800D03*
X0194300Y0121800D03*
X0194300Y0111800D03*
X0194300Y0101800D03*
X0194300Y0091800D03*
X0194300Y0081800D03*
X0194300Y0071800D03*
X0097548Y0026800D03*
X0089674Y0026800D03*
X0081800Y0026800D03*
X0073926Y0026800D03*
X0066052Y0026800D03*
D18*
X0061517Y0029179D02*
X0057290Y0029179D01*
X0055692Y0027581D02*
X0060952Y0027581D01*
X0060952Y0027814D02*
X0060952Y0025786D01*
X0061728Y0023911D01*
X0063163Y0022476D01*
X0065037Y0021700D01*
X0067066Y0021700D01*
X0068941Y0022476D01*
X0069989Y0023525D01*
X0071037Y0022476D01*
X0072912Y0021700D01*
X0074940Y0021700D01*
X0076815Y0022476D01*
X0077863Y0023525D01*
X0078911Y0022476D01*
X0080786Y0021700D01*
X0082814Y0021700D01*
X0084689Y0022476D01*
X0085737Y0023525D01*
X0086785Y0022476D01*
X0088660Y0021700D01*
X0090688Y0021700D01*
X0092563Y0022476D01*
X0093611Y0023525D01*
X0094659Y0022476D01*
X0096534Y0021700D01*
X0098562Y0021700D01*
X0100437Y0022476D01*
X0101872Y0023911D01*
X0102648Y0025786D01*
X0102648Y0027814D01*
X0101872Y0029689D01*
X0100437Y0031124D01*
X0098562Y0031900D01*
X0096534Y0031900D01*
X0094659Y0031124D01*
X0093611Y0030075D01*
X0092563Y0031124D01*
X0090688Y0031900D01*
X0088660Y0031900D01*
X0086785Y0031124D01*
X0085737Y0030075D01*
X0084689Y0031124D01*
X0082814Y0031900D01*
X0080786Y0031900D01*
X0078911Y0031124D01*
X0077863Y0030075D01*
X0076815Y0031124D01*
X0074940Y0031900D01*
X0072912Y0031900D01*
X0071037Y0031124D01*
X0069989Y0030075D01*
X0068941Y0031124D01*
X0067066Y0031900D01*
X0065037Y0031900D01*
X0063163Y0031124D01*
X0061728Y0029689D01*
X0060952Y0027814D01*
X0060952Y0025982D02*
X0054093Y0025982D01*
X0052495Y0024384D02*
X0061533Y0024384D01*
X0062854Y0022785D02*
X0050896Y0022785D01*
X0049298Y0021187D02*
X0109600Y0021187D01*
X0109600Y0020889D02*
X0114600Y0015889D01*
X0115889Y0014600D01*
X0162711Y0014600D01*
X0172711Y0024600D01*
X0174000Y0025889D01*
X0174000Y0037786D01*
X0174377Y0037943D01*
X0175657Y0039223D01*
X0176350Y0040895D01*
X0176350Y0042705D01*
X0175657Y0044377D01*
X0174377Y0045657D01*
X0172705Y0046350D01*
X0170895Y0046350D01*
X0169223Y0045657D01*
X0167943Y0044377D01*
X0167786Y0044000D01*
X0160889Y0044000D01*
X0157689Y0040800D01*
X0155143Y0040800D01*
X0152800Y0038457D01*
X0152800Y0035143D01*
X0155143Y0032800D01*
X0158457Y0032800D01*
X0160800Y0035143D01*
X0160800Y0037689D01*
X0162711Y0039600D01*
X0167786Y0039600D01*
X0167943Y0039223D01*
X0169223Y0037943D01*
X0169600Y0037786D01*
X0169600Y0027711D01*
X0160889Y0019000D01*
X0117711Y0019000D01*
X0114000Y0022711D01*
X0114000Y0052711D01*
X0112711Y0054000D01*
X0107894Y0058817D01*
X0107791Y0059066D01*
X0106666Y0060191D01*
X0105196Y0060800D01*
X0098404Y0060800D01*
X0096934Y0060191D01*
X0095809Y0059066D01*
X0095200Y0057596D01*
X0095200Y0056004D01*
X0095809Y0054534D01*
X0096934Y0053409D01*
X0098404Y0052800D01*
X0105196Y0052800D01*
X0106666Y0053409D01*
X0106873Y0053616D01*
X0109600Y0050889D01*
X0109600Y0020889D01*
X0110901Y0019588D02*
X0019412Y0019588D01*
X0019899Y0018411D02*
X0018666Y0021388D01*
X0016388Y0023666D01*
X0013411Y0024899D01*
X0010189Y0024899D01*
X0007212Y0023666D01*
X0004934Y0021388D01*
X0003701Y0018411D01*
X0003701Y0015189D01*
X0004934Y0012212D01*
X0007212Y0009934D01*
X0010189Y0008701D01*
X0013411Y0008701D01*
X0016388Y0009934D01*
X0018666Y0012212D01*
X0019899Y0015189D01*
X0019899Y0018411D01*
X0019899Y0017990D02*
X0112499Y0017990D01*
X0114098Y0016391D02*
X0019899Y0016391D01*
X0019735Y0014793D02*
X0115696Y0014793D01*
X0116800Y0016800D02*
X0161800Y0016800D01*
X0171800Y0026800D01*
X0171800Y0041800D01*
X0161800Y0041800D01*
X0156800Y0036800D01*
X0159632Y0033975D02*
X0169600Y0033975D01*
X0169600Y0035573D02*
X0160800Y0035573D01*
X0160800Y0037172D02*
X0169600Y0037172D01*
X0168395Y0038770D02*
X0161881Y0038770D01*
X0158856Y0041967D02*
X0134000Y0041967D01*
X0134000Y0042800D02*
X0135196Y0042800D01*
X0136666Y0043409D01*
X0137791Y0044534D01*
X0137818Y0044600D01*
X0157711Y0044600D01*
X0190999Y0077888D01*
X0191411Y0077476D01*
X0192537Y0077010D01*
X0192189Y0076897D01*
X0191417Y0076504D01*
X0190717Y0075995D01*
X0190105Y0075383D01*
X0189596Y0074683D01*
X0189203Y0073911D01*
X0188935Y0073088D01*
X0188800Y0072233D01*
X0188800Y0072000D01*
X0194100Y0072000D01*
X0194100Y0071600D01*
X0194500Y0071600D01*
X0194500Y0066300D01*
X0194733Y0066300D01*
X0195588Y0066435D01*
X0196411Y0066703D01*
X0196850Y0066927D01*
X0196850Y0008600D01*
X0003600Y0008600D01*
X0003600Y0067327D01*
X0003917Y0067096D01*
X0004689Y0066703D01*
X0005512Y0066435D01*
X0006367Y0066300D01*
X0006600Y0066300D01*
X0006600Y0071600D01*
X0007000Y0071600D01*
X0007000Y0072000D01*
X0012300Y0072000D01*
X0012300Y0072233D01*
X0012165Y0073088D01*
X0011897Y0073911D01*
X0011504Y0074683D01*
X0010995Y0075383D01*
X0010383Y0075995D01*
X0009683Y0076504D01*
X0008911Y0076897D01*
X0008563Y0077010D01*
X0009689Y0077476D01*
X0011124Y0078911D01*
X0011900Y0080786D01*
X0011900Y0082814D01*
X0011124Y0084689D01*
X0009689Y0086124D01*
X0008056Y0086800D01*
X0009689Y0087476D01*
X0011124Y0088911D01*
X0011409Y0089600D01*
X0033343Y0089600D01*
X0035143Y0087800D01*
X0038457Y0087800D01*
X0040257Y0089600D01*
X0045889Y0089600D01*
X0070889Y0064600D01*
X0095782Y0064600D01*
X0095809Y0064534D01*
X0096934Y0063409D01*
X0098404Y0062800D01*
X0105196Y0062800D01*
X0106666Y0063409D01*
X0107791Y0064534D01*
X0108400Y0066004D01*
X0108400Y0067596D01*
X0107791Y0069066D01*
X0106666Y0070191D01*
X0105196Y0070800D01*
X0098404Y0070800D01*
X0096934Y0070191D01*
X0095809Y0069066D01*
X0095782Y0069000D01*
X0072711Y0069000D01*
X0047711Y0094000D01*
X0040257Y0094000D01*
X0038457Y0095800D01*
X0035143Y0095800D01*
X0033343Y0094000D01*
X0011409Y0094000D01*
X0011124Y0094689D01*
X0009689Y0096124D01*
X0008056Y0096800D01*
X0009689Y0097476D01*
X0011124Y0098911D01*
X0011900Y0100786D01*
X0011900Y0102814D01*
X0011124Y0104689D01*
X0009689Y0106124D01*
X0008056Y0106800D01*
X0009689Y0107476D01*
X0011124Y0108911D01*
X0011409Y0109600D01*
X0087711Y0109600D01*
X0089000Y0110889D01*
X0092711Y0114600D01*
X0095782Y0114600D01*
X0095809Y0114534D01*
X0096934Y0113409D01*
X0098404Y0112800D01*
X0105196Y0112800D01*
X0106666Y0113409D01*
X0107791Y0114534D01*
X0108400Y0116004D01*
X0108400Y0117596D01*
X0107791Y0119066D01*
X0106666Y0120191D01*
X0105196Y0120800D01*
X0098404Y0120800D01*
X0096934Y0120191D01*
X0095809Y0119066D01*
X0095782Y0119000D01*
X0090889Y0119000D01*
X0085889Y0114000D01*
X0011409Y0114000D01*
X0011124Y0114689D01*
X0009689Y0116124D01*
X0008056Y0116800D01*
X0009689Y0117476D01*
X0011124Y0118911D01*
X0011409Y0119600D01*
X0012711Y0119600D01*
X0027711Y0134600D01*
X0045889Y0134600D01*
X0049600Y0130889D01*
X0049600Y0125889D01*
X0050889Y0124600D01*
X0060889Y0114600D01*
X0082711Y0114600D01*
X0092711Y0124600D01*
X0095782Y0124600D01*
X0095809Y0124534D01*
X0096934Y0123409D01*
X0098404Y0122800D01*
X0105196Y0122800D01*
X0106666Y0123409D01*
X0107791Y0124534D01*
X0108400Y0126004D01*
X0108400Y0127596D01*
X0107791Y0129066D01*
X0106666Y0130191D01*
X0105196Y0130800D01*
X0098404Y0130800D01*
X0096934Y0130191D01*
X0095809Y0129066D01*
X0095782Y0129000D01*
X0090889Y0129000D01*
X0080889Y0119000D01*
X0062711Y0119000D01*
X0054000Y0127711D01*
X0054000Y0132711D01*
X0052711Y0134000D01*
X0049000Y0137711D01*
X0047711Y0139000D01*
X0025889Y0139000D01*
X0024600Y0137711D01*
X0011257Y0124368D01*
X0011124Y0124689D01*
X0009689Y0126124D01*
X0008056Y0126800D01*
X0009689Y0127476D01*
X0011124Y0128911D01*
X0011409Y0129600D01*
X0012711Y0129600D01*
X0027711Y0144600D01*
X0029000Y0145889D01*
X0029000Y0175889D01*
X0037711Y0184600D01*
X0080889Y0184600D01*
X0084600Y0180889D01*
X0084600Y0165889D01*
X0085889Y0164600D01*
X0094600Y0155889D01*
X0094600Y0155889D01*
X0095706Y0154783D01*
X0095809Y0154534D01*
X0096934Y0153409D01*
X0098404Y0152800D01*
X0105196Y0152800D01*
X0106666Y0153409D01*
X0107791Y0154534D01*
X0108400Y0156004D01*
X0108400Y0157596D01*
X0107791Y0159066D01*
X0106666Y0160191D01*
X0105196Y0160800D01*
X0098404Y0160800D01*
X0096934Y0160191D01*
X0096727Y0159984D01*
X0089000Y0167711D01*
X0089000Y0182711D01*
X0084000Y0187711D01*
X0082711Y0189000D01*
X0035889Y0189000D01*
X0025889Y0179000D01*
X0025889Y0179000D01*
X0024600Y0177711D01*
X0024600Y0147711D01*
X0011257Y0134368D01*
X0011124Y0134689D01*
X0009689Y0136124D01*
X0008056Y0136800D01*
X0009689Y0137476D01*
X0011124Y0138911D01*
X0011900Y0140786D01*
X0011900Y0142814D01*
X0011615Y0143503D01*
X0012711Y0144600D01*
X0014000Y0145889D01*
X0014000Y0170889D01*
X0032711Y0189600D01*
X0085889Y0189600D01*
X0089600Y0185889D01*
X0089600Y0170889D01*
X0090889Y0169600D01*
X0094600Y0165889D01*
X0095706Y0164783D01*
X0095809Y0164534D01*
X0096934Y0163409D01*
X0098404Y0162800D01*
X0105196Y0162800D01*
X0106666Y0163409D01*
X0107791Y0164534D01*
X0108400Y0166004D01*
X0108400Y0167596D01*
X0107791Y0169066D01*
X0106666Y0170191D01*
X0105196Y0170800D01*
X0098404Y0170800D01*
X0096934Y0170191D01*
X0096727Y0169984D01*
X0094000Y0172711D01*
X0094000Y0187711D01*
X0089000Y0192711D01*
X0087711Y0194000D01*
X0030889Y0194000D01*
X0010889Y0174000D01*
X0009600Y0172711D01*
X0009600Y0147711D01*
X0008503Y0146615D01*
X0007814Y0146900D01*
X0005786Y0146900D01*
X0003911Y0146124D01*
X0003600Y0145812D01*
X0003600Y0201850D01*
X0196850Y0201850D01*
X0196850Y0146264D01*
X0195314Y0146900D01*
X0193286Y0146900D01*
X0192597Y0146615D01*
X0180211Y0159000D01*
X0137818Y0159000D01*
X0137791Y0159066D01*
X0136666Y0160191D01*
X0135196Y0160800D01*
X0128404Y0160800D01*
X0126934Y0160191D01*
X0125809Y0159066D01*
X0125200Y0157596D01*
X0125200Y0156004D01*
X0125809Y0154534D01*
X0126934Y0153409D01*
X0128404Y0152800D01*
X0135196Y0152800D01*
X0136666Y0153409D01*
X0137791Y0154534D01*
X0137818Y0154600D01*
X0178389Y0154600D01*
X0189485Y0143503D01*
X0189200Y0142814D01*
X0189200Y0140786D01*
X0189748Y0139464D01*
X0180211Y0149000D01*
X0137818Y0149000D01*
X0137791Y0149066D01*
X0136666Y0150191D01*
X0135196Y0150800D01*
X0128404Y0150800D01*
X0126934Y0150191D01*
X0125809Y0149066D01*
X0125200Y0147596D01*
X0125200Y0146004D01*
X0125809Y0144534D01*
X0126934Y0143409D01*
X0128404Y0142800D01*
X0135196Y0142800D01*
X0136666Y0143409D01*
X0137791Y0144534D01*
X0137818Y0144600D01*
X0178389Y0144600D01*
X0189485Y0133503D01*
X0189200Y0132814D01*
X0189200Y0130786D01*
X0189748Y0129464D01*
X0180211Y0139000D01*
X0137818Y0139000D01*
X0137791Y0139066D01*
X0136666Y0140191D01*
X0135196Y0140800D01*
X0128404Y0140800D01*
X0126934Y0140191D01*
X0125809Y0139066D01*
X0125200Y0137596D01*
X0125200Y0136004D01*
X0125809Y0134534D01*
X0126934Y0133409D01*
X0128404Y0132800D01*
X0135196Y0132800D01*
X0136666Y0133409D01*
X0137791Y0134534D01*
X0137818Y0134600D01*
X0178389Y0134600D01*
X0189485Y0123503D01*
X0189200Y0122814D01*
X0189200Y0120786D01*
X0189976Y0118911D01*
X0191411Y0117476D01*
X0193044Y0116800D01*
X0191411Y0116124D01*
X0189976Y0114689D01*
X0189200Y0112814D01*
X0189200Y0112311D01*
X0155889Y0079000D01*
X0137818Y0079000D01*
X0137791Y0079066D01*
X0136666Y0080191D01*
X0135196Y0080800D01*
X0128404Y0080800D01*
X0126934Y0080191D01*
X0125809Y0079066D01*
X0125200Y0077596D01*
X0125200Y0076004D01*
X0125809Y0074534D01*
X0126934Y0073409D01*
X0128404Y0072800D01*
X0135196Y0072800D01*
X0136666Y0073409D01*
X0137791Y0074534D01*
X0137818Y0074600D01*
X0157711Y0074600D01*
X0190999Y0107888D01*
X0191411Y0107476D01*
X0193044Y0106800D01*
X0191411Y0106124D01*
X0189976Y0104689D01*
X0189200Y0102814D01*
X0189200Y0102311D01*
X0155889Y0069000D01*
X0137818Y0069000D01*
X0137791Y0069066D01*
X0136666Y0070191D01*
X0135196Y0070800D01*
X0128404Y0070800D01*
X0126934Y0070191D01*
X0125809Y0069066D01*
X0125200Y0067596D01*
X0125200Y0066004D01*
X0125809Y0064534D01*
X0126934Y0063409D01*
X0128404Y0062800D01*
X0135196Y0062800D01*
X0136666Y0063409D01*
X0137791Y0064534D01*
X0137818Y0064600D01*
X0157711Y0064600D01*
X0190999Y0097888D01*
X0191411Y0097476D01*
X0193044Y0096800D01*
X0191411Y0096124D01*
X0189976Y0094689D01*
X0189200Y0092814D01*
X0189200Y0092311D01*
X0155889Y0059000D01*
X0137818Y0059000D01*
X0137791Y0059066D01*
X0136666Y0060191D01*
X0135196Y0060800D01*
X0128404Y0060800D01*
X0126934Y0060191D01*
X0125809Y0059066D01*
X0125200Y0057596D01*
X0125200Y0056004D01*
X0125809Y0054534D01*
X0126934Y0053409D01*
X0128404Y0052800D01*
X0135196Y0052800D01*
X0136666Y0053409D01*
X0137791Y0054534D01*
X0137818Y0054600D01*
X0157711Y0054600D01*
X0159000Y0055889D01*
X0190999Y0087888D01*
X0191411Y0087476D01*
X0193044Y0086800D01*
X0191411Y0086124D01*
X0189976Y0084689D01*
X0189200Y0082814D01*
X0189200Y0082311D01*
X0155889Y0049000D01*
X0137818Y0049000D01*
X0137791Y0049066D01*
X0136666Y0050191D01*
X0135196Y0050800D01*
X0128404Y0050800D01*
X0126934Y0050191D01*
X0125809Y0049066D01*
X0125200Y0047596D01*
X0125200Y0046004D01*
X0125809Y0044534D01*
X0126934Y0043409D01*
X0128404Y0042800D01*
X0129600Y0042800D01*
X0129600Y0033389D01*
X0130300Y0032689D01*
X0130300Y0030143D01*
X0132643Y0027800D01*
X0135957Y0027800D01*
X0138300Y0030143D01*
X0138300Y0033457D01*
X0135957Y0035800D01*
X0134000Y0035800D01*
X0134000Y0042800D01*
X0134000Y0040369D02*
X0139712Y0040369D01*
X0140143Y0040800D02*
X0137800Y0038457D01*
X0137800Y0035143D01*
X0140143Y0032800D01*
X0143457Y0032800D01*
X0145800Y0035143D01*
X0145800Y0038457D01*
X0143457Y0040800D01*
X0140143Y0040800D01*
X0138113Y0038770D02*
X0134000Y0038770D01*
X0134000Y0037172D02*
X0137800Y0037172D01*
X0137800Y0035573D02*
X0136184Y0035573D01*
X0137782Y0033975D02*
X0138968Y0033975D01*
X0138300Y0032376D02*
X0169600Y0032376D01*
X0169600Y0030778D02*
X0159045Y0030778D01*
X0158623Y0031200D02*
X0161200Y0028623D01*
X0161200Y0026800D01*
X0156800Y0026800D01*
X0156800Y0026800D01*
X0156800Y0031200D01*
X0158623Y0031200D01*
X0156800Y0031200D02*
X0154977Y0031200D01*
X0152400Y0028623D01*
X0152400Y0026800D01*
X0156800Y0026800D01*
X0156800Y0026800D01*
X0156800Y0026800D01*
X0156800Y0031200D01*
X0156800Y0030778D02*
X0156800Y0030778D01*
X0156800Y0029179D02*
X0156800Y0029179D01*
X0156800Y0027581D02*
X0156800Y0027581D01*
X0156800Y0026800D02*
X0152400Y0026800D01*
X0152400Y0024977D01*
X0154977Y0022400D01*
X0156800Y0022400D01*
X0158623Y0022400D01*
X0161200Y0024977D01*
X0161200Y0026800D01*
X0156800Y0026800D01*
X0156800Y0022400D01*
X0156800Y0026800D01*
X0156800Y0026800D01*
X0156800Y0025982D02*
X0156800Y0025982D01*
X0156800Y0024384D02*
X0156800Y0024384D01*
X0156800Y0022785D02*
X0156800Y0022785D01*
X0159008Y0022785D02*
X0164674Y0022785D01*
X0166272Y0024384D02*
X0160606Y0024384D01*
X0161200Y0025982D02*
X0167871Y0025982D01*
X0169469Y0027581D02*
X0161200Y0027581D01*
X0160643Y0029179D02*
X0169600Y0029179D01*
X0174000Y0029179D02*
X0196850Y0029179D01*
X0196850Y0027581D02*
X0174000Y0027581D01*
X0174000Y0025982D02*
X0196850Y0025982D01*
X0196850Y0024384D02*
X0189656Y0024384D01*
X0188411Y0024899D02*
X0185189Y0024899D01*
X0182212Y0023666D01*
X0179934Y0021388D01*
X0178701Y0018411D01*
X0178701Y0015189D01*
X0179934Y0012212D01*
X0182212Y0009934D01*
X0185189Y0008701D01*
X0188411Y0008701D01*
X0191388Y0009934D01*
X0193666Y0012212D01*
X0194899Y0015189D01*
X0194899Y0018411D01*
X0193666Y0021388D01*
X0191388Y0023666D01*
X0188411Y0024899D01*
X0192269Y0022785D02*
X0196850Y0022785D01*
X0196850Y0021187D02*
X0193750Y0021187D01*
X0194412Y0019588D02*
X0196850Y0019588D01*
X0196850Y0017990D02*
X0194899Y0017990D01*
X0194899Y0016391D02*
X0196850Y0016391D01*
X0196850Y0014793D02*
X0194735Y0014793D01*
X0194073Y0013194D02*
X0196850Y0013194D01*
X0196850Y0011596D02*
X0193050Y0011596D01*
X0191451Y0009997D02*
X0196850Y0009997D01*
X0182149Y0009997D02*
X0016451Y0009997D01*
X0018050Y0011596D02*
X0180550Y0011596D01*
X0179527Y0013194D02*
X0019073Y0013194D01*
X0018750Y0021187D02*
X0029302Y0021187D01*
X0029600Y0020889D02*
X0030889Y0019600D01*
X0047711Y0019600D01*
X0062711Y0034600D01*
X0092711Y0034600D01*
X0100911Y0042800D01*
X0105196Y0042800D01*
X0106666Y0043409D01*
X0107791Y0044534D01*
X0108400Y0046004D01*
X0108400Y0047596D01*
X0107791Y0049066D01*
X0106666Y0050191D01*
X0105196Y0050800D01*
X0098404Y0050800D01*
X0096934Y0050191D01*
X0095809Y0049066D01*
X0095200Y0047596D01*
X0095200Y0046004D01*
X0095809Y0044534D01*
X0096116Y0044227D01*
X0090889Y0039000D01*
X0060889Y0039000D01*
X0045889Y0024000D01*
X0032711Y0024000D01*
X0029000Y0027711D01*
X0029000Y0037385D01*
X0031312Y0039697D01*
X0031364Y0039676D01*
X0032580Y0039676D01*
X0032612Y0039476D01*
X0032824Y0038821D01*
X0033137Y0038208D01*
X0033542Y0037651D01*
X0034029Y0037164D01*
X0034586Y0036759D01*
X0035199Y0036446D01*
X0035854Y0036234D01*
X0036534Y0036126D01*
X0036879Y0036126D01*
X0037223Y0036126D01*
X0037903Y0036234D01*
X0038558Y0036446D01*
X0039172Y0036759D01*
X0039729Y0037164D01*
X0040216Y0037651D01*
X0040620Y0038208D01*
X0040933Y0038821D01*
X0041146Y0039476D01*
X0041254Y0040156D01*
X0041254Y0040501D01*
X0041254Y0040845D01*
X0041146Y0041525D01*
X0040933Y0042180D01*
X0040620Y0042794D01*
X0040216Y0043351D01*
X0039729Y0043838D01*
X0039618Y0043918D01*
X0040248Y0044548D01*
X0040270Y0044600D01*
X0064501Y0044600D01*
X0064998Y0044103D01*
X0066167Y0043619D01*
X0067433Y0043619D01*
X0068602Y0044103D01*
X0069497Y0044998D01*
X0069981Y0046167D01*
X0069981Y0047433D01*
X0069497Y0048602D01*
X0068602Y0049497D01*
X0067433Y0049981D01*
X0066167Y0049981D01*
X0064998Y0049497D01*
X0064501Y0049000D01*
X0040270Y0049000D01*
X0040248Y0049052D01*
X0039350Y0049950D01*
X0040248Y0050848D01*
X0040854Y0052309D01*
X0040854Y0053890D01*
X0040248Y0055351D01*
X0039130Y0056469D01*
X0037669Y0057074D01*
X0036088Y0057074D01*
X0034627Y0056469D01*
X0033509Y0055351D01*
X0032918Y0053924D01*
X0031364Y0053924D01*
X0029903Y0053319D01*
X0028785Y0052201D01*
X0028180Y0050740D01*
X0028180Y0049159D01*
X0028785Y0047698D01*
X0029683Y0046800D01*
X0028785Y0045902D01*
X0028180Y0044441D01*
X0028180Y0042860D01*
X0028201Y0042808D01*
X0024600Y0039207D01*
X0024600Y0025889D01*
X0025889Y0024600D01*
X0029600Y0020889D01*
X0031800Y0021800D02*
X0046800Y0021800D01*
X0061800Y0036800D01*
X0091800Y0036800D01*
X0101800Y0046800D01*
X0100079Y0041967D02*
X0109600Y0041967D01*
X0109600Y0040369D02*
X0098480Y0040369D01*
X0096881Y0038770D02*
X0109600Y0038770D01*
X0109600Y0037172D02*
X0095283Y0037172D01*
X0093684Y0035573D02*
X0109600Y0035573D01*
X0109600Y0033975D02*
X0062086Y0033975D01*
X0060487Y0032376D02*
X0109600Y0032376D01*
X0109600Y0030778D02*
X0100783Y0030778D01*
X0102083Y0029179D02*
X0109600Y0029179D01*
X0109600Y0027581D02*
X0102648Y0027581D01*
X0102648Y0025982D02*
X0109600Y0025982D01*
X0109600Y0024384D02*
X0102067Y0024384D01*
X0100746Y0022785D02*
X0109600Y0022785D01*
X0111800Y0021800D02*
X0116800Y0016800D01*
X0117123Y0019588D02*
X0161477Y0019588D01*
X0163075Y0021187D02*
X0115525Y0021187D01*
X0114000Y0022785D02*
X0119592Y0022785D01*
X0119977Y0022400D02*
X0117400Y0024977D01*
X0117400Y0026800D01*
X0121800Y0026800D01*
X0121800Y0026800D01*
X0121800Y0031200D01*
X0123623Y0031200D01*
X0126200Y0028623D01*
X0126200Y0026800D01*
X0121800Y0026800D01*
X0121800Y0026800D01*
X0121800Y0026800D01*
X0121800Y0031200D01*
X0119977Y0031200D01*
X0117400Y0028623D01*
X0117400Y0026800D01*
X0121800Y0026800D01*
X0126200Y0026800D01*
X0126200Y0024977D01*
X0123623Y0022400D01*
X0121800Y0022400D01*
X0121800Y0026800D01*
X0121800Y0026800D01*
X0121800Y0022400D01*
X0119977Y0022400D01*
X0121800Y0022785D02*
X0121800Y0022785D01*
X0121800Y0024384D02*
X0121800Y0024384D01*
X0121800Y0025982D02*
X0121800Y0025982D01*
X0121800Y0027581D02*
X0121800Y0027581D01*
X0121800Y0029179D02*
X0121800Y0029179D01*
X0121800Y0030778D02*
X0121800Y0030778D01*
X0124045Y0030778D02*
X0130300Y0030778D01*
X0130300Y0032376D02*
X0114000Y0032376D01*
X0114000Y0030778D02*
X0119555Y0030778D01*
X0120143Y0032800D02*
X0123457Y0032800D01*
X0125800Y0035143D01*
X0125800Y0038457D01*
X0123457Y0040800D01*
X0120143Y0040800D01*
X0117800Y0038457D01*
X0117800Y0035143D01*
X0120143Y0032800D01*
X0118968Y0033975D02*
X0114000Y0033975D01*
X0114000Y0035573D02*
X0117800Y0035573D01*
X0117800Y0037172D02*
X0114000Y0037172D01*
X0114000Y0038770D02*
X0118113Y0038770D01*
X0119712Y0040369D02*
X0114000Y0040369D01*
X0114000Y0041967D02*
X0129600Y0041967D01*
X0129600Y0040369D02*
X0123888Y0040369D01*
X0125487Y0038770D02*
X0129600Y0038770D01*
X0129600Y0037172D02*
X0125800Y0037172D01*
X0125800Y0035573D02*
X0129600Y0035573D01*
X0129600Y0033975D02*
X0124632Y0033975D01*
X0125643Y0029179D02*
X0131264Y0029179D01*
X0134300Y0031800D02*
X0131800Y0034300D01*
X0131800Y0046800D01*
X0156800Y0046800D01*
X0191800Y0081800D01*
X0194300Y0081800D01*
X0189496Y0083529D02*
X0186640Y0083529D01*
X0188238Y0085127D02*
X0190415Y0085127D01*
X0189837Y0086726D02*
X0192864Y0086726D01*
X0188819Y0081930D02*
X0185041Y0081930D01*
X0183443Y0080332D02*
X0187220Y0080332D01*
X0185622Y0078733D02*
X0181844Y0078733D01*
X0180246Y0077134D02*
X0184023Y0077134D01*
X0182425Y0075536D02*
X0178647Y0075536D01*
X0177049Y0073937D02*
X0180826Y0073937D01*
X0179228Y0072339D02*
X0175450Y0072339D01*
X0173852Y0070740D02*
X0177629Y0070740D01*
X0176031Y0069142D02*
X0172253Y0069142D01*
X0170655Y0067543D02*
X0174432Y0067543D01*
X0172834Y0065945D02*
X0169056Y0065945D01*
X0167458Y0064346D02*
X0171235Y0064346D01*
X0169637Y0062748D02*
X0165859Y0062748D01*
X0164261Y0061149D02*
X0168038Y0061149D01*
X0166440Y0059551D02*
X0162662Y0059551D01*
X0161064Y0057952D02*
X0164841Y0057952D01*
X0163243Y0056354D02*
X0159465Y0056354D01*
X0159000Y0055889D02*
X0159000Y0055889D01*
X0157867Y0054755D02*
X0161644Y0054755D01*
X0160046Y0053157D02*
X0136057Y0053157D01*
X0136897Y0049960D02*
X0156849Y0049960D01*
X0158447Y0051558D02*
X0114000Y0051558D01*
X0114000Y0049960D02*
X0126703Y0049960D01*
X0125517Y0048361D02*
X0114000Y0048361D01*
X0114000Y0046763D02*
X0125200Y0046763D01*
X0125548Y0045164D02*
X0114000Y0045164D01*
X0114000Y0043566D02*
X0126777Y0043566D01*
X0127543Y0053157D02*
X0113554Y0053157D01*
X0111800Y0051800D02*
X0111800Y0021800D01*
X0114000Y0024384D02*
X0117994Y0024384D01*
X0117400Y0025982D02*
X0114000Y0025982D01*
X0114000Y0027581D02*
X0117400Y0027581D01*
X0117957Y0029179D02*
X0114000Y0029179D01*
X0124008Y0022785D02*
X0139592Y0022785D01*
X0139977Y0022400D02*
X0137400Y0024977D01*
X0137400Y0026800D01*
X0141800Y0026800D01*
X0141800Y0026800D01*
X0141800Y0031200D01*
X0143623Y0031200D01*
X0146200Y0028623D01*
X0146200Y0026800D01*
X0141800Y0026800D01*
X0141800Y0026800D01*
X0141800Y0026800D01*
X0141800Y0031200D01*
X0139977Y0031200D01*
X0137400Y0028623D01*
X0137400Y0026800D01*
X0141800Y0026800D01*
X0146200Y0026800D01*
X0146200Y0024977D01*
X0143623Y0022400D01*
X0141800Y0022400D01*
X0141800Y0026800D01*
X0141800Y0026800D01*
X0141800Y0022400D01*
X0139977Y0022400D01*
X0141800Y0022785D02*
X0141800Y0022785D01*
X0141800Y0024384D02*
X0141800Y0024384D01*
X0141800Y0025982D02*
X0141800Y0025982D01*
X0141800Y0027581D02*
X0141800Y0027581D01*
X0141800Y0029179D02*
X0141800Y0029179D01*
X0141800Y0030778D02*
X0141800Y0030778D01*
X0144045Y0030778D02*
X0154555Y0030778D01*
X0152957Y0029179D02*
X0145643Y0029179D01*
X0146200Y0027581D02*
X0152400Y0027581D01*
X0152400Y0025982D02*
X0146200Y0025982D01*
X0145606Y0024384D02*
X0152994Y0024384D01*
X0154592Y0022785D02*
X0144008Y0022785D01*
X0137994Y0024384D02*
X0125606Y0024384D01*
X0126200Y0025982D02*
X0137400Y0025982D01*
X0137400Y0027581D02*
X0126200Y0027581D01*
X0137336Y0029179D02*
X0137957Y0029179D01*
X0138300Y0030778D02*
X0139555Y0030778D01*
X0144632Y0033975D02*
X0153968Y0033975D01*
X0152800Y0035573D02*
X0145800Y0035573D01*
X0145800Y0037172D02*
X0152800Y0037172D01*
X0153113Y0038770D02*
X0145487Y0038770D01*
X0143888Y0040369D02*
X0154712Y0040369D01*
X0158276Y0045164D02*
X0168730Y0045164D01*
X0163071Y0049960D02*
X0196850Y0049960D01*
X0196850Y0051558D02*
X0164670Y0051558D01*
X0166268Y0053157D02*
X0196850Y0053157D01*
X0196850Y0054755D02*
X0167867Y0054755D01*
X0169465Y0056354D02*
X0196850Y0056354D01*
X0196850Y0057952D02*
X0171064Y0057952D01*
X0172662Y0059551D02*
X0196850Y0059551D01*
X0196850Y0061149D02*
X0174261Y0061149D01*
X0175859Y0062748D02*
X0196850Y0062748D01*
X0196850Y0064346D02*
X0177458Y0064346D01*
X0179056Y0065945D02*
X0196850Y0065945D01*
X0194100Y0066300D02*
X0194100Y0071600D01*
X0188800Y0071600D01*
X0188800Y0071367D01*
X0188935Y0070512D01*
X0189203Y0069689D01*
X0189596Y0068917D01*
X0190105Y0068217D01*
X0190717Y0067605D01*
X0191417Y0067096D01*
X0192189Y0066703D01*
X0193012Y0066435D01*
X0193867Y0066300D01*
X0194100Y0066300D01*
X0194100Y0067543D02*
X0194500Y0067543D01*
X0194500Y0069142D02*
X0194100Y0069142D01*
X0194100Y0070740D02*
X0194500Y0070740D01*
X0190802Y0067543D02*
X0180655Y0067543D01*
X0182253Y0069142D02*
X0189482Y0069142D01*
X0188899Y0070740D02*
X0183852Y0070740D01*
X0185450Y0072339D02*
X0188817Y0072339D01*
X0189216Y0073937D02*
X0187049Y0073937D01*
X0188647Y0075536D02*
X0190258Y0075536D01*
X0190246Y0077134D02*
X0192237Y0077134D01*
X0183614Y0086726D02*
X0179837Y0086726D01*
X0181435Y0088324D02*
X0185213Y0088324D01*
X0186811Y0089923D02*
X0183034Y0089923D01*
X0184632Y0091521D02*
X0188410Y0091521D01*
X0189326Y0093120D02*
X0186231Y0093120D01*
X0187829Y0094718D02*
X0190006Y0094718D01*
X0189428Y0096317D02*
X0191877Y0096317D01*
X0191800Y0091800D02*
X0194300Y0091800D01*
X0191800Y0091800D02*
X0156800Y0056800D01*
X0131800Y0056800D01*
X0126294Y0059551D02*
X0107306Y0059551D01*
X0108759Y0057952D02*
X0125348Y0057952D01*
X0125200Y0056354D02*
X0110357Y0056354D01*
X0111956Y0054755D02*
X0125717Y0054755D01*
X0125997Y0064346D02*
X0107603Y0064346D01*
X0108375Y0065945D02*
X0125225Y0065945D01*
X0125200Y0067543D02*
X0108400Y0067543D01*
X0107715Y0069142D02*
X0125885Y0069142D01*
X0128261Y0070740D02*
X0105339Y0070740D01*
X0105196Y0072800D02*
X0106666Y0073409D01*
X0107791Y0074534D01*
X0108400Y0076004D01*
X0108400Y0077596D01*
X0107791Y0079066D01*
X0106666Y0080191D01*
X0105196Y0080800D01*
X0098404Y0080800D01*
X0096934Y0080191D01*
X0095809Y0079066D01*
X0095706Y0078817D01*
X0090889Y0074000D01*
X0077711Y0074000D01*
X0065800Y0085911D01*
X0065800Y0088457D01*
X0063457Y0090800D01*
X0060143Y0090800D01*
X0057800Y0088457D01*
X0057800Y0085143D01*
X0060143Y0082800D01*
X0062689Y0082800D01*
X0074600Y0070889D01*
X0075889Y0069600D01*
X0092711Y0069600D01*
X0094000Y0070889D01*
X0096727Y0073616D01*
X0096934Y0073409D01*
X0098404Y0072800D01*
X0105196Y0072800D01*
X0107194Y0073937D02*
X0126406Y0073937D01*
X0125394Y0075536D02*
X0108206Y0075536D01*
X0108400Y0077134D02*
X0125200Y0077134D01*
X0125671Y0078733D02*
X0107929Y0078733D01*
X0106327Y0080332D02*
X0127273Y0080332D01*
X0128170Y0082508D02*
X0128854Y0082400D01*
X0131800Y0082400D01*
X0134746Y0082400D01*
X0135430Y0082508D01*
X0136089Y0082722D01*
X0136706Y0083037D01*
X0137266Y0083444D01*
X0137711Y0083889D01*
X0139750Y0081850D01*
X0141800Y0081850D01*
X0143850Y0081850D01*
X0146750Y0084750D01*
X0146750Y0086800D01*
X0146750Y0088850D01*
X0143850Y0091750D01*
X0141800Y0091750D01*
X0141800Y0086800D01*
X0141800Y0086800D01*
X0146750Y0086800D01*
X0141800Y0086800D01*
X0141800Y0086800D01*
X0141800Y0091750D01*
X0139750Y0091750D01*
X0137711Y0089711D01*
X0137266Y0090156D01*
X0136706Y0090563D01*
X0136089Y0090878D01*
X0135430Y0091092D01*
X0134746Y0091200D01*
X0131800Y0091200D01*
X0131800Y0086800D01*
X0131800Y0086800D01*
X0138800Y0086800D01*
X0141800Y0086800D01*
X0141800Y0081850D01*
X0141800Y0086800D01*
X0141800Y0086800D01*
X0141800Y0086800D01*
X0131800Y0086800D01*
X0131800Y0086800D01*
X0131800Y0091200D01*
X0128854Y0091200D01*
X0128170Y0091092D01*
X0127511Y0090878D01*
X0126894Y0090563D01*
X0126334Y0090156D01*
X0125844Y0089666D01*
X0125437Y0089106D01*
X0125122Y0088489D01*
X0124908Y0087830D01*
X0124800Y0087146D01*
X0124800Y0086800D01*
X0131800Y0086800D01*
X0131800Y0082400D01*
X0131800Y0086800D01*
X0131800Y0086800D01*
X0131800Y0086800D01*
X0124800Y0086800D01*
X0124800Y0086454D01*
X0124908Y0085770D01*
X0125122Y0085111D01*
X0125437Y0084494D01*
X0125844Y0083934D01*
X0126334Y0083444D01*
X0126894Y0083037D01*
X0127511Y0082722D01*
X0128170Y0082508D01*
X0126249Y0083529D02*
X0106785Y0083529D01*
X0106666Y0083409D02*
X0107791Y0084534D01*
X0108400Y0086004D01*
X0108400Y0087596D01*
X0107791Y0089066D01*
X0106666Y0090191D01*
X0105196Y0090800D01*
X0098404Y0090800D01*
X0096934Y0090191D01*
X0095809Y0089066D01*
X0095200Y0087596D01*
X0095200Y0086004D01*
X0095809Y0084534D01*
X0096934Y0083409D01*
X0098404Y0082800D01*
X0105196Y0082800D01*
X0106666Y0083409D01*
X0108037Y0085127D02*
X0125117Y0085127D01*
X0124800Y0086726D02*
X0108400Y0086726D01*
X0108098Y0088324D02*
X0125069Y0088324D01*
X0126100Y0089923D02*
X0106934Y0089923D01*
X0105967Y0093120D02*
X0127633Y0093120D01*
X0126934Y0093409D02*
X0128404Y0092800D01*
X0135196Y0092800D01*
X0136666Y0093409D01*
X0137791Y0094534D01*
X0137802Y0094561D01*
X0137943Y0094223D01*
X0139223Y0092943D01*
X0140895Y0092250D01*
X0142705Y0092250D01*
X0144377Y0092943D01*
X0145657Y0094223D01*
X0146350Y0095895D01*
X0146350Y0097705D01*
X0145657Y0099377D01*
X0144377Y0100657D01*
X0142705Y0101350D01*
X0140895Y0101350D01*
X0139223Y0100657D01*
X0137943Y0099377D01*
X0137802Y0099038D01*
X0137791Y0099066D01*
X0136666Y0100191D01*
X0135196Y0100800D01*
X0128404Y0100800D01*
X0126934Y0100191D01*
X0125809Y0099066D01*
X0125200Y0097596D01*
X0125200Y0096004D01*
X0125809Y0094534D01*
X0126934Y0093409D01*
X0125733Y0094718D02*
X0107867Y0094718D01*
X0107791Y0094534D02*
X0108400Y0096004D01*
X0108400Y0097596D01*
X0107791Y0099066D01*
X0106666Y0100191D01*
X0105196Y0100800D01*
X0098404Y0100800D01*
X0096934Y0100191D01*
X0095809Y0099066D01*
X0095200Y0097596D01*
X0095200Y0096004D01*
X0095809Y0094534D01*
X0096934Y0093409D01*
X0098404Y0092800D01*
X0105196Y0092800D01*
X0106666Y0093409D01*
X0107791Y0094534D01*
X0108400Y0096317D02*
X0125200Y0096317D01*
X0125332Y0097915D02*
X0108268Y0097915D01*
X0107343Y0099514D02*
X0126257Y0099514D01*
X0128404Y0102800D02*
X0126934Y0103409D01*
X0125809Y0104534D01*
X0125200Y0106004D01*
X0125200Y0107596D01*
X0125809Y0109066D01*
X0126934Y0110191D01*
X0128404Y0110800D01*
X0135196Y0110800D01*
X0136666Y0110191D01*
X0137791Y0109066D01*
X0138400Y0107596D01*
X0138400Y0106004D01*
X0137791Y0104534D01*
X0136666Y0103409D01*
X0135196Y0102800D01*
X0128404Y0102800D01*
X0126034Y0104309D02*
X0108029Y0104309D01*
X0108163Y0104494D02*
X0108478Y0105111D01*
X0108692Y0105770D01*
X0108800Y0106454D01*
X0108800Y0106800D01*
X0108800Y0107146D01*
X0108692Y0107830D01*
X0108478Y0108489D01*
X0108163Y0109106D01*
X0107756Y0109666D01*
X0107266Y0110156D01*
X0106706Y0110563D01*
X0106089Y0110878D01*
X0105430Y0111092D01*
X0104746Y0111200D01*
X0101800Y0111200D01*
X0101800Y0106800D01*
X0101800Y0106800D01*
X0108800Y0106800D01*
X0101800Y0106800D01*
X0101800Y0106800D01*
X0101800Y0102400D01*
X0104746Y0102400D01*
X0105430Y0102508D01*
X0106089Y0102722D01*
X0106706Y0103037D01*
X0107266Y0103444D01*
X0107756Y0103934D01*
X0108163Y0104494D01*
X0108714Y0105908D02*
X0125240Y0105908D01*
X0125200Y0107506D02*
X0108743Y0107506D01*
X0108164Y0109105D02*
X0125848Y0109105D01*
X0128171Y0110703D02*
X0106431Y0110703D01*
X0107157Y0113900D02*
X0126443Y0113900D01*
X0126934Y0113409D02*
X0128404Y0112800D01*
X0135196Y0112800D01*
X0136666Y0113409D01*
X0137791Y0114534D01*
X0138400Y0116004D01*
X0138400Y0117596D01*
X0137791Y0119066D01*
X0136666Y0120191D01*
X0135196Y0120800D01*
X0128404Y0120800D01*
X0126934Y0120191D01*
X0125809Y0119066D01*
X0125200Y0117596D01*
X0125200Y0116004D01*
X0125809Y0114534D01*
X0126934Y0113409D01*
X0125409Y0115499D02*
X0108191Y0115499D01*
X0108400Y0117097D02*
X0125200Y0117097D01*
X0125656Y0118696D02*
X0107944Y0118696D01*
X0106416Y0120294D02*
X0127184Y0120294D01*
X0128404Y0122800D02*
X0135196Y0122800D01*
X0136666Y0123409D01*
X0137791Y0124534D01*
X0137972Y0124971D01*
X0140143Y0122800D01*
X0143457Y0122800D01*
X0145800Y0125143D01*
X0145800Y0128457D01*
X0143457Y0130800D01*
X0140143Y0130800D01*
X0137972Y0128629D01*
X0137791Y0129066D01*
X0136666Y0130191D01*
X0135196Y0130800D01*
X0128404Y0130800D01*
X0126934Y0130191D01*
X0125809Y0129066D01*
X0125200Y0127596D01*
X0125200Y0126004D01*
X0125809Y0124534D01*
X0126934Y0123409D01*
X0128404Y0122800D01*
X0126852Y0123491D02*
X0106748Y0123491D01*
X0108021Y0125090D02*
X0125579Y0125090D01*
X0125200Y0126688D02*
X0108400Y0126688D01*
X0108114Y0128287D02*
X0125486Y0128287D01*
X0126629Y0129885D02*
X0106971Y0129885D01*
X0105877Y0133082D02*
X0127723Y0133082D01*
X0125748Y0134681D02*
X0107852Y0134681D01*
X0107791Y0134534D02*
X0108400Y0136004D01*
X0108400Y0137596D01*
X0107791Y0139066D01*
X0106666Y0140191D01*
X0105196Y0140800D01*
X0098404Y0140800D01*
X0096934Y0140191D01*
X0095809Y0139066D01*
X0095200Y0137596D01*
X0095200Y0136004D01*
X0095809Y0134534D01*
X0096934Y0133409D01*
X0098404Y0132800D01*
X0105196Y0132800D01*
X0106666Y0133409D01*
X0107791Y0134534D01*
X0108400Y0136279D02*
X0125200Y0136279D01*
X0125317Y0137878D02*
X0108283Y0137878D01*
X0107380Y0139476D02*
X0126220Y0139476D01*
X0126071Y0144272D02*
X0107529Y0144272D01*
X0107791Y0144534D02*
X0108400Y0146004D01*
X0108400Y0147596D01*
X0107791Y0149066D01*
X0106666Y0150191D01*
X0105196Y0150800D01*
X0098404Y0150800D01*
X0096934Y0150191D01*
X0095809Y0149066D01*
X0095200Y0147596D01*
X0095200Y0146004D01*
X0095809Y0144534D01*
X0096934Y0143409D01*
X0098404Y0142800D01*
X0105196Y0142800D01*
X0106666Y0143409D01*
X0107791Y0144534D01*
X0108345Y0145870D02*
X0125255Y0145870D01*
X0125200Y0147469D02*
X0108400Y0147469D01*
X0107789Y0149068D02*
X0125811Y0149068D01*
X0128081Y0150666D02*
X0105519Y0150666D01*
X0107120Y0153863D02*
X0126480Y0153863D01*
X0125425Y0155462D02*
X0108175Y0155462D01*
X0108400Y0157060D02*
X0125200Y0157060D01*
X0125640Y0158659D02*
X0107960Y0158659D01*
X0106506Y0160257D02*
X0127094Y0160257D01*
X0128170Y0162508D02*
X0128854Y0162400D01*
X0131800Y0162400D01*
X0134746Y0162400D01*
X0135430Y0162508D01*
X0136089Y0162722D01*
X0136706Y0163037D01*
X0137266Y0163444D01*
X0137756Y0163934D01*
X0138163Y0164494D01*
X0138478Y0165111D01*
X0138692Y0165770D01*
X0138800Y0166454D01*
X0138800Y0166800D01*
X0138800Y0167146D01*
X0138692Y0167830D01*
X0138478Y0168489D01*
X0138163Y0169106D01*
X0137756Y0169666D01*
X0137266Y0170156D01*
X0136706Y0170563D01*
X0136089Y0170878D01*
X0135430Y0171092D01*
X0134746Y0171200D01*
X0131800Y0171200D01*
X0131800Y0166800D01*
X0131800Y0166800D01*
X0138800Y0166800D01*
X0131800Y0166800D01*
X0131800Y0166800D01*
X0131800Y0162400D01*
X0131800Y0166800D01*
X0131800Y0166800D01*
X0131800Y0166800D01*
X0124800Y0166800D01*
X0124800Y0167146D01*
X0124908Y0167830D01*
X0125122Y0168489D01*
X0125437Y0169106D01*
X0125844Y0169666D01*
X0126334Y0170156D01*
X0126894Y0170563D01*
X0127511Y0170878D01*
X0128170Y0171092D01*
X0128854Y0171200D01*
X0131800Y0171200D01*
X0131800Y0166800D01*
X0124800Y0166800D01*
X0124800Y0166454D01*
X0124908Y0165770D01*
X0125122Y0165111D01*
X0125437Y0164494D01*
X0125844Y0163934D01*
X0126334Y0163444D01*
X0126894Y0163037D01*
X0127511Y0162722D01*
X0128170Y0162508D01*
X0126323Y0163454D02*
X0106711Y0163454D01*
X0108006Y0165053D02*
X0125152Y0165053D01*
X0124800Y0166651D02*
X0108400Y0166651D01*
X0108129Y0168250D02*
X0125045Y0168250D01*
X0126026Y0169848D02*
X0107009Y0169848D01*
X0105788Y0173045D02*
X0127812Y0173045D01*
X0128404Y0172800D02*
X0126934Y0173409D01*
X0125809Y0174534D01*
X0125200Y0176004D01*
X0125200Y0177596D01*
X0125809Y0179066D01*
X0126934Y0180191D01*
X0128404Y0180800D01*
X0135196Y0180800D01*
X0136666Y0180191D01*
X0137791Y0179066D01*
X0137972Y0178629D01*
X0140143Y0180800D01*
X0143457Y0180800D01*
X0145800Y0178457D01*
X0145800Y0175143D01*
X0143457Y0172800D01*
X0140143Y0172800D01*
X0137972Y0174971D01*
X0137791Y0174534D01*
X0136666Y0173409D01*
X0135196Y0172800D01*
X0128404Y0172800D01*
X0131800Y0169848D02*
X0131800Y0169848D01*
X0131800Y0168250D02*
X0131800Y0168250D01*
X0131800Y0166651D02*
X0131800Y0166651D01*
X0131800Y0165053D02*
X0131800Y0165053D01*
X0131800Y0163454D02*
X0131800Y0163454D01*
X0137277Y0163454D02*
X0196850Y0163454D01*
X0196850Y0161856D02*
X0094856Y0161856D01*
X0093257Y0163454D02*
X0096889Y0163454D01*
X0095436Y0165053D02*
X0091659Y0165053D01*
X0090060Y0166651D02*
X0093838Y0166651D01*
X0092239Y0168250D02*
X0089000Y0168250D01*
X0089000Y0169848D02*
X0090641Y0169848D01*
X0089600Y0171447D02*
X0089000Y0171447D01*
X0089000Y0173045D02*
X0089600Y0173045D01*
X0089600Y0174644D02*
X0089000Y0174644D01*
X0089000Y0176242D02*
X0089600Y0176242D01*
X0089600Y0177841D02*
X0089000Y0177841D01*
X0089000Y0179439D02*
X0089600Y0179439D01*
X0089600Y0181038D02*
X0089000Y0181038D01*
X0089000Y0182636D02*
X0089600Y0182636D01*
X0089600Y0184235D02*
X0087477Y0184235D01*
X0085878Y0185833D02*
X0089600Y0185833D01*
X0088057Y0187432D02*
X0084279Y0187432D01*
X0081800Y0186800D02*
X0036800Y0186800D01*
X0026800Y0176800D01*
X0026800Y0146800D01*
X0011800Y0131800D01*
X0006800Y0131800D01*
X0010499Y0128287D02*
X0015176Y0128287D01*
X0016774Y0129885D02*
X0012997Y0129885D01*
X0014595Y0131484D02*
X0018373Y0131484D01*
X0019971Y0133082D02*
X0016194Y0133082D01*
X0017792Y0134681D02*
X0021570Y0134681D01*
X0023168Y0136279D02*
X0019391Y0136279D01*
X0020989Y0137878D02*
X0024767Y0137878D01*
X0026800Y0136800D02*
X0046800Y0136800D01*
X0051800Y0131800D01*
X0051800Y0126800D01*
X0061800Y0116800D01*
X0081800Y0116800D01*
X0091800Y0126800D01*
X0101800Y0126800D01*
X0096852Y0123491D02*
X0091603Y0123491D01*
X0090004Y0121893D02*
X0189200Y0121893D01*
X0189403Y0120294D02*
X0136416Y0120294D01*
X0137944Y0118696D02*
X0190192Y0118696D01*
X0192326Y0117097D02*
X0138400Y0117097D01*
X0138191Y0115499D02*
X0190786Y0115499D01*
X0189650Y0113900D02*
X0137157Y0113900D01*
X0135429Y0110703D02*
X0187592Y0110703D01*
X0185993Y0109105D02*
X0137752Y0109105D01*
X0138400Y0107506D02*
X0184395Y0107506D01*
X0182796Y0105908D02*
X0138360Y0105908D01*
X0137566Y0104309D02*
X0181198Y0104309D01*
X0179599Y0102711D02*
X0106053Y0102711D01*
X0101800Y0102711D02*
X0101800Y0102711D01*
X0101800Y0102400D02*
X0101800Y0106800D01*
X0101800Y0106800D01*
X0101800Y0106800D01*
X0094800Y0106800D01*
X0094800Y0107146D01*
X0094908Y0107830D01*
X0095122Y0108489D01*
X0095437Y0109106D01*
X0095844Y0109666D01*
X0096334Y0110156D01*
X0096894Y0110563D01*
X0097511Y0110878D01*
X0098170Y0111092D01*
X0098854Y0111200D01*
X0101800Y0111200D01*
X0101800Y0106800D01*
X0094800Y0106800D01*
X0094800Y0106454D01*
X0094908Y0105770D01*
X0095122Y0105111D01*
X0095437Y0104494D01*
X0095844Y0103934D01*
X0096334Y0103444D01*
X0096894Y0103037D01*
X0097511Y0102722D01*
X0098170Y0102508D01*
X0098854Y0102400D01*
X0101800Y0102400D01*
X0101800Y0104309D02*
X0101800Y0104309D01*
X0101800Y0105908D02*
X0101800Y0105908D01*
X0101800Y0107506D02*
X0101800Y0107506D01*
X0101800Y0109105D02*
X0101800Y0109105D01*
X0101800Y0110703D02*
X0101800Y0110703D01*
X0101800Y0116800D02*
X0091800Y0116800D01*
X0086800Y0111800D01*
X0006800Y0111800D01*
X0010314Y0115499D02*
X0059990Y0115499D01*
X0058391Y0117097D02*
X0044684Y0117097D01*
X0044683Y0117096D02*
X0045383Y0117605D01*
X0045995Y0118217D01*
X0046504Y0118917D01*
X0046897Y0119689D01*
X0047165Y0120512D01*
X0047300Y0121367D01*
X0047300Y0121600D01*
X0042000Y0121600D01*
X0042000Y0122000D01*
X0047300Y0122000D01*
X0047300Y0122233D01*
X0047165Y0123088D01*
X0046897Y0123911D01*
X0046504Y0124683D01*
X0045995Y0125383D01*
X0045383Y0125995D01*
X0044683Y0126504D01*
X0043911Y0126897D01*
X0043088Y0127165D01*
X0042233Y0127300D01*
X0042000Y0127300D01*
X0042000Y0122000D01*
X0041600Y0122000D01*
X0041600Y0127300D01*
X0041367Y0127300D01*
X0040512Y0127165D01*
X0039689Y0126897D01*
X0038917Y0126504D01*
X0038217Y0125995D01*
X0037605Y0125383D01*
X0037096Y0124683D01*
X0036703Y0123911D01*
X0036435Y0123088D01*
X0036300Y0122233D01*
X0036300Y0122000D01*
X0041600Y0122000D01*
X0041600Y0121600D01*
X0042000Y0121600D01*
X0042000Y0116300D01*
X0042233Y0116300D01*
X0043088Y0116435D01*
X0043911Y0116703D01*
X0044683Y0117096D01*
X0046343Y0118696D02*
X0056793Y0118696D01*
X0055194Y0120294D02*
X0047094Y0120294D01*
X0047033Y0123491D02*
X0051997Y0123491D01*
X0050399Y0125090D02*
X0046208Y0125090D01*
X0044321Y0126688D02*
X0049600Y0126688D01*
X0049600Y0128287D02*
X0021398Y0128287D01*
X0021800Y0126200D02*
X0019977Y0126200D01*
X0017400Y0123623D01*
X0017400Y0121800D01*
X0021800Y0121800D01*
X0021800Y0121800D01*
X0021800Y0126200D01*
X0023623Y0126200D01*
X0026200Y0123623D01*
X0026200Y0121800D01*
X0021800Y0121800D01*
X0021800Y0121800D01*
X0021800Y0121800D01*
X0021800Y0126200D01*
X0021800Y0125090D02*
X0021800Y0125090D01*
X0021800Y0123491D02*
X0021800Y0123491D01*
X0021800Y0121893D02*
X0021800Y0121893D01*
X0021800Y0121800D02*
X0017400Y0121800D01*
X0017400Y0119977D01*
X0019977Y0117400D01*
X0021800Y0117400D01*
X0023623Y0117400D01*
X0026200Y0119977D01*
X0026200Y0121800D01*
X0021800Y0121800D01*
X0021800Y0117400D01*
X0021800Y0121800D01*
X0021800Y0121800D01*
X0021800Y0120294D02*
X0021800Y0120294D01*
X0021800Y0118696D02*
X0021800Y0118696D01*
X0018682Y0118696D02*
X0010908Y0118696D01*
X0008774Y0117097D02*
X0038916Y0117097D01*
X0038917Y0117096D02*
X0039689Y0116703D01*
X0040512Y0116435D01*
X0041367Y0116300D01*
X0041600Y0116300D01*
X0041600Y0121600D01*
X0036300Y0121600D01*
X0036300Y0121367D01*
X0036435Y0120512D01*
X0036703Y0119689D01*
X0037096Y0118917D01*
X0037605Y0118217D01*
X0038217Y0117605D01*
X0038917Y0117096D01*
X0037257Y0118696D02*
X0024918Y0118696D01*
X0026200Y0120294D02*
X0036506Y0120294D01*
X0036567Y0123491D02*
X0026200Y0123491D01*
X0026200Y0121893D02*
X0041600Y0121893D01*
X0042000Y0121893D02*
X0053596Y0121893D01*
X0056621Y0125090D02*
X0057853Y0125090D01*
X0057800Y0125143D02*
X0060143Y0122800D01*
X0063457Y0122800D01*
X0065800Y0125143D01*
X0065800Y0128457D01*
X0063457Y0130800D01*
X0060143Y0130800D01*
X0057800Y0128457D01*
X0057800Y0125143D01*
X0057800Y0126688D02*
X0055023Y0126688D01*
X0054000Y0128287D02*
X0057800Y0128287D01*
X0059229Y0129885D02*
X0054000Y0129885D01*
X0054000Y0131484D02*
X0074781Y0131484D01*
X0075544Y0131800D02*
X0073911Y0132476D01*
X0072476Y0133911D01*
X0071700Y0135786D01*
X0071700Y0137814D01*
X0072476Y0139689D01*
X0073911Y0141124D01*
X0075544Y0141800D01*
X0073911Y0142476D01*
X0072476Y0143911D01*
X0071700Y0145786D01*
X0071700Y0147814D01*
X0072476Y0149689D01*
X0073911Y0151124D01*
X0075037Y0151590D01*
X0074689Y0151703D01*
X0073917Y0152096D01*
X0073217Y0152605D01*
X0072605Y0153217D01*
X0072096Y0153917D01*
X0071703Y0154689D01*
X0071435Y0155512D01*
X0071300Y0156367D01*
X0071300Y0156600D01*
X0076600Y0156600D01*
X0076600Y0157000D01*
X0071300Y0157000D01*
X0071300Y0157233D01*
X0071435Y0158088D01*
X0071703Y0158911D01*
X0072096Y0159683D01*
X0072605Y0160383D01*
X0073217Y0160995D01*
X0073917Y0161504D01*
X0074689Y0161897D01*
X0075037Y0162010D01*
X0073911Y0162476D01*
X0072476Y0163911D01*
X0071700Y0165786D01*
X0071700Y0167814D01*
X0072476Y0169689D01*
X0073911Y0171124D01*
X0075544Y0171800D01*
X0073911Y0172476D01*
X0072476Y0173911D01*
X0071700Y0175786D01*
X0071700Y0177814D01*
X0072476Y0179689D01*
X0073911Y0181124D01*
X0075786Y0181900D01*
X0077814Y0181900D01*
X0079689Y0181124D01*
X0081124Y0179689D01*
X0081900Y0177814D01*
X0081900Y0175786D01*
X0081124Y0173911D01*
X0079689Y0172476D01*
X0078056Y0171800D01*
X0079689Y0171124D01*
X0081124Y0169689D01*
X0081900Y0167814D01*
X0081900Y0165786D01*
X0081124Y0163911D01*
X0079689Y0162476D01*
X0078563Y0162010D01*
X0078911Y0161897D01*
X0079683Y0161504D01*
X0080383Y0160995D01*
X0080995Y0160383D01*
X0081504Y0159683D01*
X0081897Y0158911D01*
X0082165Y0158088D01*
X0082300Y0157233D01*
X0082300Y0157000D01*
X0077000Y0157000D01*
X0077000Y0156600D01*
X0082300Y0156600D01*
X0082300Y0156367D01*
X0082165Y0155512D01*
X0081897Y0154689D01*
X0081504Y0153917D01*
X0080995Y0153217D01*
X0080383Y0152605D01*
X0079683Y0152096D01*
X0078911Y0151703D01*
X0078563Y0151590D01*
X0079689Y0151124D01*
X0081124Y0149689D01*
X0081900Y0147814D01*
X0081900Y0145786D01*
X0081124Y0143911D01*
X0079689Y0142476D01*
X0078056Y0141800D01*
X0079689Y0141124D01*
X0081124Y0139689D01*
X0081900Y0137814D01*
X0081900Y0135786D01*
X0081124Y0133911D01*
X0079689Y0132476D01*
X0078056Y0131800D01*
X0079689Y0131124D01*
X0081124Y0129689D01*
X0081900Y0127814D01*
X0081900Y0125786D01*
X0081124Y0123911D01*
X0079689Y0122476D01*
X0077814Y0121700D01*
X0075786Y0121700D01*
X0073911Y0122476D01*
X0072476Y0123911D01*
X0071700Y0125786D01*
X0071700Y0127814D01*
X0072476Y0129689D01*
X0073911Y0131124D01*
X0075544Y0131800D01*
X0073305Y0133082D02*
X0063739Y0133082D01*
X0063457Y0132800D02*
X0065800Y0135143D01*
X0065800Y0138457D01*
X0063457Y0140800D01*
X0060143Y0140800D01*
X0057800Y0138457D01*
X0057800Y0135143D01*
X0060143Y0132800D01*
X0063457Y0132800D01*
X0065338Y0134681D02*
X0072158Y0134681D01*
X0071700Y0136279D02*
X0065800Y0136279D01*
X0065800Y0137878D02*
X0071726Y0137878D01*
X0072388Y0139476D02*
X0064780Y0139476D01*
X0058820Y0139476D02*
X0022588Y0139476D01*
X0024186Y0141075D02*
X0073862Y0141075D01*
X0073714Y0142673D02*
X0045452Y0142673D01*
X0045383Y0142605D02*
X0045995Y0143217D01*
X0046504Y0143917D01*
X0046897Y0144689D01*
X0047165Y0145512D01*
X0047300Y0146367D01*
X0047300Y0146600D01*
X0042000Y0146600D01*
X0042000Y0147000D01*
X0047300Y0147000D01*
X0047300Y0147233D01*
X0047165Y0148088D01*
X0046897Y0148911D01*
X0046504Y0149683D01*
X0045995Y0150383D01*
X0045383Y0150995D01*
X0044683Y0151504D01*
X0043911Y0151897D01*
X0043088Y0152165D01*
X0042233Y0152300D01*
X0042000Y0152300D01*
X0042000Y0147000D01*
X0041600Y0147000D01*
X0041600Y0152300D01*
X0041367Y0152300D01*
X0040512Y0152165D01*
X0039689Y0151897D01*
X0038917Y0151504D01*
X0038217Y0150995D01*
X0037605Y0150383D01*
X0037096Y0149683D01*
X0036703Y0148911D01*
X0036435Y0148088D01*
X0036300Y0147233D01*
X0036300Y0147000D01*
X0041600Y0147000D01*
X0041600Y0146600D01*
X0042000Y0146600D01*
X0042000Y0141300D01*
X0042233Y0141300D01*
X0043088Y0141435D01*
X0043911Y0141703D01*
X0044683Y0142096D01*
X0045383Y0142605D01*
X0046685Y0144272D02*
X0072327Y0144272D01*
X0071700Y0145870D02*
X0047221Y0145870D01*
X0047263Y0147469D02*
X0071700Y0147469D01*
X0072219Y0149068D02*
X0046817Y0149068D01*
X0045712Y0150666D02*
X0073454Y0150666D01*
X0073685Y0152265D02*
X0042457Y0152265D01*
X0042000Y0152265D02*
X0041600Y0152265D01*
X0041143Y0152265D02*
X0029000Y0152265D01*
X0029000Y0153863D02*
X0072135Y0153863D01*
X0071452Y0155462D02*
X0029000Y0155462D01*
X0029000Y0157060D02*
X0071300Y0157060D01*
X0071621Y0158659D02*
X0029000Y0158659D01*
X0029000Y0160257D02*
X0072513Y0160257D01*
X0074607Y0161856D02*
X0043190Y0161856D01*
X0042814Y0161700D02*
X0044689Y0162476D01*
X0046124Y0163911D01*
X0046900Y0165786D01*
X0046900Y0167814D01*
X0046124Y0169689D01*
X0044689Y0171124D01*
X0042814Y0171900D01*
X0040786Y0171900D01*
X0038911Y0171124D01*
X0037476Y0169689D01*
X0036700Y0167814D01*
X0036700Y0165786D01*
X0037476Y0163911D01*
X0038911Y0162476D01*
X0040786Y0161700D01*
X0042814Y0161700D01*
X0045667Y0163454D02*
X0072933Y0163454D01*
X0072004Y0165053D02*
X0046596Y0165053D01*
X0046900Y0166651D02*
X0071700Y0166651D01*
X0071880Y0168250D02*
X0046720Y0168250D01*
X0045964Y0169848D02*
X0072636Y0169848D01*
X0074691Y0171447D02*
X0043909Y0171447D01*
X0039691Y0171447D02*
X0029000Y0171447D01*
X0029000Y0173045D02*
X0059898Y0173045D01*
X0060143Y0172800D02*
X0063457Y0172800D01*
X0065800Y0175143D01*
X0065800Y0178457D01*
X0063457Y0180800D01*
X0060143Y0180800D01*
X0057800Y0178457D01*
X0057800Y0175143D01*
X0060143Y0172800D01*
X0058299Y0174644D02*
X0029000Y0174644D01*
X0029353Y0176242D02*
X0057800Y0176242D01*
X0057800Y0177841D02*
X0030952Y0177841D01*
X0032550Y0179439D02*
X0058782Y0179439D01*
X0064818Y0179439D02*
X0072373Y0179439D01*
X0071711Y0177841D02*
X0065800Y0177841D01*
X0065800Y0176242D02*
X0071700Y0176242D01*
X0072173Y0174644D02*
X0065301Y0174644D01*
X0063702Y0173045D02*
X0073342Y0173045D01*
X0078909Y0171447D02*
X0084600Y0171447D01*
X0084600Y0173045D02*
X0080258Y0173045D01*
X0081427Y0174644D02*
X0084600Y0174644D01*
X0084600Y0176242D02*
X0081900Y0176242D01*
X0081889Y0177841D02*
X0084600Y0177841D01*
X0084600Y0179439D02*
X0081227Y0179439D01*
X0079775Y0181038D02*
X0084451Y0181038D01*
X0082852Y0182636D02*
X0035748Y0182636D01*
X0037346Y0184235D02*
X0081254Y0184235D01*
X0081800Y0186800D02*
X0086800Y0181800D01*
X0086800Y0166800D01*
X0096800Y0156800D01*
X0101800Y0156800D01*
X0097094Y0160257D02*
X0096454Y0160257D01*
X0093429Y0157060D02*
X0082300Y0157060D01*
X0082148Y0155462D02*
X0095027Y0155462D01*
X0096480Y0153863D02*
X0081465Y0153863D01*
X0079915Y0152265D02*
X0180724Y0152265D01*
X0179126Y0153863D02*
X0137120Y0153863D01*
X0135519Y0150666D02*
X0182323Y0150666D01*
X0183921Y0149068D02*
X0137789Y0149068D01*
X0137529Y0144272D02*
X0178717Y0144272D01*
X0180315Y0142673D02*
X0079886Y0142673D01*
X0079738Y0141075D02*
X0181914Y0141075D01*
X0183512Y0139476D02*
X0137380Y0139476D01*
X0131800Y0136800D02*
X0179300Y0136800D01*
X0194300Y0121800D01*
X0189480Y0123491D02*
X0154714Y0123491D01*
X0153623Y0122400D02*
X0151800Y0122400D01*
X0151800Y0126800D01*
X0156200Y0126800D01*
X0156200Y0128623D01*
X0153623Y0131200D01*
X0151800Y0131200D01*
X0151800Y0126800D01*
X0151800Y0126800D01*
X0151800Y0126800D01*
X0156200Y0126800D01*
X0156200Y0124977D01*
X0153623Y0122400D01*
X0151800Y0122400D02*
X0151800Y0126800D01*
X0151800Y0126800D01*
X0151800Y0126800D01*
X0147400Y0126800D01*
X0147400Y0128623D01*
X0149977Y0131200D01*
X0151800Y0131200D01*
X0151800Y0126800D01*
X0147400Y0126800D01*
X0147400Y0124977D01*
X0149977Y0122400D01*
X0151800Y0122400D01*
X0151800Y0123491D02*
X0151800Y0123491D01*
X0151800Y0125090D02*
X0151800Y0125090D01*
X0151800Y0126688D02*
X0151800Y0126688D01*
X0151800Y0128287D02*
X0151800Y0128287D01*
X0151800Y0129885D02*
X0151800Y0129885D01*
X0148663Y0129885D02*
X0144371Y0129885D01*
X0145800Y0128287D02*
X0147400Y0128287D01*
X0147400Y0126688D02*
X0145800Y0126688D01*
X0145747Y0125090D02*
X0147400Y0125090D01*
X0148886Y0123491D02*
X0144148Y0123491D01*
X0139452Y0123491D02*
X0136748Y0123491D01*
X0136971Y0129885D02*
X0139229Y0129885D01*
X0135877Y0133082D02*
X0179906Y0133082D01*
X0181505Y0131484D02*
X0078819Y0131484D01*
X0080295Y0133082D02*
X0097723Y0133082D01*
X0095748Y0134681D02*
X0081442Y0134681D01*
X0081900Y0136279D02*
X0095200Y0136279D01*
X0095317Y0137878D02*
X0081874Y0137878D01*
X0081212Y0139476D02*
X0096220Y0139476D01*
X0096071Y0144272D02*
X0081273Y0144272D01*
X0081900Y0145870D02*
X0095255Y0145870D01*
X0095200Y0147469D02*
X0081900Y0147469D01*
X0081381Y0149068D02*
X0095811Y0149068D01*
X0098081Y0150666D02*
X0080146Y0150666D01*
X0081979Y0158659D02*
X0091830Y0158659D01*
X0090232Y0160257D02*
X0081087Y0160257D01*
X0078993Y0161856D02*
X0088633Y0161856D01*
X0087035Y0163454D02*
X0080667Y0163454D01*
X0081596Y0165053D02*
X0085436Y0165053D01*
X0085889Y0164600D02*
X0085889Y0164600D01*
X0084600Y0166651D02*
X0081900Y0166651D01*
X0081720Y0168250D02*
X0084600Y0168250D01*
X0084600Y0169848D02*
X0080964Y0169848D01*
X0073825Y0181038D02*
X0034149Y0181038D01*
X0031123Y0184235D02*
X0027346Y0184235D01*
X0028945Y0185833D02*
X0032722Y0185833D01*
X0034321Y0187432D02*
X0030543Y0187432D01*
X0032142Y0189030D02*
X0086458Y0189030D01*
X0086800Y0191800D02*
X0031800Y0191800D01*
X0011800Y0171800D01*
X0011800Y0146800D01*
X0006800Y0141800D01*
X0010090Y0137878D02*
X0014767Y0137878D01*
X0016365Y0139476D02*
X0011358Y0139476D01*
X0011900Y0141075D02*
X0017964Y0141075D01*
X0019562Y0142673D02*
X0011900Y0142673D01*
X0012383Y0144272D02*
X0021161Y0144272D01*
X0022759Y0145870D02*
X0013982Y0145870D01*
X0014000Y0147469D02*
X0024358Y0147469D01*
X0024600Y0149068D02*
X0014000Y0149068D01*
X0014000Y0150666D02*
X0024600Y0150666D01*
X0024600Y0152265D02*
X0014000Y0152265D01*
X0014000Y0153863D02*
X0024600Y0153863D01*
X0024600Y0155462D02*
X0014000Y0155462D01*
X0014000Y0157060D02*
X0024600Y0157060D01*
X0024600Y0158659D02*
X0014000Y0158659D01*
X0014000Y0160257D02*
X0024600Y0160257D01*
X0024600Y0161856D02*
X0014000Y0161856D01*
X0014000Y0163454D02*
X0024600Y0163454D01*
X0024600Y0165053D02*
X0014000Y0165053D01*
X0014000Y0166651D02*
X0024600Y0166651D01*
X0024600Y0168250D02*
X0014000Y0168250D01*
X0014000Y0169848D02*
X0024600Y0169848D01*
X0024600Y0171447D02*
X0014558Y0171447D01*
X0016156Y0173045D02*
X0024600Y0173045D01*
X0024600Y0174644D02*
X0017755Y0174644D01*
X0019353Y0176242D02*
X0024600Y0176242D01*
X0024729Y0177841D02*
X0020952Y0177841D01*
X0022550Y0179439D02*
X0026328Y0179439D01*
X0027926Y0181038D02*
X0024149Y0181038D01*
X0025748Y0182636D02*
X0029525Y0182636D01*
X0024321Y0187432D02*
X0018757Y0187432D01*
X0018666Y0187212D02*
X0019899Y0190189D01*
X0019899Y0193411D01*
X0018666Y0196388D01*
X0016388Y0198666D01*
X0013411Y0199899D01*
X0010189Y0199899D01*
X0007212Y0198666D01*
X0004934Y0196388D01*
X0003701Y0193411D01*
X0003701Y0190189D01*
X0004934Y0187212D01*
X0007212Y0184934D01*
X0010189Y0183701D01*
X0013411Y0183701D01*
X0016388Y0184934D01*
X0018666Y0187212D01*
X0017287Y0185833D02*
X0022722Y0185833D01*
X0021123Y0184235D02*
X0014700Y0184235D01*
X0017926Y0181038D02*
X0003600Y0181038D01*
X0003600Y0182636D02*
X0019525Y0182636D01*
X0016328Y0179439D02*
X0003600Y0179439D01*
X0003600Y0177841D02*
X0014729Y0177841D01*
X0013131Y0176242D02*
X0003600Y0176242D01*
X0003600Y0174644D02*
X0011532Y0174644D01*
X0009934Y0173045D02*
X0003600Y0173045D01*
X0003600Y0171447D02*
X0009600Y0171447D01*
X0009600Y0169848D02*
X0003600Y0169848D01*
X0003600Y0168250D02*
X0009600Y0168250D01*
X0009600Y0166651D02*
X0003600Y0166651D01*
X0003600Y0165053D02*
X0009600Y0165053D01*
X0009600Y0163454D02*
X0003600Y0163454D01*
X0003600Y0161856D02*
X0009600Y0161856D01*
X0009600Y0160257D02*
X0003600Y0160257D01*
X0003600Y0158659D02*
X0009600Y0158659D01*
X0009600Y0157060D02*
X0003600Y0157060D01*
X0003600Y0155462D02*
X0009600Y0155462D01*
X0009600Y0153863D02*
X0003600Y0153863D01*
X0003600Y0152265D02*
X0009600Y0152265D01*
X0009600Y0150666D02*
X0003600Y0150666D01*
X0003600Y0149068D02*
X0009600Y0149068D01*
X0009358Y0147469D02*
X0003600Y0147469D01*
X0003600Y0145870D02*
X0003658Y0145870D01*
X0009313Y0136279D02*
X0013168Y0136279D01*
X0011570Y0134681D02*
X0011127Y0134681D01*
X0013577Y0126688D02*
X0008325Y0126688D01*
X0010723Y0125090D02*
X0011979Y0125090D01*
X0011800Y0121800D02*
X0026800Y0136800D01*
X0026194Y0133082D02*
X0047406Y0133082D01*
X0049005Y0131484D02*
X0024595Y0131484D01*
X0022997Y0129885D02*
X0049600Y0129885D01*
X0053629Y0133082D02*
X0059861Y0133082D01*
X0058262Y0134681D02*
X0052030Y0134681D01*
X0050432Y0136279D02*
X0057800Y0136279D01*
X0057800Y0137878D02*
X0048833Y0137878D01*
X0041600Y0141300D02*
X0041600Y0146600D01*
X0036300Y0146600D01*
X0036300Y0146367D01*
X0036435Y0145512D01*
X0036703Y0144689D01*
X0037096Y0143917D01*
X0037605Y0143217D01*
X0038217Y0142605D01*
X0038917Y0142096D01*
X0039689Y0141703D01*
X0040512Y0141435D01*
X0041367Y0141300D01*
X0041600Y0141300D01*
X0041600Y0142673D02*
X0042000Y0142673D01*
X0042000Y0144272D02*
X0041600Y0144272D01*
X0041600Y0145870D02*
X0042000Y0145870D01*
X0042000Y0147469D02*
X0041600Y0147469D01*
X0041600Y0149068D02*
X0042000Y0149068D01*
X0042000Y0150666D02*
X0041600Y0150666D01*
X0037888Y0150666D02*
X0029000Y0150666D01*
X0029000Y0149068D02*
X0036783Y0149068D01*
X0036337Y0147469D02*
X0029000Y0147469D01*
X0028982Y0145870D02*
X0036379Y0145870D01*
X0036915Y0144272D02*
X0027383Y0144272D01*
X0025785Y0142673D02*
X0038148Y0142673D01*
X0039279Y0126688D02*
X0019800Y0126688D01*
X0018867Y0125090D02*
X0018201Y0125090D01*
X0017400Y0123491D02*
X0016603Y0123491D01*
X0017400Y0121893D02*
X0015004Y0121893D01*
X0013406Y0120294D02*
X0017400Y0120294D01*
X0011800Y0121800D02*
X0006800Y0121800D01*
X0011204Y0109105D02*
X0095436Y0109105D01*
X0094857Y0107506D02*
X0009719Y0107506D01*
X0009905Y0105908D02*
X0038695Y0105908D01*
X0038911Y0106124D02*
X0037476Y0104689D01*
X0036700Y0102814D01*
X0036700Y0100786D01*
X0037476Y0098911D01*
X0038911Y0097476D01*
X0040786Y0096700D01*
X0042814Y0096700D01*
X0044689Y0097476D01*
X0046124Y0098911D01*
X0046900Y0100786D01*
X0046900Y0102814D01*
X0046124Y0104689D01*
X0044689Y0106124D01*
X0042814Y0106900D01*
X0040786Y0106900D01*
X0038911Y0106124D01*
X0037319Y0104309D02*
X0011281Y0104309D01*
X0011900Y0102711D02*
X0036700Y0102711D01*
X0036700Y0101112D02*
X0011900Y0101112D01*
X0011373Y0099514D02*
X0037227Y0099514D01*
X0038472Y0097915D02*
X0010128Y0097915D01*
X0009223Y0096317D02*
X0083659Y0096317D01*
X0083917Y0096504D02*
X0083217Y0095995D01*
X0082605Y0095383D01*
X0082096Y0094683D01*
X0081703Y0093911D01*
X0081435Y0093088D01*
X0081300Y0092233D01*
X0081300Y0092000D01*
X0086600Y0092000D01*
X0086600Y0091600D01*
X0081300Y0091600D01*
X0081300Y0091367D01*
X0081435Y0090512D01*
X0081703Y0089689D01*
X0082096Y0088917D01*
X0082605Y0088217D01*
X0083217Y0087605D01*
X0083917Y0087096D01*
X0084689Y0086703D01*
X0085037Y0086590D01*
X0083911Y0086124D01*
X0082476Y0084689D01*
X0081700Y0082814D01*
X0081700Y0080786D01*
X0082476Y0078911D01*
X0083911Y0077476D01*
X0085786Y0076700D01*
X0087814Y0076700D01*
X0089689Y0077476D01*
X0091124Y0078911D01*
X0091900Y0080786D01*
X0091900Y0082814D01*
X0091124Y0084689D01*
X0089689Y0086124D01*
X0088563Y0086590D01*
X0088911Y0086703D01*
X0089683Y0087096D01*
X0090383Y0087605D01*
X0090995Y0088217D01*
X0091504Y0088917D01*
X0091897Y0089689D01*
X0092165Y0090512D01*
X0092300Y0091367D01*
X0092300Y0091600D01*
X0087000Y0091600D01*
X0087000Y0092000D01*
X0092300Y0092000D01*
X0092300Y0092233D01*
X0092165Y0093088D01*
X0091897Y0093911D01*
X0091504Y0094683D01*
X0090995Y0095383D01*
X0090383Y0095995D01*
X0089683Y0096504D01*
X0088911Y0096897D01*
X0088563Y0097010D01*
X0089689Y0097476D01*
X0091124Y0098911D01*
X0091900Y0100786D01*
X0091900Y0102814D01*
X0091124Y0104689D01*
X0089689Y0106124D01*
X0087814Y0106900D01*
X0085786Y0106900D01*
X0083911Y0106124D01*
X0082476Y0104689D01*
X0081700Y0102814D01*
X0081700Y0100786D01*
X0082476Y0098911D01*
X0083911Y0097476D01*
X0085037Y0097010D01*
X0084689Y0096897D01*
X0083917Y0096504D01*
X0083472Y0097915D02*
X0045128Y0097915D01*
X0046373Y0099514D02*
X0082227Y0099514D01*
X0081700Y0101112D02*
X0046900Y0101112D01*
X0046900Y0102711D02*
X0081700Y0102711D01*
X0082319Y0104309D02*
X0046281Y0104309D01*
X0044905Y0105908D02*
X0083695Y0105908D01*
X0089905Y0105908D02*
X0094886Y0105908D01*
X0095571Y0104309D02*
X0091281Y0104309D01*
X0091900Y0102711D02*
X0097547Y0102711D01*
X0096257Y0099514D02*
X0091373Y0099514D01*
X0091900Y0101112D02*
X0140321Y0101112D01*
X0138079Y0099514D02*
X0137343Y0099514D01*
X0143279Y0101112D02*
X0178001Y0101112D01*
X0176402Y0099514D02*
X0145521Y0099514D01*
X0146263Y0097915D02*
X0174804Y0097915D01*
X0173205Y0096317D02*
X0146350Y0096317D01*
X0145863Y0094718D02*
X0171607Y0094718D01*
X0170008Y0093120D02*
X0144554Y0093120D01*
X0144079Y0091521D02*
X0168410Y0091521D01*
X0166811Y0089923D02*
X0145678Y0089923D01*
X0146750Y0088324D02*
X0165213Y0088324D01*
X0163614Y0086726D02*
X0146750Y0086726D01*
X0146750Y0085127D02*
X0162016Y0085127D01*
X0160417Y0083529D02*
X0145529Y0083529D01*
X0143930Y0081930D02*
X0158819Y0081930D01*
X0157220Y0080332D02*
X0136327Y0080332D01*
X0137351Y0083529D02*
X0138071Y0083529D01*
X0139670Y0081930D02*
X0091900Y0081930D01*
X0091712Y0080332D02*
X0097273Y0080332D01*
X0095622Y0078733D02*
X0090945Y0078733D01*
X0088863Y0077134D02*
X0094023Y0077134D01*
X0092425Y0075536D02*
X0076175Y0075536D01*
X0074577Y0077134D02*
X0084737Y0077134D01*
X0082654Y0078733D02*
X0072978Y0078733D01*
X0071380Y0080332D02*
X0081888Y0080332D01*
X0081700Y0081930D02*
X0069781Y0081930D01*
X0068183Y0083529D02*
X0081996Y0083529D01*
X0082915Y0085127D02*
X0066584Y0085127D01*
X0065800Y0086726D02*
X0084644Y0086726D01*
X0082527Y0088324D02*
X0065800Y0088324D01*
X0064334Y0089923D02*
X0081627Y0089923D01*
X0081300Y0091521D02*
X0050190Y0091521D01*
X0048592Y0093120D02*
X0081446Y0093120D01*
X0082122Y0094718D02*
X0039539Y0094718D01*
X0036800Y0091800D02*
X0006800Y0091800D01*
X0010537Y0088324D02*
X0034619Y0088324D01*
X0035143Y0085800D02*
X0032800Y0083457D01*
X0032800Y0080143D01*
X0035143Y0077800D01*
X0038457Y0077800D01*
X0040800Y0080143D01*
X0040800Y0083457D01*
X0038457Y0085800D01*
X0035143Y0085800D01*
X0034470Y0085127D02*
X0024130Y0085127D01*
X0023457Y0085800D02*
X0020143Y0085800D01*
X0017800Y0083457D01*
X0017800Y0080143D01*
X0020143Y0077800D01*
X0023457Y0077800D01*
X0025800Y0080143D01*
X0025800Y0083457D01*
X0023457Y0085800D01*
X0025728Y0083529D02*
X0032872Y0083529D01*
X0032800Y0081930D02*
X0025800Y0081930D01*
X0025800Y0080332D02*
X0032800Y0080332D01*
X0034210Y0078733D02*
X0024390Y0078733D01*
X0019210Y0078733D02*
X0010945Y0078733D01*
X0011712Y0080332D02*
X0017800Y0080332D01*
X0017800Y0081930D02*
X0011900Y0081930D01*
X0011604Y0083529D02*
X0017872Y0083529D01*
X0019470Y0085127D02*
X0010685Y0085127D01*
X0008236Y0086726D02*
X0048763Y0086726D01*
X0047165Y0088324D02*
X0038981Y0088324D01*
X0039130Y0085127D02*
X0050362Y0085127D01*
X0051960Y0083529D02*
X0040728Y0083529D01*
X0040800Y0081930D02*
X0053559Y0081930D01*
X0055157Y0080332D02*
X0040800Y0080332D01*
X0039390Y0078733D02*
X0056756Y0078733D01*
X0058354Y0077134D02*
X0008863Y0077134D01*
X0010842Y0075536D02*
X0059953Y0075536D01*
X0061551Y0073937D02*
X0011884Y0073937D01*
X0012283Y0072339D02*
X0063150Y0072339D01*
X0064748Y0070740D02*
X0012201Y0070740D01*
X0012165Y0070512D02*
X0012300Y0071367D01*
X0012300Y0071600D01*
X0007000Y0071600D01*
X0007000Y0066300D01*
X0007233Y0066300D01*
X0008088Y0066435D01*
X0008911Y0066703D01*
X0009683Y0067096D01*
X0010383Y0067605D01*
X0010995Y0068217D01*
X0011504Y0068917D01*
X0011897Y0069689D01*
X0012165Y0070512D01*
X0011618Y0069142D02*
X0066347Y0069142D01*
X0067945Y0067543D02*
X0019732Y0067543D01*
X0020771Y0067113D02*
X0018194Y0068180D01*
X0015406Y0068180D01*
X0012829Y0067113D01*
X0010857Y0065141D01*
X0009790Y0062564D01*
X0009790Y0059776D01*
X0010857Y0057199D01*
X0012829Y0055227D01*
X0015406Y0054160D01*
X0018194Y0054160D01*
X0020771Y0055227D01*
X0022743Y0057199D01*
X0023810Y0059776D01*
X0023810Y0062564D01*
X0022743Y0065141D01*
X0020771Y0067113D01*
X0021939Y0065945D02*
X0069544Y0065945D01*
X0071800Y0066800D02*
X0046800Y0091800D01*
X0036800Y0091800D01*
X0034061Y0094718D02*
X0011094Y0094718D01*
X0007000Y0070740D02*
X0006600Y0070740D01*
X0006600Y0069142D02*
X0007000Y0069142D01*
X0007000Y0067543D02*
X0006600Y0067543D01*
X0003600Y0065945D02*
X0011661Y0065945D01*
X0010528Y0064346D02*
X0003600Y0064346D01*
X0003600Y0062748D02*
X0009866Y0062748D01*
X0009790Y0061149D02*
X0003600Y0061149D01*
X0003600Y0059551D02*
X0009883Y0059551D01*
X0010545Y0057952D02*
X0003600Y0057952D01*
X0003600Y0056354D02*
X0011702Y0056354D01*
X0013968Y0054755D02*
X0003600Y0054755D01*
X0003600Y0053157D02*
X0029740Y0053157D01*
X0028518Y0051558D02*
X0003600Y0051558D01*
X0003600Y0049960D02*
X0028180Y0049960D01*
X0028510Y0048361D02*
X0003600Y0048361D01*
X0003600Y0046763D02*
X0029646Y0046763D01*
X0028479Y0045164D02*
X0003600Y0045164D01*
X0003600Y0043566D02*
X0028180Y0043566D01*
X0027360Y0041967D02*
X0003600Y0041967D01*
X0003600Y0040369D02*
X0025761Y0040369D01*
X0024600Y0038770D02*
X0019812Y0038770D01*
X0020771Y0038373D02*
X0018194Y0039440D01*
X0015406Y0039440D01*
X0012829Y0038373D01*
X0010857Y0036401D01*
X0009790Y0033824D01*
X0009790Y0031035D01*
X0010857Y0028459D01*
X0012829Y0026487D01*
X0015406Y0025420D01*
X0018194Y0025420D01*
X0020771Y0026487D01*
X0022743Y0028459D01*
X0023810Y0031035D01*
X0023810Y0033824D01*
X0022743Y0036401D01*
X0020771Y0038373D01*
X0021972Y0037172D02*
X0024600Y0037172D01*
X0024600Y0035573D02*
X0023086Y0035573D01*
X0023748Y0033975D02*
X0024600Y0033975D01*
X0024600Y0032376D02*
X0023810Y0032376D01*
X0023703Y0030778D02*
X0024600Y0030778D01*
X0024600Y0029179D02*
X0023041Y0029179D01*
X0021865Y0027581D02*
X0024600Y0027581D01*
X0024600Y0025982D02*
X0019552Y0025982D01*
X0017269Y0022785D02*
X0027704Y0022785D01*
X0026105Y0024384D02*
X0014656Y0024384D01*
X0014048Y0025982D02*
X0003600Y0025982D01*
X0003600Y0024384D02*
X0008944Y0024384D01*
X0006331Y0022785D02*
X0003600Y0022785D01*
X0003600Y0021187D02*
X0004850Y0021187D01*
X0004188Y0019588D02*
X0003600Y0019588D01*
X0003600Y0017990D02*
X0003701Y0017990D01*
X0003701Y0016391D02*
X0003600Y0016391D01*
X0003600Y0014793D02*
X0003865Y0014793D01*
X0003600Y0013194D02*
X0004527Y0013194D01*
X0003600Y0011596D02*
X0005550Y0011596D01*
X0007149Y0009997D02*
X0003600Y0009997D01*
X0003600Y0027581D02*
X0011735Y0027581D01*
X0010559Y0029179D02*
X0003600Y0029179D01*
X0003600Y0030778D02*
X0009897Y0030778D01*
X0009790Y0032376D02*
X0003600Y0032376D01*
X0003600Y0033975D02*
X0009852Y0033975D01*
X0010514Y0035573D02*
X0003600Y0035573D01*
X0003600Y0037172D02*
X0011628Y0037172D01*
X0013788Y0038770D02*
X0003600Y0038770D01*
X0019632Y0054755D02*
X0033262Y0054755D01*
X0034512Y0056354D02*
X0021898Y0056354D01*
X0023055Y0057952D02*
X0082800Y0057952D01*
X0082800Y0058457D02*
X0082800Y0055143D01*
X0085143Y0052800D01*
X0088457Y0052800D01*
X0090800Y0055143D01*
X0090800Y0058457D01*
X0088457Y0060800D01*
X0085143Y0060800D01*
X0082800Y0058457D01*
X0083894Y0059551D02*
X0023717Y0059551D01*
X0023810Y0061149D02*
X0158038Y0061149D01*
X0156440Y0059551D02*
X0137306Y0059551D01*
X0137603Y0064346D02*
X0161235Y0064346D01*
X0159637Y0062748D02*
X0023734Y0062748D01*
X0023072Y0064346D02*
X0095997Y0064346D01*
X0096294Y0059551D02*
X0089706Y0059551D01*
X0090800Y0057952D02*
X0095348Y0057952D01*
X0095200Y0056354D02*
X0090800Y0056354D01*
X0090412Y0054755D02*
X0095717Y0054755D01*
X0097543Y0053157D02*
X0088814Y0053157D01*
X0088623Y0051200D02*
X0086800Y0051200D01*
X0086800Y0046800D01*
X0086800Y0046800D01*
X0091200Y0046800D01*
X0091200Y0048623D01*
X0088623Y0051200D01*
X0089863Y0049960D02*
X0096703Y0049960D01*
X0095517Y0048361D02*
X0091200Y0048361D01*
X0091200Y0046800D02*
X0086800Y0046800D01*
X0086800Y0046800D01*
X0086800Y0046800D01*
X0082400Y0046800D01*
X0082400Y0048623D01*
X0084977Y0051200D01*
X0086800Y0051200D01*
X0086800Y0046800D01*
X0086800Y0042400D01*
X0088623Y0042400D01*
X0091200Y0044977D01*
X0091200Y0046800D01*
X0091200Y0046763D02*
X0095200Y0046763D01*
X0095548Y0045164D02*
X0091200Y0045164D01*
X0089788Y0043566D02*
X0095455Y0043566D01*
X0093856Y0041967D02*
X0041002Y0041967D01*
X0041254Y0040501D02*
X0036879Y0040501D01*
X0036879Y0040501D01*
X0041254Y0040501D01*
X0041254Y0040369D02*
X0092257Y0040369D01*
X0086800Y0042400D02*
X0086800Y0046800D01*
X0086800Y0046800D01*
X0082400Y0046800D01*
X0082400Y0044977D01*
X0084977Y0042400D01*
X0086800Y0042400D01*
X0086800Y0043566D02*
X0086800Y0043566D01*
X0086800Y0045164D02*
X0086800Y0045164D01*
X0086800Y0046763D02*
X0086800Y0046763D01*
X0086800Y0048361D02*
X0086800Y0048361D01*
X0086800Y0049960D02*
X0086800Y0049960D01*
X0083737Y0049960D02*
X0067484Y0049960D01*
X0066116Y0049960D02*
X0039361Y0049960D01*
X0040543Y0051558D02*
X0108930Y0051558D01*
X0109600Y0049960D02*
X0106897Y0049960D01*
X0108083Y0048361D02*
X0109600Y0048361D01*
X0109600Y0046763D02*
X0108400Y0046763D01*
X0108052Y0045164D02*
X0109600Y0045164D01*
X0109600Y0043566D02*
X0106823Y0043566D01*
X0111800Y0051800D02*
X0106800Y0056800D01*
X0101800Y0056800D01*
X0106057Y0053157D02*
X0107332Y0053157D01*
X0101800Y0066800D02*
X0071800Y0066800D01*
X0072569Y0069142D02*
X0095885Y0069142D01*
X0093852Y0070740D02*
X0098261Y0070740D01*
X0095450Y0072339D02*
X0159228Y0072339D01*
X0160826Y0073937D02*
X0137194Y0073937D01*
X0135339Y0070740D02*
X0157629Y0070740D01*
X0156031Y0069142D02*
X0137715Y0069142D01*
X0131800Y0066800D02*
X0156800Y0066800D01*
X0191800Y0101800D01*
X0194300Y0101800D01*
X0189819Y0104309D02*
X0187420Y0104309D01*
X0185822Y0102711D02*
X0189200Y0102711D01*
X0188001Y0101112D02*
X0184223Y0101112D01*
X0182625Y0099514D02*
X0186402Y0099514D01*
X0184804Y0097915D02*
X0181026Y0097915D01*
X0179428Y0096317D02*
X0183205Y0096317D01*
X0181607Y0094718D02*
X0177829Y0094718D01*
X0176231Y0093120D02*
X0180008Y0093120D01*
X0178410Y0091521D02*
X0174632Y0091521D01*
X0173034Y0089923D02*
X0176811Y0089923D01*
X0175213Y0088324D02*
X0171435Y0088324D01*
X0169837Y0086726D02*
X0173614Y0086726D01*
X0172016Y0085127D02*
X0168238Y0085127D01*
X0166640Y0083529D02*
X0170417Y0083529D01*
X0168819Y0081930D02*
X0165041Y0081930D01*
X0163443Y0080332D02*
X0167220Y0080332D01*
X0165622Y0078733D02*
X0161844Y0078733D01*
X0160246Y0077134D02*
X0164023Y0077134D01*
X0162425Y0075536D02*
X0158647Y0075536D01*
X0156800Y0076800D02*
X0191800Y0111800D01*
X0194300Y0111800D01*
X0191381Y0107506D02*
X0190617Y0107506D01*
X0191195Y0105908D02*
X0189019Y0105908D01*
X0189190Y0112302D02*
X0090413Y0112302D01*
X0092012Y0113900D02*
X0096443Y0113900D01*
X0097169Y0110703D02*
X0088815Y0110703D01*
X0087387Y0115499D02*
X0083610Y0115499D01*
X0085209Y0117097D02*
X0088986Y0117097D01*
X0090585Y0118696D02*
X0086807Y0118696D01*
X0088406Y0120294D02*
X0097184Y0120294D01*
X0090176Y0128287D02*
X0081704Y0128287D01*
X0081900Y0126688D02*
X0088577Y0126688D01*
X0086979Y0125090D02*
X0081612Y0125090D01*
X0080704Y0123491D02*
X0085380Y0123491D01*
X0083782Y0121893D02*
X0078280Y0121893D01*
X0075320Y0121893D02*
X0059818Y0121893D01*
X0059452Y0123491D02*
X0058220Y0123491D01*
X0061417Y0120294D02*
X0082183Y0120294D01*
X0080927Y0129885D02*
X0096629Y0129885D01*
X0072673Y0129885D02*
X0064371Y0129885D01*
X0065800Y0128287D02*
X0071896Y0128287D01*
X0071700Y0126688D02*
X0065800Y0126688D01*
X0065747Y0125090D02*
X0071988Y0125090D01*
X0072896Y0123491D02*
X0064148Y0123491D01*
X0042000Y0123491D02*
X0041600Y0123491D01*
X0041600Y0125090D02*
X0042000Y0125090D01*
X0042000Y0126688D02*
X0041600Y0126688D01*
X0037392Y0125090D02*
X0024733Y0125090D01*
X0041600Y0120294D02*
X0042000Y0120294D01*
X0042000Y0118696D02*
X0041600Y0118696D01*
X0041600Y0117097D02*
X0042000Y0117097D01*
X0051789Y0089923D02*
X0059266Y0089923D01*
X0057800Y0088324D02*
X0053387Y0088324D01*
X0054986Y0086726D02*
X0057800Y0086726D01*
X0057816Y0085127D02*
X0056584Y0085127D01*
X0058183Y0083529D02*
X0059415Y0083529D01*
X0059781Y0081930D02*
X0063559Y0081930D01*
X0065157Y0080332D02*
X0061380Y0080332D01*
X0062978Y0078733D02*
X0066756Y0078733D01*
X0068354Y0077134D02*
X0064577Y0077134D01*
X0066175Y0075536D02*
X0069953Y0075536D01*
X0071551Y0073937D02*
X0067774Y0073937D01*
X0069372Y0072339D02*
X0073150Y0072339D01*
X0074748Y0070740D02*
X0070971Y0070740D01*
X0076800Y0071800D02*
X0091800Y0071800D01*
X0096800Y0076800D01*
X0101800Y0076800D01*
X0096815Y0083529D02*
X0091604Y0083529D01*
X0090685Y0085127D02*
X0095563Y0085127D01*
X0095200Y0086726D02*
X0088956Y0086726D01*
X0091073Y0088324D02*
X0095502Y0088324D01*
X0096666Y0089923D02*
X0091973Y0089923D01*
X0092300Y0091521D02*
X0139521Y0091521D01*
X0139046Y0093120D02*
X0135967Y0093120D01*
X0137500Y0089923D02*
X0137922Y0089923D01*
X0141800Y0089923D02*
X0141800Y0089923D01*
X0141800Y0091521D02*
X0141800Y0091521D01*
X0141800Y0088324D02*
X0141800Y0088324D01*
X0141800Y0086726D02*
X0141800Y0086726D01*
X0141800Y0085127D02*
X0141800Y0085127D01*
X0141800Y0083529D02*
X0141800Y0083529D01*
X0141800Y0081930D02*
X0141800Y0081930D01*
X0131800Y0083529D02*
X0131800Y0083529D01*
X0131800Y0085127D02*
X0131800Y0085127D01*
X0131800Y0086726D02*
X0131800Y0086726D01*
X0131800Y0088324D02*
X0131800Y0088324D01*
X0131800Y0089923D02*
X0131800Y0089923D01*
X0131800Y0076800D02*
X0156800Y0076800D01*
X0163852Y0070740D02*
X0167629Y0070740D01*
X0166031Y0069142D02*
X0162253Y0069142D01*
X0160655Y0067543D02*
X0164432Y0067543D01*
X0162834Y0065945D02*
X0159056Y0065945D01*
X0165450Y0072339D02*
X0169228Y0072339D01*
X0170826Y0073937D02*
X0167049Y0073937D01*
X0168647Y0075536D02*
X0172425Y0075536D01*
X0174023Y0077134D02*
X0170246Y0077134D01*
X0171844Y0078733D02*
X0175622Y0078733D01*
X0177220Y0080332D02*
X0173443Y0080332D01*
X0175041Y0081930D02*
X0178819Y0081930D01*
X0180417Y0083529D02*
X0176640Y0083529D01*
X0178238Y0085127D02*
X0182016Y0085127D01*
X0196850Y0048361D02*
X0161473Y0048361D01*
X0159874Y0046763D02*
X0196850Y0046763D01*
X0196850Y0045164D02*
X0185436Y0045164D01*
X0186750Y0043850D02*
X0183850Y0046750D01*
X0181800Y0046750D01*
X0181800Y0041800D01*
X0186750Y0041800D01*
X0186750Y0043850D01*
X0186750Y0043566D02*
X0196850Y0043566D01*
X0196850Y0041967D02*
X0186750Y0041967D01*
X0186750Y0041800D02*
X0181800Y0041800D01*
X0181800Y0041800D01*
X0181800Y0041800D01*
X0181800Y0036850D01*
X0183850Y0036850D01*
X0186750Y0039750D01*
X0186750Y0041800D01*
X0186750Y0040369D02*
X0196850Y0040369D01*
X0196850Y0038770D02*
X0185771Y0038770D01*
X0184172Y0037172D02*
X0196850Y0037172D01*
X0196850Y0035573D02*
X0174000Y0035573D01*
X0174000Y0033975D02*
X0196850Y0033975D01*
X0196850Y0032376D02*
X0174000Y0032376D01*
X0174000Y0030778D02*
X0196850Y0030778D01*
X0183944Y0024384D02*
X0172495Y0024384D01*
X0170896Y0022785D02*
X0181331Y0022785D01*
X0179850Y0021187D02*
X0169298Y0021187D01*
X0167699Y0019588D02*
X0179188Y0019588D01*
X0178701Y0017990D02*
X0166101Y0017990D01*
X0164502Y0016391D02*
X0178701Y0016391D01*
X0178865Y0014793D02*
X0162904Y0014793D01*
X0174000Y0037172D02*
X0179428Y0037172D01*
X0179750Y0036850D02*
X0181800Y0036850D01*
X0181800Y0041800D01*
X0181800Y0041800D01*
X0181800Y0041800D01*
X0176850Y0041800D01*
X0176850Y0043850D01*
X0179750Y0046750D01*
X0181800Y0046750D01*
X0181800Y0041800D01*
X0176850Y0041800D01*
X0176850Y0039750D01*
X0179750Y0036850D01*
X0181800Y0037172D02*
X0181800Y0037172D01*
X0181800Y0038770D02*
X0181800Y0038770D01*
X0181800Y0040369D02*
X0181800Y0040369D01*
X0181800Y0041967D02*
X0181800Y0041967D01*
X0181800Y0043566D02*
X0181800Y0043566D01*
X0181800Y0045164D02*
X0181800Y0045164D01*
X0178164Y0045164D02*
X0174870Y0045164D01*
X0175993Y0043566D02*
X0176850Y0043566D01*
X0176850Y0041967D02*
X0176350Y0041967D01*
X0176132Y0040369D02*
X0176850Y0040369D01*
X0177829Y0038770D02*
X0175205Y0038770D01*
X0160455Y0043566D02*
X0136823Y0043566D01*
X0094313Y0030778D02*
X0092909Y0030778D01*
X0086439Y0030778D02*
X0085035Y0030778D01*
X0078565Y0030778D02*
X0077161Y0030778D01*
X0070691Y0030778D02*
X0069287Y0030778D01*
X0062817Y0030778D02*
X0058889Y0030778D01*
X0055863Y0033975D02*
X0029000Y0033975D01*
X0029000Y0035573D02*
X0057462Y0035573D01*
X0059060Y0037172D02*
X0039737Y0037172D01*
X0040907Y0038770D02*
X0060659Y0038770D01*
X0054265Y0032376D02*
X0029000Y0032376D01*
X0029000Y0030778D02*
X0052666Y0030778D01*
X0051068Y0029179D02*
X0029000Y0029179D01*
X0029131Y0027581D02*
X0049469Y0027581D01*
X0047871Y0025982D02*
X0030729Y0025982D01*
X0032328Y0024384D02*
X0046272Y0024384D01*
X0036879Y0036126D02*
X0036879Y0040501D01*
X0036879Y0040501D01*
X0036879Y0036126D01*
X0036879Y0037172D02*
X0036879Y0037172D01*
X0036879Y0038770D02*
X0036879Y0038770D01*
X0036879Y0040369D02*
X0036879Y0040369D01*
X0040001Y0043566D02*
X0083812Y0043566D01*
X0082400Y0045164D02*
X0069566Y0045164D01*
X0069981Y0046763D02*
X0082400Y0046763D01*
X0082400Y0048361D02*
X0069596Y0048361D01*
X0066800Y0046800D02*
X0036879Y0046800D01*
X0032154Y0043650D02*
X0026800Y0038296D01*
X0026800Y0026800D01*
X0031800Y0021800D01*
X0034021Y0037172D02*
X0029000Y0037172D01*
X0030385Y0038770D02*
X0032851Y0038770D01*
X0040854Y0053157D02*
X0084786Y0053157D01*
X0083188Y0054755D02*
X0040495Y0054755D01*
X0039245Y0056354D02*
X0082800Y0056354D01*
X0076800Y0071800D02*
X0061800Y0086800D01*
X0089941Y0096317D02*
X0095200Y0096317D01*
X0095332Y0097915D02*
X0090128Y0097915D01*
X0091478Y0094718D02*
X0095733Y0094718D01*
X0097633Y0093120D02*
X0092154Y0093120D01*
X0131800Y0146800D02*
X0179300Y0146800D01*
X0194300Y0131800D01*
X0189573Y0129885D02*
X0189326Y0129885D01*
X0189200Y0131484D02*
X0187727Y0131484D01*
X0189311Y0133082D02*
X0186129Y0133082D01*
X0184530Y0134681D02*
X0188308Y0134681D01*
X0186709Y0136279D02*
X0182932Y0136279D01*
X0181333Y0137878D02*
X0185111Y0137878D01*
X0188136Y0141075D02*
X0189200Y0141075D01*
X0189200Y0142673D02*
X0186538Y0142673D01*
X0184939Y0144272D02*
X0188717Y0144272D01*
X0187118Y0145870D02*
X0183341Y0145870D01*
X0181742Y0147469D02*
X0185520Y0147469D01*
X0188545Y0150666D02*
X0196850Y0150666D01*
X0196850Y0149068D02*
X0190144Y0149068D01*
X0191742Y0147469D02*
X0196850Y0147469D01*
X0196850Y0152265D02*
X0186947Y0152265D01*
X0185348Y0153863D02*
X0196850Y0153863D01*
X0196850Y0155462D02*
X0183750Y0155462D01*
X0182151Y0157060D02*
X0196850Y0157060D01*
X0196850Y0158659D02*
X0180553Y0158659D01*
X0179300Y0156800D02*
X0194300Y0141800D01*
X0189742Y0139476D02*
X0189735Y0139476D01*
X0183103Y0129885D02*
X0154937Y0129885D01*
X0156200Y0128287D02*
X0184702Y0128287D01*
X0186300Y0126688D02*
X0156200Y0126688D01*
X0156200Y0125090D02*
X0187899Y0125090D01*
X0179300Y0156800D02*
X0131800Y0156800D01*
X0136506Y0160257D02*
X0196850Y0160257D01*
X0196850Y0165053D02*
X0138448Y0165053D01*
X0138800Y0166651D02*
X0196850Y0166651D01*
X0196850Y0168250D02*
X0138555Y0168250D01*
X0137574Y0169848D02*
X0196850Y0169848D01*
X0196850Y0171447D02*
X0095265Y0171447D01*
X0094000Y0173045D02*
X0097812Y0173045D01*
X0098404Y0172800D02*
X0105196Y0172800D01*
X0106666Y0173409D01*
X0107791Y0174534D01*
X0108400Y0176004D01*
X0108400Y0177596D01*
X0107791Y0179066D01*
X0106666Y0180191D01*
X0105196Y0180800D01*
X0098404Y0180800D01*
X0096934Y0180191D01*
X0095809Y0179066D01*
X0095200Y0177596D01*
X0095200Y0176004D01*
X0095809Y0174534D01*
X0096934Y0173409D01*
X0098404Y0172800D01*
X0095764Y0174644D02*
X0094000Y0174644D01*
X0094000Y0176242D02*
X0095200Y0176242D01*
X0095302Y0177841D02*
X0094000Y0177841D01*
X0094000Y0179439D02*
X0096182Y0179439D01*
X0094000Y0181038D02*
X0149815Y0181038D01*
X0149977Y0181200D02*
X0147400Y0178623D01*
X0147400Y0176800D01*
X0151800Y0176800D01*
X0156200Y0176800D01*
X0156200Y0178623D01*
X0153623Y0181200D01*
X0151800Y0181200D01*
X0151800Y0176800D01*
X0151800Y0176800D01*
X0151800Y0176800D01*
X0156200Y0176800D01*
X0156200Y0174977D01*
X0153623Y0172400D01*
X0151800Y0172400D01*
X0151800Y0176800D01*
X0151800Y0176800D01*
X0151800Y0176800D01*
X0151800Y0181200D01*
X0149977Y0181200D01*
X0151800Y0181038D02*
X0151800Y0181038D01*
X0151800Y0179439D02*
X0151800Y0179439D01*
X0151800Y0177841D02*
X0151800Y0177841D01*
X0151800Y0176800D02*
X0147400Y0176800D01*
X0147400Y0174977D01*
X0149977Y0172400D01*
X0151800Y0172400D01*
X0151800Y0176800D01*
X0151800Y0176242D02*
X0151800Y0176242D01*
X0151800Y0174644D02*
X0151800Y0174644D01*
X0151800Y0173045D02*
X0151800Y0173045D01*
X0154268Y0173045D02*
X0196850Y0173045D01*
X0196850Y0174644D02*
X0155866Y0174644D01*
X0156200Y0176242D02*
X0196850Y0176242D01*
X0196850Y0177841D02*
X0156200Y0177841D01*
X0155383Y0179439D02*
X0196850Y0179439D01*
X0196850Y0181038D02*
X0153785Y0181038D01*
X0148217Y0179439D02*
X0144818Y0179439D01*
X0145800Y0177841D02*
X0147400Y0177841D01*
X0147400Y0176242D02*
X0145800Y0176242D01*
X0145301Y0174644D02*
X0147734Y0174644D01*
X0149332Y0173045D02*
X0143702Y0173045D01*
X0139898Y0173045D02*
X0135788Y0173045D01*
X0137836Y0174644D02*
X0138299Y0174644D01*
X0138782Y0179439D02*
X0137418Y0179439D01*
X0140143Y0187800D02*
X0143457Y0187800D01*
X0144300Y0188643D01*
X0145143Y0187800D01*
X0148457Y0187800D01*
X0150800Y0190143D01*
X0150800Y0193457D01*
X0148457Y0195800D01*
X0145143Y0195800D01*
X0144300Y0194957D01*
X0143457Y0195800D01*
X0140143Y0195800D01*
X0137800Y0193457D01*
X0137800Y0190143D01*
X0140143Y0187800D01*
X0138913Y0189030D02*
X0105253Y0189030D01*
X0106200Y0189977D02*
X0103623Y0187400D01*
X0101800Y0187400D01*
X0101800Y0191800D01*
X0106200Y0191800D01*
X0106200Y0193623D01*
X0103623Y0196200D01*
X0101800Y0196200D01*
X0101800Y0191800D01*
X0101800Y0191800D01*
X0101800Y0191800D01*
X0106200Y0191800D01*
X0106200Y0189977D01*
X0106200Y0190629D02*
X0137800Y0190629D01*
X0137800Y0192227D02*
X0106200Y0192227D01*
X0105997Y0193826D02*
X0138169Y0193826D01*
X0139767Y0195424D02*
X0104398Y0195424D01*
X0101800Y0195424D02*
X0101800Y0195424D01*
X0101800Y0196200D02*
X0099977Y0196200D01*
X0097400Y0193623D01*
X0097400Y0191800D01*
X0101800Y0191800D01*
X0101800Y0191800D01*
X0101800Y0191800D01*
X0101800Y0196200D01*
X0101800Y0193826D02*
X0101800Y0193826D01*
X0101800Y0192227D02*
X0101800Y0192227D01*
X0101800Y0191800D02*
X0097400Y0191800D01*
X0097400Y0189977D01*
X0099977Y0187400D01*
X0101800Y0187400D01*
X0101800Y0191800D01*
X0101800Y0190629D02*
X0101800Y0190629D01*
X0101800Y0189030D02*
X0101800Y0189030D01*
X0101800Y0187432D02*
X0101800Y0187432D01*
X0103654Y0187432D02*
X0179843Y0187432D01*
X0179934Y0187212D02*
X0182212Y0184934D01*
X0185189Y0183701D01*
X0188411Y0183701D01*
X0191388Y0184934D01*
X0193666Y0187212D01*
X0194899Y0190189D01*
X0194899Y0193411D01*
X0193666Y0196388D01*
X0191388Y0198666D01*
X0188411Y0199899D01*
X0185189Y0199899D01*
X0182212Y0198666D01*
X0179934Y0196388D01*
X0178701Y0193411D01*
X0178701Y0190189D01*
X0179934Y0187212D01*
X0181313Y0185833D02*
X0094000Y0185833D01*
X0094000Y0184235D02*
X0183900Y0184235D01*
X0179181Y0189030D02*
X0159687Y0189030D01*
X0160800Y0190143D02*
X0158457Y0187800D01*
X0155143Y0187800D01*
X0152800Y0190143D01*
X0152800Y0193457D01*
X0155143Y0195800D01*
X0158457Y0195800D01*
X0160800Y0193457D01*
X0160800Y0190143D01*
X0160800Y0190629D02*
X0178701Y0190629D01*
X0178701Y0192227D02*
X0160800Y0192227D01*
X0160431Y0193826D02*
X0178873Y0193826D01*
X0179535Y0195424D02*
X0158832Y0195424D01*
X0154767Y0195424D02*
X0148832Y0195424D01*
X0150431Y0193826D02*
X0153169Y0193826D01*
X0152800Y0192227D02*
X0150800Y0192227D01*
X0150800Y0190629D02*
X0152800Y0190629D01*
X0153913Y0189030D02*
X0149687Y0189030D01*
X0144768Y0195424D02*
X0143832Y0195424D01*
X0126182Y0179439D02*
X0107418Y0179439D01*
X0108298Y0177841D02*
X0125302Y0177841D01*
X0125200Y0176242D02*
X0108400Y0176242D01*
X0107836Y0174644D02*
X0125764Y0174644D01*
X0101800Y0166800D02*
X0096800Y0166800D01*
X0091800Y0171800D01*
X0091800Y0186800D01*
X0086800Y0191800D01*
X0087885Y0193826D02*
X0097603Y0193826D01*
X0097400Y0192227D02*
X0089484Y0192227D01*
X0091082Y0190629D02*
X0097400Y0190629D01*
X0098347Y0189030D02*
X0092681Y0189030D01*
X0094000Y0187432D02*
X0099946Y0187432D01*
X0094000Y0182636D02*
X0196850Y0182636D01*
X0196850Y0184235D02*
X0189700Y0184235D01*
X0192287Y0185833D02*
X0196850Y0185833D01*
X0196850Y0187432D02*
X0193757Y0187432D01*
X0194419Y0189030D02*
X0196850Y0189030D01*
X0196850Y0190629D02*
X0194899Y0190629D01*
X0194899Y0192227D02*
X0196850Y0192227D01*
X0196850Y0193826D02*
X0194727Y0193826D01*
X0194065Y0195424D02*
X0196850Y0195424D01*
X0196850Y0197023D02*
X0193031Y0197023D01*
X0191433Y0198621D02*
X0196850Y0198621D01*
X0196850Y0200220D02*
X0003600Y0200220D01*
X0003600Y0201818D02*
X0196850Y0201818D01*
X0182167Y0198621D02*
X0016433Y0198621D01*
X0018031Y0197023D02*
X0180569Y0197023D01*
X0099202Y0195424D02*
X0019065Y0195424D01*
X0019727Y0193826D02*
X0030715Y0193826D01*
X0029116Y0192227D02*
X0019899Y0192227D01*
X0019899Y0190629D02*
X0027518Y0190629D01*
X0025919Y0189030D02*
X0019419Y0189030D01*
X0008900Y0184235D02*
X0003600Y0184235D01*
X0003600Y0185833D02*
X0006313Y0185833D01*
X0004843Y0187432D02*
X0003600Y0187432D01*
X0003600Y0189030D02*
X0004181Y0189030D01*
X0003701Y0190629D02*
X0003600Y0190629D01*
X0003600Y0192227D02*
X0003701Y0192227D01*
X0003600Y0193826D02*
X0003873Y0193826D01*
X0003600Y0195424D02*
X0004535Y0195424D01*
X0003600Y0197023D02*
X0005569Y0197023D01*
X0007167Y0198621D02*
X0003600Y0198621D01*
X0029000Y0169848D02*
X0037636Y0169848D01*
X0036880Y0168250D02*
X0029000Y0168250D01*
X0029000Y0166651D02*
X0036700Y0166651D01*
X0037004Y0165053D02*
X0029000Y0165053D01*
X0029000Y0163454D02*
X0037933Y0163454D01*
X0040410Y0161856D02*
X0029000Y0161856D01*
X0013868Y0067543D02*
X0010298Y0067543D01*
X0069250Y0022785D02*
X0070728Y0022785D01*
X0077124Y0022785D02*
X0078602Y0022785D01*
X0084998Y0022785D02*
X0086476Y0022785D01*
X0092872Y0022785D02*
X0094350Y0022785D01*
D19*
X0066800Y0046800D03*
M02*
