%
M48
M72
T01C0.02362
T02C0.03150
T03C0.03200
T04C0.03937
T05C0.04000
T06C0.07480
T07C0.12598
%
T01
X66800Y46800
T02
X36879Y53099
X32154Y49950
X36879Y46800
X32154Y43650
X36879Y40501
X73926Y26800
X81800Y26800
X89674Y26800
T03
X61800Y176800
X61800Y136800
X61800Y126800
X36800Y91800
X36800Y81800
X21800Y81800
X21800Y121800
X61800Y86800
X86800Y56800
X86800Y46800
X101800Y46800
X101800Y56800
X101800Y66800
X101800Y76800
X101800Y86800
X101800Y96800
X101800Y106800
X101800Y116800
X101800Y126800
X101800Y136800
X101800Y146800
X101800Y156800
X101800Y166800
X101800Y176800
X101800Y191800
X131800Y176800
X131800Y166800
X131800Y156800
X131800Y146800
X131800Y136800
X131800Y126800
X131800Y116800
X131800Y106800
X131800Y96800
X131800Y86800
X131800Y76800
X131800Y66800
X131800Y56800
X131800Y46800
X121800Y36800
X121800Y26800
X134300Y31800
X141800Y26800
X141800Y36800
X156800Y36800
X156800Y26800
X171800Y41800
X181800Y41800
X141800Y86800
X141800Y96800
X141800Y126800
X151800Y126800
X151800Y176800
X141800Y176800
X141800Y191800
X146800Y191800
X156800Y191800
T04
X66052Y26800
X97548Y26800
T05
X41800Y166800
X41800Y146800
X41800Y121800
X41800Y101800
X6800Y101800
X6800Y91800
X6800Y81800
X6800Y71800
X6800Y111800
X6800Y121800
X6800Y131800
X6800Y141800
X76800Y136800
X76800Y126800
X76800Y146800
X76800Y156800
X76800Y166800
X76800Y176800
X86800Y101800
X86800Y91800
X86800Y81800
X194300Y71800
X194300Y81800
X194300Y91800
X194300Y101800
X194300Y111800
X194300Y121800
X194300Y131800
X194300Y141800
T06
X16800Y61170
X16800Y32430
T07
X11800Y191800
X11800Y16800
X186800Y16800
X186800Y191800
M30
